#N canvas 282 199 450 300 10;
#X obj 126 258 textfile;
#X msg 126 230 add hello;
#X obj 204 211 spigot;
#X obj 242 191 tgl 15 0 empty empty empty 17 7 0 10 -262144 -1 -1 0
1;
#X obj 180 164 t b s b;
#X obj 117 92 t s b b b;
#X msg 203 236 write \$1.txt;
#X msg 76 26 symbol testing;
#X connect 1 0 0 0;
#X connect 2 0 6 0;
#X connect 3 0 2 1;
#X connect 4 0 3 0;
#X connect 4 1 2 0;
#X connect 4 2 3 0;
#X connect 5 0 4 0;
#X connect 5 1 1 0;
#X connect 6 0 0 0;
#X connect 7 0 5 0;
