#N canvas 406 222 861 451 10;
#X obj 254 17 notein;
#X text 19 311 tone;
#X text 102 311 phase;
#X text 54 311 chorus;
#X text 198 313 delay;
#X text 143 312 tremolo;
#X text 239 313 reverb;
#X floatatom 254 138 5 0 0 0 Plugin_num - -, f 5;
#X obj 307 97 ctlin;
#X obj 254 228 plugins;
#X obj 383 117 vsl 15 128 0 1.25 0 0 empty empty Input_Fader 0 -9 0
10 -262144 -1 -1 10160 1;
#X obj 343 203 *~;
#X msg 458 98 1;
#X obj 458 70 loadbang;
#X floatatom 383 257 5 0 0 0 - - -, f 5;
#X obj 615 292 dac~;
#X obj 573 117 vsl 15 128 0 1.25 0 0 empty empty Output_Fader 0 -9
0 10 -262144 -1 -1 10160 1;
#X msg 527 98 1;
#X obj 527 70 loadbang;
#X floatatom 573 257 5 0 0 0 - - -, f 5;
#X obj 625 256 *~;
#X obj 462 150 tgl 50 0 empty empty FX_Mute 10 -10 0 10 -262144 -1
-1 0 1;
#X obj 59 103 adc~;
#X obj 30 232 s~ toFX;
#X obj 313 178 r~ toFX;
#X obj 254 257 s~ toOut;
#X obj 625 209 r~ toOut;
#X obj 462 208 s mute;
#X obj 30 204 *~;
#X obj 48 156 r mute;
#X obj 48 178 == 0;
#X obj 127 156 r mute;
#X obj 109 202 *~;
#X obj 299 281 s~ toOutR;
#X obj 661 230 r~ toOutR;
#X obj 662 256 *~;
#X obj 761 191 vu 15 120 empty empty -1 -8 0 10 -66577 -1 1 0;
#X obj 27 329 tgl 15 0 empty empty empty 17 7 0 10 -262144 -1 -1 0
1;
#X obj 71 329 tgl 15 0 empty empty empty 17 7 0 10 -262144 -1 -1 0
1;
#X obj 114 330 tgl 15 0 empty empty empty 17 7 0 10 -262144 -1 -1 0
1;
#X obj 161 331 tgl 15 0 empty empty empty 17 7 0 10 -262144 -1 -1 0
1;
#X obj 209 331 tgl 15 0 empty empty empty 17 7 0 10 -262144 -1 -1 0
1;
#X obj 253 332 tgl 15 0 empty empty empty 17 7 0 10 -262144 -1 -1 0
1;
#X obj 277 159 pack f f;
#X obj 213 99 spigot;
#X obj 358 66 phasor~;
#X obj 358 25 mtof;
#X obj 254 38 - 48;
#X obj 254 72 < 12;
#X connect 0 0 46 0;
#X connect 0 0 47 0;
#X connect 7 0 9 0;
#X connect 8 0 43 1;
#X connect 8 1 43 0;
#X connect 9 0 25 0;
#X connect 9 1 33 0;
#X connect 10 0 11 1;
#X connect 10 0 14 0;
#X connect 11 0 9 2;
#X connect 12 0 10 0;
#X connect 13 0 12 0;
#X connect 16 0 19 0;
#X connect 16 0 20 1;
#X connect 16 0 35 1;
#X connect 17 0 16 0;
#X connect 18 0 17 0;
#X connect 20 0 15 0;
#X connect 20 0 15 1;
#X connect 21 0 27 0;
#X connect 22 0 28 0;
#X connect 22 0 32 0;
#X connect 22 1 28 0;
#X connect 22 1 32 0;
#X connect 24 0 11 0;
#X connect 26 0 20 0;
#X connect 28 0 23 0;
#X connect 29 0 30 0;
#X connect 30 0 28 1;
#X connect 31 0 32 1;
#X connect 32 0 25 0;
#X connect 34 0 35 0;
#X connect 43 0 9 1;
#X connect 44 0 7 0;
#X connect 45 0 23 0;
#X connect 45 0 25 0;
#X connect 46 0 45 0;
#X connect 47 0 44 0;
#X connect 47 0 48 0;
#X connect 48 0 44 1;
