#N canvas 40 189 980 459 10;
#X obj 87 7 notein;
#X floatatom 87 48 5 0 0 0 Plugin_num - -, f 5;
#X obj 87 92 ctlin;
#X obj 403 57 vsl 15 128 0 1.25 0 0 empty empty Input_Fader 0 -9 0
10 -262144 -1 -1 10160 1;
#X obj 367 195 *~;
#X floatatom 403 194 5 0 0 0 - - -, f 5;
#X obj 640 232 dac~;
#X obj 598 57 vsl 15 128 0 1.25 0 0 empty empty Output_Fader 0 -9 0
10 -262144 -1 -1 10160 1;
#X floatatom 598 197 5 0 0 0 - - -, f 5;
#X obj 650 196 *~;
#X obj 484 103 tgl 50 0 empty empty FX_Mute 10 -10 0 10 -262144 -1
-1 0 1;
#X obj 226 68 adc~;
#X obj 197 197 s~ toFX;
#X obj 337 170 r~ toFX;
#X obj 650 149 r~ toOut;
#X obj 484 158 s mute;
#X obj 197 169 *~;
#X obj 215 121 r mute;
#X obj 215 143 == 0;
#X obj 294 121 r mute;
#X obj 276 167 *~;
#X obj 426 252 s~ toOutR;
#X obj 686 170 r~ toOutR;
#X obj 687 196 *~;
#X obj 34 182 pack f f;
#X obj 87 28 - 48;
#N canvas 52 263 1198 488 plugin 0;
#X obj 17 10 inlet~;
#X obj 91 337 == 0;
#X obj 21 362 *~;
#X obj 73 362 *~;
#X obj 22 386 s~ in1;
#X obj 22 337 r~ out0;
#X obj 207 337 == 0;
#X obj 137 362 *~;
#X obj 189 362 *~;
#X obj 138 337 r~ out1;
#X obj 138 386 s~ in2;
#X obj 76 157 plugin~ AmpVTS;
#X obj 258 159 plugin~ ChorusI;
#X obj 436 159 plugin~ PhaserII;
#X obj 787 224 plugin~ delay_5s;
#X obj 1011 291 outlet~;
#N canvas 88 197 877 503 controlTone 0;
#X obj 387 8 inlet;
#X obj 394 475 outlet;
#X obj 387 34 unpack f f;
#X obj 349 152 tgl 15 0 empty empty empty 17 7 0 10 -262144 -1 -1 1
1;
#X obj 367 152 tgl 15 0 empty empty empty 17 7 0 10 -262144 -1 -1 0
1;
#X obj 386 152 tgl 15 0 empty empty empty 17 7 0 10 -262144 -1 -1 0
1;
#X obj 405 152 tgl 15 0 empty empty empty 17 7 0 10 -262144 -1 -1 0
1;
#X floatatom 381 106 5 0 0 0 - - -, f 5;
#X obj 349 57 t f b;
#X obj 20 385 / 63.5;
#X msg 20 426 control #1 \$1;
#X text 17 180 overdrive;
#X obj 20 224 spigot;
#X obj 127 224 spigot;
#X msg 127 426 control #2 \$1;
#X obj 127 385 / 127;
#X text 133 178 gain;
#X text 232 178 bright;
#X text 342 178 power;
#X text 428 179 tonestack;
#X text 554 179 bass;
#X text 666 179 mid;
#X text 761 177 treble;
#X obj 234 225 spigot;
#X obj 234 386 / 127;
#X msg 234 427 control #3 \$1;
#X obj 340 225 spigot;
#X obj 340 386 / 127;
#X msg 340 427 control #4 \$1;
#X obj 446 225 spigot;
#X msg 446 427 control #5 \$1;
#X obj 553 225 spigot;
#X obj 553 386 / 127;
#X msg 553 427 control #6 \$1;
#X obj 446 386 / 15.875;
#X obj 659 225 spigot;
#X msg 659 427 control #7 \$1;
#X obj 765 225 spigot;
#X msg 765 427 control #8 \$1;
#X obj 349 127 select 0 1 2 3 4 5 6 7;
#X obj 424 152 tgl 15 0 empty empty empty 17 7 0 10 -262144 -1 -1 0
1;
#X obj 443 152 tgl 15 0 empty empty empty 17 7 0 10 -262144 -1 -1 0
1;
#X obj 462 152 tgl 15 0 empty empty empty 17 7 0 10 -262144 -1 -1 0
1;
#X obj 481 152 tgl 15 0 empty empty empty 17 7 0 10 -262144 -1 -1 0
1;
#X floatatom 37 407 5 0 0 0 - - -, f 5;
#X floatatom 134 407 5 0 0 0 - - -, f 5;
#X floatatom 242 408 5 0 0 0 - - -, f 5;
#X floatatom 348 408 5 0 0 0 - - -, f 5;
#X floatatom 561 408 5 0 0 0 - - -, f 5;
#X floatatom 454 408 5 0 0 0 - - -, f 5;
#X msg 394 84 set \$1;
#X obj 454 55 s valT;
#X obj 20 199 r valT;
#X obj 127 199 r valT;
#X obj 234 200 r valT;
#X obj 340 200 r valT;
#X obj 446 200 r valT;
#X obj 553 200 r valT;
#X obj 659 200 r valT;
#X obj 765 200 r valT;
#X floatatom 678 409 5 0 0 0 - - -, f 5;
#X floatatom 793 408 5 0 0 0 - - -, f 5;
#X obj 765 386 / 127;
#X obj 659 386 / 127;
#X obj 286 57 loadbang;
#X obj 75 384 s TOv;
#X obj 173 386 s TGa;
#X obj 287 387 s TBr;
#X obj 387 386 s TPo;
#X obj 509 389 s TTo;
#X obj 596 389 s TBa;
#X obj 704 388 s TMi;
#X obj 810 386 s TTr;
#X obj 71 224 r TOvl;
#X obj 182 225 r TGal;
#X obj 288 226 r TBrl;
#X obj 391 224 r TPol;
#X obj 497 226 r TTol;
#X obj 605 225 r TBal;
#X obj 708 226 r TMil;
#X obj 818 227 r TTrl;
#X obj 20 249 vsl 15 128 0 127 0 0 empty empty empty 0 -9 0 10 -262144
-1 -1 5200 1;
#X obj 127 249 vsl 15 128 0 127 0 0 empty empty empty 0 -9 0 10 -262144
-1 -1 8600 1;
#X obj 234 249 vsl 15 128 0 127 0 0 empty empty empty 0 -9 0 10 -262144
-1 -1 2200 1;
#X obj 340 249 vsl 15 128 0 127 0 0 empty empty empty 0 -9 0 10 -262144
-1 -1 12700 1;
#X obj 446 249 vsl 15 128 0 127 0 0 empty empty empty 0 -9 0 10 -262144
-1 -1 3100 1;
#X obj 553 249 vsl 15 128 0 127 0 0 empty empty empty 0 -9 0 10 -262144
-1 -1 6100 1;
#X obj 659 249 vsl 15 128 0 127 0 0 empty empty empty 0 -9 0 10 -262144
-1 -1 9600 1;
#X obj 765 249 vsl 15 128 0 127 0 0 empty empty empty 0 -9 0 10 -262144
-1 -1 4200 1;
#X connect 0 0 2 0;
#X connect 2 0 8 0;
#X connect 2 1 51 0;
#X connect 3 0 12 1;
#X connect 4 0 13 1;
#X connect 5 0 23 1;
#X connect 6 0 26 1;
#X connect 7 0 39 0;
#X connect 8 0 50 0;
#X connect 8 0 39 0;
#X connect 8 1 7 0;
#X connect 9 0 10 0;
#X connect 9 0 44 0;
#X connect 10 0 1 0;
#X connect 12 0 81 0;
#X connect 13 0 82 0;
#X connect 14 0 1 0;
#X connect 15 0 14 0;
#X connect 15 0 45 0;
#X connect 23 0 83 0;
#X connect 24 0 25 0;
#X connect 24 0 46 0;
#X connect 25 0 1 0;
#X connect 26 0 84 0;
#X connect 27 0 28 0;
#X connect 27 0 47 0;
#X connect 28 0 1 0;
#X connect 29 0 85 0;
#X connect 30 0 1 0;
#X connect 31 0 86 0;
#X connect 32 0 33 0;
#X connect 32 0 48 0;
#X connect 33 0 1 0;
#X connect 34 0 30 0;
#X connect 34 0 49 0;
#X connect 35 0 87 0;
#X connect 36 0 1 0;
#X connect 37 0 88 0;
#X connect 38 0 1 0;
#X connect 39 0 3 0;
#X connect 39 1 4 0;
#X connect 39 2 5 0;
#X connect 39 3 6 0;
#X connect 39 4 40 0;
#X connect 39 5 41 0;
#X connect 39 6 42 0;
#X connect 39 7 43 0;
#X connect 40 0 29 1;
#X connect 41 0 31 1;
#X connect 42 0 35 1;
#X connect 43 0 37 1;
#X connect 50 0 7 0;
#X connect 52 0 12 0;
#X connect 53 0 13 0;
#X connect 54 0 23 0;
#X connect 55 0 26 0;
#X connect 56 0 29 0;
#X connect 57 0 31 0;
#X connect 58 0 35 0;
#X connect 59 0 37 0;
#X connect 62 0 38 0;
#X connect 62 0 61 0;
#X connect 63 0 36 0;
#X connect 63 0 60 0;
#X connect 64 0 3 0;
#X connect 73 0 81 0;
#X connect 74 0 82 0;
#X connect 75 0 83 0;
#X connect 76 0 84 0;
#X connect 77 0 85 0;
#X connect 78 0 86 0;
#X connect 79 0 87 0;
#X connect 80 0 88 0;
#X connect 81 0 9 0;
#X connect 81 0 65 0;
#X connect 82 0 15 0;
#X connect 82 0 66 0;
#X connect 83 0 24 0;
#X connect 83 0 67 0;
#X connect 84 0 27 0;
#X connect 84 0 68 0;
#X connect 85 0 34 0;
#X connect 85 0 69 0;
#X connect 86 0 32 0;
#X connect 86 0 70 0;
#X connect 87 0 63 0;
#X connect 87 0 71 0;
#X connect 88 0 62 0;
#X connect 88 0 72 0;
#X restore 58 134 pd controlTone;
#X obj 97 87 == 0;
#X obj 58 109 spigot;
#N canvas 179 182 686 502 controlChorus 0;
#X obj 310 5 inlet;
#X obj 316 471 outlet;
#X obj 310 31 unpack f f;
#X obj 272 149 tgl 15 0 empty empty empty 17 7 0 10 -262144 -1 -1 1
1;
#X obj 290 149 tgl 15 0 empty empty empty 17 7 0 10 -262144 -1 -1 0
1;
#X obj 309 149 tgl 15 0 empty empty empty 17 7 0 10 -262144 -1 -1 0
1;
#X obj 328 149 tgl 15 0 empty empty empty 17 7 0 10 -262144 -1 -1 0
1;
#X floatatom 304 103 5 0 0 0 - - -, f 5;
#X msg 317 81 set \$1;
#X obj 272 54 t f b;
#X obj 15 215 spigot;
#X obj 123 215 spigot;
#X obj 462 216 spigot;
#X msg 462 436 control #5 \$1;
#X obj 569 216 spigot;
#X obj 569 392 / 127;
#X msg 569 436 control #6 \$1;
#X obj 347 149 tgl 15 0 empty empty empty 17 7 0 10 -262144 -1 -1 0
1;
#X obj 366 149 tgl 15 0 empty empty empty 17 7 0 10 -262144 -1 -1 0
1;
#X obj 272 124 select 0 1 2 3 4 5;
#X text 119 171 t (ms);
#X text 16 171 blend;
#X text 463 170 fdfwd;
#X text 570 170 fdbk;
#X msg 15 436 control #4 \$1;
#X msg 123 436 control #1 \$1;
#X msg 230 436 control #2 \$1;
#X msg 336 436 control #3 \$1;
#X obj 15 392 / 127;
#X obj 123 396 + 2.5;
#X obj 230 215 spigot;
#X text 226 171 width (ms);
#X obj 335 214 spigot;
#X obj 335 374 / 45.5197;
#X obj 335 394 + 0.01;
#X text 331 170 rate (Hz);
#X obj 230 375 / 13.3684;
#X obj 123 376 / 3.3867;
#X obj 230 395 + 0.5;
#X obj 462 392 / 127;
#X floatatom 25 414 5 0 0 0 - - -, f 5;
#X floatatom 133 418 5 0 0 0 - - -, f 5;
#X floatatom 240 417 5 0 0 0 - - -, f 5;
#X floatatom 345 416 5 0 0 0 - - -, f 5;
#X floatatom 472 414 5 0 0 0 - - -, f 5;
#X floatatom 579 414 5 0 0 0 - - -, f 5;
#X obj 377 52 s valC;
#X obj 15 190 r valC;
#X obj 123 192 r valC;
#X obj 230 192 r valC;
#X obj 335 191 r valC;
#X obj 462 191 r valC;
#X obj 569 191 r valC;
#X obj 209 54 loadbang;
#X obj 58 392 s CBl;
#X obj 65 216 r CBll;
#X obj 173 215 r CTl;
#X obj 166 396 s CT;
#X obj 279 215 r CWil;
#X obj 273 395 s CWi;
#X obj 385 394 s CRa;
#X obj 385 214 r CRal;
#X obj 512 216 r CFfl;
#X obj 505 392 s CFf;
#X obj 612 392 s CFb;
#X obj 619 216 r CFbl;
#X obj 15 239 vsl 15 128 0 127 0 0 empty empty empty 0 -9 0 10 -262144
-1 -1 8200 1;
#X obj 123 239 vsl 15 128 0 127 0 0 empty empty empty 0 -9 0 10 -262144
-1 -1 10200 1;
#X obj 230 239 vsl 15 128 0 127 0 0 empty empty empty 0 -9 0 10 -262144
-1 -1 5000 1;
#X obj 335 238 vsl 15 128 0 127 0 0 empty empty empty 0 -9 0 10 -262144
-1 -1 1600 1;
#X obj 569 240 vsl 15 128 0 127 0 0 empty empty empty 0 -9 0 10 -262144
-1 -1 1800 1;
#X obj 462 239 vsl 15 128 0 127 0 0 empty empty empty 0 -9 0 10 -262144
-1 -1 12700 1;
#X connect 0 0 2 0;
#X connect 2 0 9 0;
#X connect 2 1 46 0;
#X connect 3 0 10 1;
#X connect 4 0 11 1;
#X connect 5 0 30 1;
#X connect 6 0 32 1;
#X connect 7 0 19 0;
#X connect 8 0 7 0;
#X connect 9 0 8 0;
#X connect 9 0 19 0;
#X connect 9 1 7 0;
#X connect 10 0 66 0;
#X connect 11 0 67 0;
#X connect 12 0 71 0;
#X connect 13 0 1 0;
#X connect 14 0 70 0;
#X connect 15 0 16 0;
#X connect 15 0 45 0;
#X connect 16 0 1 0;
#X connect 17 0 12 1;
#X connect 18 0 14 1;
#X connect 19 0 3 0;
#X connect 19 1 4 0;
#X connect 19 2 5 0;
#X connect 19 3 6 0;
#X connect 19 4 17 0;
#X connect 19 5 18 0;
#X connect 24 0 1 0;
#X connect 25 0 1 0;
#X connect 26 0 1 0;
#X connect 27 0 1 0;
#X connect 28 0 24 0;
#X connect 28 0 40 0;
#X connect 29 0 25 0;
#X connect 29 0 41 0;
#X connect 30 0 68 0;
#X connect 32 0 69 0;
#X connect 33 0 34 0;
#X connect 34 0 27 0;
#X connect 34 0 43 0;
#X connect 36 0 38 0;
#X connect 37 0 29 0;
#X connect 38 0 26 0;
#X connect 38 0 42 0;
#X connect 39 0 13 0;
#X connect 39 0 44 0;
#X connect 47 0 10 0;
#X connect 48 0 11 0;
#X connect 49 0 30 0;
#X connect 50 0 32 0;
#X connect 51 0 12 0;
#X connect 52 0 14 0;
#X connect 53 0 3 0;
#X connect 55 0 66 0;
#X connect 56 0 67 0;
#X connect 58 0 68 0;
#X connect 61 0 69 0;
#X connect 62 0 71 0;
#X connect 65 0 70 0;
#X connect 66 0 28 0;
#X connect 66 0 54 0;
#X connect 67 0 37 0;
#X connect 67 0 57 0;
#X connect 68 0 36 0;
#X connect 68 0 59 0;
#X connect 69 0 33 0;
#X connect 69 0 60 0;
#X connect 70 0 15 0;
#X connect 70 0 64 0;
#X connect 71 0 39 0;
#X connect 71 0 63 0;
#X restore 240 136 pd controlChorus;
#N canvas 187 130 577 509 controlPhaser 0;
#X obj 274 13 inlet;
#X obj 283 474 outlet;
#X obj 274 39 unpack f f;
#X obj 236 157 tgl 15 0 empty empty empty 17 7 0 10 -262144 -1 -1 1
1;
#X obj 254 157 tgl 15 0 empty empty empty 17 7 0 10 -262144 -1 -1 0
1;
#X obj 273 157 tgl 15 0 empty empty empty 17 7 0 10 -262144 -1 -1 0
1;
#X obj 292 157 tgl 15 0 empty empty empty 17 7 0 10 -262144 -1 -1 0
1;
#X floatatom 268 111 5 0 0 0 - - -, f 5;
#X msg 281 89 set \$1;
#X obj 236 62 t f b;
#X obj 21 235 spigot;
#X obj 128 235 spigot;
#X obj 128 397 / 127;
#X obj 235 236 spigot;
#X obj 235 398 / 127;
#X obj 341 236 spigot;
#X obj 341 400 / 127;
#X msg 341 442 control #4 \$1;
#X obj 447 236 spigot;
#X msg 447 442 control #5 \$1;
#X obj 311 157 tgl 15 0 empty empty empty 17 7 0 10 -262144 -1 -1 0
1;
#X obj 236 132 select 0 1 2 3 4;
#X text 18 191 depth;
#X obj 21 397 / 127;
#X msg 21 441 control #3 \$1;
#X msg 128 441 control #1 \$1;
#X msg 235 442 control #2 \$1;
#X text 134 189 rate;
#X text 243 190 lfo;
#X text 337 190 spread;
#X text 432 194 resonance;
#X obj 447 398 / 127;
#X floatatom 31 419 5 0 0 0 - - -, f 5;
#X floatatom 138 419 5 0 0 0 - - -, f 5;
#X floatatom 245 420 5 0 0 0 - - -, f 5;
#X floatatom 351 420 5 0 0 0 - - -, f 5;
#X floatatom 457 420 5 0 0 0 - - -, f 5;
#X obj 341 60 s valP;
#X obj 21 210 r valP;
#X obj 128 210 r valP;
#X obj 235 211 r valP;
#X obj 341 211 r valP;
#X obj 447 211 r valP;
#X obj 170 62 loadbang;
#X obj 71 235 r PDel;
#X obj 178 235 r PRal;
#X obj 285 236 r PLfl;
#X obj 391 237 r PSpl;
#X obj 497 236 r PRel;
#X obj 65 397 s PDe;
#X obj 173 397 s PRa;
#X obj 280 398 s PLf;
#X obj 385 400 s PSp;
#X obj 491 398 s PRe;
#X obj 21 260 vsl 15 128 0 127 0 0 empty empty empty 0 -9 0 10 -262144
-1 -1 8700 1;
#X obj 128 259 vsl 15 128 0 127 0 0 empty empty empty 0 -9 0 10 -262144
-1 -1 6800 1;
#X obj 235 261 vsl 15 128 0 127 0 0 empty empty empty 0 -9 0 10 -262144
-1 -1 6100 1;
#X obj 341 261 vsl 15 128 0 127 0 0 empty empty empty 0 -9 0 10 -262144
-1 -1 4300 1;
#X obj 447 261 vsl 15 128 0 127 0 0 empty empty empty 0 -9 0 10 -262144
-1 -1 2800 1;
#X connect 0 0 2 0;
#X connect 2 0 9 0;
#X connect 2 1 37 0;
#X connect 3 0 10 1;
#X connect 4 0 11 1;
#X connect 5 0 13 1;
#X connect 6 0 15 1;
#X connect 7 0 21 0;
#X connect 8 0 7 0;
#X connect 9 0 8 0;
#X connect 9 0 21 0;
#X connect 9 1 7 0;
#X connect 10 0 54 0;
#X connect 11 0 55 0;
#X connect 12 0 25 0;
#X connect 12 0 33 0;
#X connect 13 0 56 0;
#X connect 14 0 26 0;
#X connect 14 0 34 0;
#X connect 15 0 57 0;
#X connect 16 0 17 0;
#X connect 16 0 35 0;
#X connect 17 0 1 0;
#X connect 18 0 58 0;
#X connect 19 0 1 0;
#X connect 20 0 18 1;
#X connect 21 0 3 0;
#X connect 21 1 4 0;
#X connect 21 2 5 0;
#X connect 21 3 6 0;
#X connect 21 4 20 0;
#X connect 23 0 24 0;
#X connect 23 0 32 0;
#X connect 24 0 1 0;
#X connect 25 0 1 0;
#X connect 26 0 1 0;
#X connect 31 0 19 0;
#X connect 31 0 36 0;
#X connect 38 0 10 0;
#X connect 39 0 11 0;
#X connect 40 0 13 0;
#X connect 41 0 15 0;
#X connect 42 0 18 0;
#X connect 43 0 3 0;
#X connect 44 0 54 0;
#X connect 45 0 55 0;
#X connect 46 0 56 0;
#X connect 47 0 57 0;
#X connect 48 0 58 0;
#X connect 54 0 23 0;
#X connect 54 0 49 0;
#X connect 55 0 12 0;
#X connect 55 0 50 0;
#X connect 56 0 14 0;
#X connect 56 0 51 0;
#X connect 57 0 16 0;
#X connect 57 0 52 0;
#X connect 58 0 31 0;
#X connect 58 0 53 0;
#X restore 424 134 pd controlPhaser;
#N canvas 159 107 377 498 controlDelay 0;
#X obj 115 6 inlet;
#X obj 87 448 outlet;
#X obj 115 32 unpack f f;
#X obj 77 149 tgl 15 0 empty empty empty 17 7 0 10 -262144 -1 -1 1
1;
#X obj 104 148 tgl 15 0 empty empty empty 17 7 0 10 -262144 -1 -1 0
1;
#X floatatom 109 104 5 0 0 0 - - -, f 5;
#X msg 122 82 set \$1;
#X obj 77 55 t f b;
#X obj 38 213 spigot;
#X obj 145 213 spigot;
#X text 35 169 mix;
#X text 151 167 delay;
#X obj 38 375 / 127;
#X obj 145 375 / 25.4;
#X obj 182 53 s valD;
#X obj 38 188 r valD;
#X obj 145 188 r valD;
#X floatatom 48 397 5 0 0 0 - - -, f 5;
#X floatatom 155 397 5 0 0 0 - - -, f 5;
#X obj 7 55 loadbang;
#X obj 77 125 select 0 1 2;
#X obj 131 148 tgl 15 0 empty empty empty 17 7 0 10 -262144 -1 -1 0
1;
#X obj 251 215 spigot;
#X obj 251 190 r valD;
#X floatatom 261 399 5 0 0 0 - - -, f 5;
#X text 257 169 fb;
#X obj 251 377 / 127;
#X obj 261 419 s fbAmt;
#X msg 38 419 control #2 \$1;
#X msg 145 419 control #1 \$1;
#X obj 38 239 vsl 15 128 0 127 0 0 empty empty empty 0 -9 0 10 -262144
-1 -1 6900 1;
#X obj 145 239 vsl 15 128 0 127 0 0 empty empty empty 0 -9 0 10 -262144
-1 -1 3500 1;
#X obj 263 244 vsl 15 128 0 127 0 0 empty empty empty 0 -9 0 10 -262144
-1 -1 8200 1;
#X obj 82 375 s DMx;
#X obj 90 213 r DMxl;
#X obj 196 374 s DDe;
#X obj 197 214 r DDel;
#X obj 304 215 r DFbl;
#X obj 294 377 s DFb;
#X connect 0 0 2 0;
#X connect 2 0 7 0;
#X connect 2 1 14 0;
#X connect 3 0 8 1;
#X connect 4 0 9 1;
#X connect 5 0 20 0;
#X connect 6 0 5 0;
#X connect 7 0 6 0;
#X connect 7 0 20 0;
#X connect 7 1 5 0;
#X connect 8 0 30 0;
#X connect 9 0 31 0;
#X connect 12 0 28 0;
#X connect 12 0 17 0;
#X connect 13 0 29 0;
#X connect 13 0 18 0;
#X connect 15 0 8 0;
#X connect 16 0 9 0;
#X connect 19 0 3 0;
#X connect 20 0 3 0;
#X connect 20 1 4 0;
#X connect 20 2 21 0;
#X connect 21 0 22 1;
#X connect 22 0 32 0;
#X connect 23 0 22 0;
#X connect 24 0 27 0;
#X connect 26 0 24 0;
#X connect 28 0 1 0;
#X connect 29 0 1 0;
#X connect 30 0 12 0;
#X connect 30 0 33 0;
#X connect 31 0 13 0;
#X connect 31 0 35 0;
#X connect 32 0 26 0;
#X connect 32 0 38 0;
#X connect 34 0 30 0;
#X connect 36 0 31 0;
#X connect 37 0 32 0;
#X restore 787 135 pd controlDelay;
#N canvas 296 173 461 510 controlVerb 0;
#X obj 217 7 inlet;
#X obj 217 33 unpack f f;
#X obj 179 151 tgl 15 0 empty empty empty 17 7 0 10 -262144 -1 -1 1
1;
#X obj 197 151 tgl 15 0 empty empty empty 17 7 0 10 -262144 -1 -1 0
1;
#X obj 216 151 tgl 15 0 empty empty empty 17 7 0 10 -262144 -1 -1 0
1;
#X obj 235 151 tgl 15 0 empty empty empty 17 7 0 10 -262144 -1 -1 0
1;
#X floatatom 211 105 5 0 0 0 - - -, f 5;
#X msg 224 83 set \$1;
#X obj 179 56 t f b;
#X obj 11 401 / 63.5;
#X obj 11 217 spigot;
#X obj 120 218 spigot;
#X obj 228 219 spigot;
#X text 8 173 blend;
#X text 113 174 bandwidth;
#X msg 120 441 control #3 \$1;
#X msg 228 441 control #4 \$1;
#X obj 337 216 spigot;
#X text 332 172 damping;
#X msg 337 441 control #4 \$1;
#X obj 204 477 outlet;
#X text 231 173 tail;
#X obj 228 401 / 127;
#X obj 120 404 + 0.005;
#X obj 337 380 / 127.064;
#X obj 337 404 + 0.0005;
#X msg 11 441 control #4 \$1;
#X obj 179 126 select 0 1 2 3;
#X obj 284 54 s valV;
#X obj 11 192 r valV;
#X obj 120 193 r valV;
#X obj 228 194 r valV;
#X obj 337 191 r valV;
#X floatatom 21 423 5 0 0 0 - - -, f 5;
#X floatatom 130 424 5 0 0 0 - - -, f 5;
#X floatatom 238 423 5 0 0 0 - - -, f 5;
#X floatatom 347 424 5 0 0 0 - - -, f 5;
#X obj 120 383 / 127.767;
#X obj 116 56 loadbang;
#X obj 11 242 vsl 15 128 0 127 0 0 empty empty empty 0 -9 0 10 -262144
-1 -1 10800 1;
#X obj 120 244 vsl 15 128 0 127 0 0 empty empty empty 0 -9 0 10 -262144
-1 -1 12200 1;
#X obj 228 244 vsl 15 128 0 127 0 0 empty empty empty 0 -9 0 10 -262144
-1 -1 3700 1;
#X obj 337 241 vsl 15 128 0 127 0 0 empty empty empty 0 -9 0 10 -262144
-1 -1 6800 1;
#X obj 170 218 r VBal;
#X obj 277 219 r VTal;
#X obj 387 216 r VDal;
#X obj 177 404 s VBa;
#X obj 272 401 s VTa;
#X obj 401 404 s VDa;
#X obj 62 401 s VBl;
#X obj 62 216 r VBll;
#X connect 0 0 1 0;
#X connect 1 0 8 0;
#X connect 1 1 28 0;
#X connect 2 0 10 1;
#X connect 3 0 11 1;
#X connect 4 0 12 1;
#X connect 5 0 17 1;
#X connect 6 0 27 0;
#X connect 7 0 6 0;
#X connect 8 0 7 0;
#X connect 8 0 27 0;
#X connect 8 1 6 0;
#X connect 9 0 26 0;
#X connect 9 0 33 0;
#X connect 10 0 39 0;
#X connect 11 0 40 0;
#X connect 12 0 41 0;
#X connect 15 0 20 0;
#X connect 16 0 20 0;
#X connect 17 0 42 0;
#X connect 19 0 20 0;
#X connect 22 0 16 0;
#X connect 22 0 35 0;
#X connect 23 0 15 0;
#X connect 23 0 34 0;
#X connect 24 0 25 0;
#X connect 25 0 19 0;
#X connect 25 0 36 0;
#X connect 26 0 20 0;
#X connect 27 0 2 0;
#X connect 27 1 3 0;
#X connect 27 2 4 0;
#X connect 27 3 5 0;
#X connect 29 0 10 0;
#X connect 30 0 11 0;
#X connect 31 0 12 0;
#X connect 32 0 17 0;
#X connect 37 0 23 0;
#X connect 38 0 2 0;
#X connect 39 0 9 0;
#X connect 39 0 49 0;
#X connect 40 0 37 0;
#X connect 40 0 46 0;
#X connect 41 0 22 0;
#X connect 41 0 47 0;
#X connect 42 0 24 0;
#X connect 42 0 48 0;
#X connect 43 0 40 0;
#X connect 44 0 41 0;
#X connect 45 0 42 0;
#X connect 50 0 39 0;
#X restore 966 132 pd controlVerb;
#X obj 240 111 spigot;
#X obj 424 109 spigot;
#X obj 609 112 spigot;
#X obj 787 110 spigot;
#X obj 966 110 spigot;
#X obj 97 63 r pluginNum;
#X obj 648 63 r pluginNum;
#X obj 463 63 r pluginNum;
#X obj 826 63 r pluginNum;
#X obj 1005 63 r pluginNum;
#X obj 279 63 r pluginNum;
#X obj 18 63 r ctrlData;
#X obj 385 63 r ctrlData;
#X obj 200 63 r ctrlData;
#X obj 569 63 r ctrlData;
#X obj 747 63 r ctrlData;
#X obj 926 63 r ctrlData;
#X obj 966 176 plugin~ PlateX2;
#X obj 1068 291 outlet~;
#N canvas 385 95 436 596 tremolo 0;
#X obj 42 6 inlet;
#X obj 156 46 unpack f f;
#X obj 118 163 tgl 15 0 empty empty empty 17 7 0 10 -262144 -1 -1 1
1;
#X obj 151 163 tgl 15 0 empty empty empty 17 7 0 10 -262144 -1 -1 0
1;
#X floatatom 150 118 5 0 0 0 - - -, f 5;
#X msg 163 96 set \$1;
#X obj 118 69 t f b;
#X obj 79 227 spigot;
#X obj 192 227 spigot;
#X obj 118 139 select 0 1;
#X text 91 186 mix;
#X obj 79 387 / 127;
#X obj 96 477 inlet~;
#X obj 192 475 osc~;
#X obj 192 438 pow;
#X msg 192 413 2;
#X obj 192 387 t b f;
#X obj 176 523 *~;
#X obj 59 565 outlet~;
#X obj 8 692 outlet;
#X floatatom 79 409 5 0 0 0 - - -, f 5;
#X floatatom 199 458 5 0 0 0 - - -, f 5;
#X obj 223 67 s valAM;
#X obj 79 202 r valAM;
#X obj 192 204 r valAM;
#X obj 61 114 loadbang;
#X text 200 187 freq;
#X obj 224 413 / 10;
#X obj 266 451 mtof;
#X obj 266 430 r rmFreq;
#X obj 269 474 hsl 128 15 0 127 0 0 empty empty empty -2 -8 0 10 -262144
-1 -1 0 1;
#X floatatom 266 493 5 0 0 0 - - -, f 5;
#X obj 61 508 *~;
#X obj 60 537 +~;
#X obj 193 498 *~;
#X obj 79 250 vsl 15 128 0 127 0 0 empty empty empty 0 -9 0 10 -262144
-1 -1 9300 1;
#X obj 61 486 -;
#X msg 61 464 1;
#X obj 61 442 t b f;
#X obj 305 452 r AMRml;
#X obj 192 251 vsl 15 128 0 127 0 0 empty empty empty 0 -9 0 10 -262144
-1 -1 0 1;
#X obj 242 228 r AMFrl;
#X obj 121 386 s AMMx;
#X obj 128 227 r AMMxl;
#X obj 235 386 s AMFr;
#X connect 0 0 1 0;
#X connect 1 0 6 0;
#X connect 1 1 22 0;
#X connect 2 0 7 1;
#X connect 3 0 8 1;
#X connect 4 0 9 0;
#X connect 5 0 4 0;
#X connect 6 0 5 0;
#X connect 6 0 9 0;
#X connect 6 1 4 0;
#X connect 7 0 35 0;
#X connect 8 0 40 0;
#X connect 9 0 2 0;
#X connect 9 1 3 0;
#X connect 11 0 20 0;
#X connect 12 0 17 0;
#X connect 12 0 32 0;
#X connect 13 0 34 0;
#X connect 14 0 13 0;
#X connect 14 0 21 0;
#X connect 15 0 14 0;
#X connect 16 0 15 0;
#X connect 16 1 27 0;
#X connect 17 0 33 1;
#X connect 20 0 34 1;
#X connect 20 0 38 0;
#X connect 23 0 7 0;
#X connect 24 0 8 0;
#X connect 25 0 2 0;
#X connect 25 0 38 0;
#X connect 27 0 14 1;
#X connect 28 0 13 0;
#X connect 29 0 28 0;
#X connect 30 0 28 0;
#X connect 30 0 31 0;
#X connect 32 0 33 0;
#X connect 33 0 18 0;
#X connect 34 0 17 1;
#X connect 35 0 11 0;
#X connect 35 0 42 0;
#X connect 36 0 32 1;
#X connect 37 0 36 0;
#X connect 38 0 37 0;
#X connect 38 1 36 1;
#X connect 39 0 30 0;
#X connect 40 0 16 0;
#X connect 40 0 44 0;
#X connect 41 0 40 0;
#X connect 43 0 35 0;
#X restore 609 163 pd tremolo;
#X obj 279 87 == 2;
#X obj 463 85 == 4;
#X obj 648 86 == 5;
#X obj 826 86 == 7;
#X obj 1005 86 == 9;
#X obj 91 311 tgl 15 0 empty empty empty 17 7 0 10 -262144 -1 -1 0
1;
#X obj 207 311 tgl 15 0 empty empty empty 17 7 0 10 -262144 -1 -1 0
1;
#X obj 324 311 tgl 15 0 empty empty empty 17 7 0 10 -262144 -1 -1 0
1;
#X obj 444 311 tgl 15 0 empty empty empty 17 7 0 10 -262144 -1 -1 0
1;
#X obj 564 311 tgl 15 0 empty empty empty 17 7 0 10 -262144 -1 -1 0
1;
#X obj 684 311 tgl 15 0 empty empty empty 17 7 0 10 -262144 -1 -1 0
1;
#X obj 875 178 r fbAmt;
#X obj 857 200 *~;
#X text 78 269 C tone;
#X text 188 269 D chorus;
#X text 309 269 E phase;
#X text 427 269 F tremolo;
#X text 553 269 G delay;
#X text 673 269 A reverb;
#X obj 91 291 r sT;
#X obj 207 291 r sC;
#X obj 324 291 r sP;
#X obj 564 291 r sD;
#X obj 444 291 r sAM;
#X obj 112 109 tgl 20 0 empty empty empty 17 7 0 10 -262144 -258113
-1 0 1;
#X obj 296 111 tgl 20 0 empty empty empty 17 7 0 10 -262144 -258113
-1 0 1;
#X obj 485 110 tgl 20 0 empty empty empty 17 7 0 10 -262144 -258113
-1 0 1;
#X obj 673 109 tgl 20 0 empty empty empty 17 7 0 10 -262144 -258113
-1 0 1;
#X obj 842 111 tgl 20 0 empty empty empty 17 7 0 10 -262144 -258113
-1 0 1;
#X obj 1038 109 tgl 20 0 empty empty empty 17 7 0 10 -262144 -258113
-1 0 1;
#X obj 170 134 r~ in1;
#X obj 171 180 s~ out1;
#X obj 361 136 r~ in2;
#X obj 360 182 s~ out2;
#X obj 545 182 s~ out3;
#X obj 677 138 r~ in4;
#X obj 675 186 s~ out4;
#X obj 895 201 r~ in5;
#X obj 939 246 s~ out5;
#X obj 896 246 s~ fb;
#X obj 856 158 r~ fb;
#X obj 324 337 == 0;
#X obj 254 362 *~;
#X obj 306 362 *~;
#X obj 255 337 r~ out2;
#X obj 255 386 s~ in3;
#X obj 444 337 == 0;
#X obj 374 362 *~;
#X obj 426 362 *~;
#X obj 564 337 == 0;
#X obj 494 362 *~;
#X obj 546 362 *~;
#X obj 684 337 == 0;
#X obj 614 362 *~;
#X obj 666 362 *~;
#X obj 545 135 r~ in3;
#X obj 1016 153 r~ in6;
#X obj 375 337 r~ out3;
#X obj 495 337 r~ out4;
#X obj 615 337 r~ out5;
#X obj 375 386 s~ in4;
#X obj 495 386 s~ in5;
#X obj 615 386 s~ in6;
#X obj 18 34 s~ out0;
#X obj 1011 269 r~ out6;
#X obj 1018 201 s~ out6;
#X obj 72 385 s~ out1b;
#X obj 188 385 s~ out2b;
#X obj 305 385 s~ out3b;
#X obj 426 385 s~ out4b;
#X obj 545 385 s~ out5b;
#X obj 665 385 s~ out6b;
#X obj 138 315 r~ out1b;
#X obj 255 315 r~ out2b;
#X obj 375 314 r~ out3b;
#X obj 495 315 r~ out4b;
#X obj 615 315 r~ out5b;
#X obj 1011 240 r~ out6b;
#X obj 684 291 r sV;
#X connect 0 0 106 0;
#X connect 1 0 3 1;
#X connect 2 0 4 0;
#X connect 3 0 109 0;
#X connect 5 0 2 0;
#X connect 5 0 3 0;
#X connect 6 0 8 1;
#X connect 7 0 10 0;
#X connect 8 0 110 0;
#X connect 9 0 7 0;
#X connect 9 0 8 0;
#X connect 11 1 74 0;
#X connect 12 1 76 0;
#X connect 13 1 77 0;
#X connect 14 1 82 0;
#X connect 14 1 81 0;
#X connect 16 0 11 0;
#X connect 17 0 18 1;
#X connect 17 0 67 0;
#X connect 18 0 16 0;
#X connect 19 0 12 0;
#X connect 21 0 14 0;
#X connect 22 0 40 0;
#X connect 23 0 19 0;
#X connect 25 0 42 0;
#X connect 26 0 21 0;
#X connect 27 0 22 0;
#X connect 28 0 17 0;
#X connect 29 0 45 0;
#X connect 30 0 44 0;
#X connect 31 0 46 0;
#X connect 32 0 47 0;
#X connect 33 0 43 0;
#X connect 34 0 18 0;
#X connect 35 0 24 0;
#X connect 36 0 23 0;
#X connect 37 0 25 0;
#X connect 38 0 26 0;
#X connect 39 0 27 0;
#X connect 40 1 108 0;
#X connect 40 2 41 0;
#X connect 42 1 79 0;
#X connect 43 0 23 1;
#X connect 43 0 68 0;
#X connect 44 0 24 1;
#X connect 44 0 69 0;
#X connect 45 0 25 1;
#X connect 45 0 70 0;
#X connect 46 0 26 1;
#X connect 46 0 71 0;
#X connect 47 0 27 1;
#X connect 47 0 72 0;
#X connect 48 0 1 0;
#X connect 48 0 2 1;
#X connect 49 0 6 0;
#X connect 49 0 7 1;
#X connect 50 0 84 0;
#X connect 50 0 85 1;
#X connect 51 0 89 0;
#X connect 51 0 90 1;
#X connect 52 0 92 0;
#X connect 52 0 93 1;
#X connect 53 0 95 0;
#X connect 53 0 96 1;
#X connect 54 0 55 1;
#X connect 55 0 14 1;
#X connect 62 0 48 0;
#X connect 63 0 49 0;
#X connect 64 0 50 0;
#X connect 65 0 52 0;
#X connect 66 0 51 0;
#X connect 73 0 11 1;
#X connect 75 0 12 1;
#X connect 78 0 42 1;
#X connect 80 0 14 1;
#X connect 83 0 55 0;
#X connect 84 0 86 1;
#X connect 85 0 88 0;
#X connect 86 0 111 0;
#X connect 87 0 85 0;
#X connect 87 0 86 0;
#X connect 89 0 91 1;
#X connect 90 0 103 0;
#X connect 91 0 112 0;
#X connect 92 0 94 1;
#X connect 93 0 104 0;
#X connect 94 0 113 0;
#X connect 95 0 97 1;
#X connect 96 0 105 0;
#X connect 97 0 114 0;
#X connect 98 0 13 1;
#X connect 99 0 40 1;
#X connect 99 0 40 2;
#X connect 100 0 90 0;
#X connect 100 0 91 0;
#X connect 101 0 93 0;
#X connect 101 0 94 0;
#X connect 102 0 96 0;
#X connect 102 0 97 0;
#X connect 107 0 15 0;
#X connect 115 0 7 0;
#X connect 115 0 8 0;
#X connect 116 0 85 0;
#X connect 116 0 86 0;
#X connect 117 0 90 0;
#X connect 117 0 91 0;
#X connect 118 0 93 0;
#X connect 118 0 94 0;
#X connect 119 0 96 0;
#X connect 119 0 97 0;
#X connect 120 0 15 0;
#X connect 121 0 53 0;
#X restore 367 233 pd plugin;
#X obj 103 118 s ctrlNum;
#X obj 786 75 vu 25 120 empty empty -1 -8 0 10 -66577 -1 1 0;
#X obj 263 368 tgl 25 0 empty empty empty 17 7 0 10 -262144 -258113
-1 0 1;
#X obj 340 368 tgl 25 0 empty empty empty 17 7 0 10 -262144 -258113
-1 0 1;
#X obj 417 368 tgl 25 0 empty empty empty 17 7 0 10 -262144 -258113
-1 0 1;
#X obj 502 368 tgl 25 0 empty empty empty 17 7 0 10 -262144 -258113
-1 0 1;
#X obj 587 368 tgl 25 0 empty empty empty 17 7 0 10 -262144 -258113
-1 0 1;
#X obj 664 368 tgl 25 0 empty empty empty 17 7 0 10 -262144 -258113
-1 0 1;
#X text 250 301 C tone;
#X text 321 301 D chorus;
#X text 402 301 E phase;
#X text 485 301 F tremolo;
#X text 576 301 G delay;
#X text 653 301 A reverb;
#X obj 263 323 r sT;
#X obj 340 323 r sC;
#X obj 417 323 r sP;
#X obj 587 323 r sD;
#X obj 502 323 r sAM;
#X obj 87 66 s pluginNum;
#X obj 33 203 s ctrlData;
#X obj 87 139 s ctrlVal;
#X obj 679 232 s~ vu;
#X obj 785 8 r~ vu;
#X obj 785 28 env~;
#X obj 785 48 - 100;
#X floatatom 35 278 5 0 0 3 Current_Tempo - -, f 5;
#X obj 35 255 r tempo;
#N canvas 306 144 255 619 tapTempo 0;
#X obj 10 219 bng 40 250 50 0 empty empty empty 17 7 0 10 -262144 -258113
-1;
#X obj 10 264 t b b b;
#X obj 33 306 t;
#X obj 33 331 timer;
#X obj 112 329 + 1;
#X obj 10 8 loadbang;
#X obj 33 376 array set taps;
#X obj 80 307 t f f;
#X obj 10 400 array sum taps;
#X text 99 52 number of taps;
#X obj 70 76 s numTaps;
#X obj 10 30 t b b b b;
#X obj 30 139 array size taps;
#X obj 50 99 array define taps;
#X obj 132 119 r numTaps;
#X obj 42 160 r numTaps;
#X obj 141 329 r numTaps;
#X obj 112 353 %;
#X obj 28 440 r numTaps;
#X obj 10 462 /;
#X floatatom 10 573 5 0 0 1 TEMPO - -, f 5;
#X msg 10 527 60000;
#X obj 10 549 /;
#X obj 10 503 t b f;
#X msg 70 52 3;
#X obj 10 420 f;
#X obj 33 353 f;
#X obj 80 286 f;
#X obj 10 484 f;
#X obj 57 184 r tap;
#X obj 10 593 s tempo;
#X obj 10 118 t b b b;
#X connect 0 0 1 0;
#X connect 1 0 8 0;
#X connect 1 1 2 0;
#X connect 1 2 27 0;
#X connect 2 0 3 0;
#X connect 2 1 3 1;
#X connect 3 0 26 0;
#X connect 4 0 17 0;
#X connect 5 0 11 0;
#X connect 7 0 6 1;
#X connect 7 1 4 0;
#X connect 8 0 25 0;
#X connect 11 0 31 0;
#X connect 11 1 12 0;
#X connect 11 2 13 0;
#X connect 11 3 24 0;
#X connect 14 0 12 1;
#X connect 16 0 17 1;
#X connect 17 0 27 1;
#X connect 18 0 19 1;
#X connect 19 0 28 0;
#X connect 20 0 30 0;
#X connect 21 0 22 0;
#X connect 22 0 20 0;
#X connect 23 0 21 0;
#X connect 23 1 22 1;
#X connect 24 0 10 0;
#X connect 25 0 19 0;
#X connect 26 0 6 0;
#X connect 27 0 7 0;
#X connect 28 0 23 0;
#X connect 29 0 0 0;
#X connect 31 0 0 0;
#X connect 31 1 0 0;
#X connect 31 2 0 0;
#X restore 311 10 pd tapTempo;
#N canvas 0 85 1351 687 controlCenter 0;
#X obj 41 15 r ctrlNum;
#X text 119 14 current Ctrl;
#X floatatom 41 37 5 0 0 0 - - -, f 5;
#X obj 41 70 == 23;
#X obj 188 70 == 24;
#X obj 41 123 select 0 2 4 5 7 9;
#X msg 61 143 0;
#X msg 123 143 0;
#X msg 82 143 0;
#X msg 102 143 0;
#X msg 41 143 0;
#X msg 143 143 0;
#X obj 41 163 s sT;
#X obj 61 183 s sC;
#X obj 82 203 s sP;
#X obj 102 223 s sAM;
#X obj 123 243 s sD;
#X obj 143 264 s sV;
#X obj 188 122 select 0 2 4 5 7 9;
#X obj 188 162 s sT;
#X obj 208 182 s sC;
#X obj 229 202 s sP;
#X obj 249 222 s sAM;
#X obj 270 242 s sD;
#X obj 290 263 s sV;
#X msg 188 142 1;
#X msg 229 142 1;
#X msg 208 142 1;
#X msg 249 142 1;
#X msg 270 142 1;
#X msg 290 142 1;
#X obj 379 69 == 25;
#X obj 379 115 s tap;
#X obj 379 92 b;
#X connect 0 0 2 0;
#X connect 2 0 3 0;
#X connect 2 0 4 0;
#X connect 2 0 31 0;
#X connect 3 0 5 0;
#X connect 4 0 18 0;
#X connect 5 0 10 0;
#X connect 5 1 6 0;
#X connect 5 2 8 0;
#X connect 5 3 9 0;
#X connect 5 4 7 0;
#X connect 5 5 11 0;
#X connect 6 0 13 0;
#X connect 7 0 16 0;
#X connect 8 0 14 0;
#X connect 9 0 15 0;
#X connect 10 0 12 0;
#X connect 11 0 17 0;
#X connect 18 0 25 0;
#X connect 18 1 27 0;
#X connect 18 2 26 0;
#X connect 18 3 28 0;
#X connect 18 4 29 0;
#X connect 18 5 30 0;
#X connect 25 0 19 0;
#X connect 26 0 21 0;
#X connect 27 0 20 0;
#X connect 28 0 22 0;
#X connect 29 0 23 0;
#X connect 30 0 24 0;
#X connect 31 0 33 0;
#X connect 33 0 32 0;
#X restore 191 10 pd controlCenter;
#X obj 145 256 bng 30 250 50 0 empty empty empty 17 7 0 10 -262144
-1 -1;
#X obj 145 292 s tap;
#X obj 36 388 s tempo;
#X obj 36 367 nbx 5 14 -1e+37 1e+37 0 0 empty empty Set_Tempo 58 8
0 10 -262144 -1 -1 120 256;
#X msg 36 343 120;
#X obj 36 322 loadbang;
#X obj 366 268 s~ toOut;
#X obj 277 197 s~ toOutb;
#X obj 648 125 r~ toOutb;
#X msg 263 345 set \$1;
#X msg 340 345 set \$1;
#X msg 417 345 set \$1;
#X msg 502 345 set \$1;
#X msg 587 345 set \$1;
#X msg 664 345 set \$1;
#X obj 263 398 s sT;
#X obj 340 398 s sC;
#X obj 417 398 s sP;
#X obj 502 398 s sAM;
#X obj 587 398 s sD;
#N canvas 17 91 1191 687 presets 0;
#X obj 87 660 textfile;
#X obj 215 161 r gainIn;
#X obj 341 161 r gainOut;
#X obj 80 9 r presetName;
#X obj 87 597 spigot;
#X obj 126 577 tgl 15 0 empty empty empty 17 7 0 10 -262144 -1 -1 0
1;
#X obj 80 555 t b s b;
#X obj 197 182 f;
#X obj 323 182 f;
#X obj 590 78 r sT;
#X obj 572 100 f;
#X obj 674 99 f;
#X obj 692 77 r sC;
#X obj 772 99 f;
#X obj 790 77 r sP;
#X obj 871 99 f;
#X obj 889 77 r sAM;
#X obj 981 99 f;
#X obj 999 77 r sD;
#X obj 1081 99 f;
#X obj 1099 76 r sV;
#X obj 197 245 f;
#X obj 215 224 r tempo;
#X obj 323 245 f;
#X obj 341 224 r mute;
#X obj 572 165 f;
#X obj 590 143 r TOv;
#X obj 572 230 f;
#X obj 590 208 r TGa;
#X obj 572 295 f;
#X obj 590 273 r TBr;
#X obj 572 360 f;
#X obj 590 338 r TPo;
#X obj 572 425 f;
#X obj 590 403 r TTo;
#X obj 572 490 f;
#X obj 590 468 r TBa;
#X obj 572 555 f;
#X obj 590 533 r TMi;
#X obj 572 620 f;
#X obj 590 598 r TTr;
#X obj 80 35 t s b b b b b b b b b b b b b b b b b b b b b b b b b
b b b b b b b b b b b b b b, f 81;
#X msg 644 56 clear;
#X obj 678 165 f;
#X obj 696 143 r CBl;
#X obj 678 230 f;
#X obj 696 208 r CT;
#X obj 678 295 f;
#X obj 696 273 r CWi;
#X obj 678 360 f;
#X obj 696 338 r CRa;
#X obj 678 425 f;
#X obj 696 403 r CFf;
#X obj 678 490 f;
#X obj 696 468 r CFb;
#X msg 197 203 add gainInl \$1;
#X msg 197 266 add tempol \$1;
#X msg 323 203 add gainOutl \$1;
#X msg 323 266 add mutel \$1;
#X msg 572 122 add sTl \$1;
#X msg 572 187 add TOvl \$1;
#X msg 572 252 add TGal \$1;
#X msg 572 317 add TBrl \$1;
#X msg 572 382 add TPol \$1;
#X msg 572 447 add TTol \$1;
#X msg 572 512 add TBal \$1;
#X msg 572 577 add TMil \$1;
#X msg 572 642 add TTrl \$1;
#X msg 674 121 add sCl \$1;
#X msg 678 252 add CTl \$1;
#X msg 678 316 add CWil \$1;
#X msg 678 381 add CRal \$1;
#X msg 678 446 add CFfl \$1;
#X msg 678 511 add CFbl \$1;
#X msg 772 121 add sPl \$1;
#X msg 871 121 add sAMl \$1;
#X msg 981 122 add sDl \$1;
#X msg 1081 122 add sVl \$1;
#X msg 678 187 add CBll \$1;
#N canvas 77 264 673 294 loadPreset 0;
#X obj 4 178 qlist;
#X obj 5 48 openpanel;
#X msg 50 91 set symbol \$1;
#X obj 50 133 s presetNamel;
#X obj 5 5 r presetl;
#X msg 4 154 read \$1;
#X obj 54 221 print "Preset Loaded";
#X obj 201 132 loadbang;
#X msg 50 112 symbol /home/vito/Documents/pd-patches/fx_rig/fulltest2.fxp
;
#X obj 36 199 t;
#X msg 2 221 clear;
#X obj 4 69 t b b s;
#X obj 201 154 t b b b;
#X msg 5 27 symbol ~/Documents/pd-patches/fx_rig/presets/;
#X msg 247 178 symbol ~/Documents/pd-patches/fx_rig/presets/default.fxp
;
#X connect 0 1 9 0;
#X connect 1 0 11 0;
#X connect 2 0 8 0;
#X connect 4 0 13 0;
#X connect 5 0 0 0;
#X connect 7 0 12 0;
#X connect 8 0 3 0;
#X connect 8 0 5 0;
#X connect 9 0 10 0;
#X connect 9 1 6 0;
#X connect 10 0 0 0;
#X connect 11 0 0 0;
#X connect 11 1 8 0;
#X connect 11 2 2 0;
#X connect 12 0 10 0;
#X connect 12 1 0 0;
#X connect 12 2 14 0;
#X connect 13 0 1 0;
#X connect 14 0 5 0;
#X restore 173 9 pd loadPreset;
#X obj 778 165 f;
#X obj 778 230 f;
#X obj 778 295 f;
#X obj 778 360 f;
#X obj 778 425 f;
#X obj 796 143 r PDe;
#X msg 778 187 add PDel \$1;
#X obj 796 208 r PRa;
#X msg 778 252 add PRal \$1;
#X obj 796 273 r PLf;
#X obj 796 338 r PSp;
#X msg 778 381 add PSpl \$1;
#X obj 796 403 r PRe;
#X obj 876 165 f;
#X obj 876 230 f;
#X obj 876 295 f;
#X obj 894 143 r AMMx;
#X msg 876 187 add AMMxl \$1;
#X obj 894 208 r AMFr;
#X msg 876 252 add AMFrl \$1;
#X obj 894 273 r AMRm;
#X msg 876 316 add AMRml \$1;
#X obj 982 165 f;
#X obj 982 230 f;
#X obj 982 295 f;
#X obj 1000 143 r DMx;
#X msg 982 187 add DMxl \$1;
#X obj 1000 208 r DDe;
#X msg 982 252 add DDel \$1;
#X obj 1000 273 r DFb;
#X msg 982 316 add DFbl \$1;
#X obj 1081 165 f;
#X obj 1081 230 f;
#X obj 1081 295 f;
#X obj 1081 360 f;
#X obj 1099 143 r VBl;
#X msg 1081 187 add VBll \$1;
#X obj 1099 208 r VBa;
#X msg 1081 252 add VBal \$1;
#X obj 1099 273 r VTa;
#X msg 1081 315 add VTal \$1;
#X obj 1099 338 r VDa;
#X msg 1081 381 add VDal \$1;
#X msg 778 316 add PLfl \$1;
#X msg 778 446 add PRel \$1;
#X msg 87 619 write ~/Documents/pd-patches/fx_rig/presets/\$1;
#X connect 1 0 7 1;
#X connect 2 0 8 1;
#X connect 3 0 41 0;
#X connect 4 0 125 0;
#X connect 5 0 4 1;
#X connect 6 0 5 0;
#X connect 6 1 4 0;
#X connect 6 2 5 0;
#X connect 7 0 55 0;
#X connect 8 0 57 0;
#X connect 9 0 10 1;
#X connect 10 0 59 0;
#X connect 11 0 68 0;
#X connect 12 0 11 1;
#X connect 13 0 74 0;
#X connect 14 0 13 1;
#X connect 15 0 75 0;
#X connect 16 0 15 1;
#X connect 17 0 76 0;
#X connect 18 0 17 1;
#X connect 19 0 77 0;
#X connect 20 0 19 1;
#X connect 21 0 56 0;
#X connect 22 0 21 1;
#X connect 23 0 58 0;
#X connect 24 0 23 1;
#X connect 25 0 60 0;
#X connect 26 0 25 1;
#X connect 27 0 61 0;
#X connect 28 0 27 1;
#X connect 29 0 62 0;
#X connect 30 0 29 1;
#X connect 31 0 63 0;
#X connect 32 0 31 1;
#X connect 33 0 64 0;
#X connect 34 0 33 1;
#X connect 35 0 65 0;
#X connect 36 0 35 1;
#X connect 37 0 66 0;
#X connect 38 0 37 1;
#X connect 39 0 67 0;
#X connect 40 0 39 1;
#X connect 41 0 6 0;
#X connect 41 1 114 0;
#X connect 41 2 113 0;
#X connect 41 3 112 0;
#X connect 41 4 19 0;
#X connect 41 4 111 0;
#X connect 41 5 104 0;
#X connect 41 6 103 0;
#X connect 41 7 102 0;
#X connect 41 8 17 0;
#X connect 41 9 95 0;
#X connect 41 10 94 0;
#X connect 41 11 93 0;
#X connect 41 12 15 0;
#X connect 41 13 84 0;
#X connect 41 14 83 0;
#X connect 41 15 82 0;
#X connect 41 16 81 0;
#X connect 41 17 80 0;
#X connect 41 18 13 0;
#X connect 41 19 53 0;
#X connect 41 20 51 0;
#X connect 41 21 49 0;
#X connect 41 22 47 0;
#X connect 41 23 45 0;
#X connect 41 24 43 0;
#X connect 41 25 11 0;
#X connect 41 26 39 0;
#X connect 41 27 37 0;
#X connect 41 28 35 0;
#X connect 41 29 33 0;
#X connect 41 30 31 0;
#X connect 41 31 29 0;
#X connect 41 32 27 0;
#X connect 41 33 25 0;
#X connect 41 34 10 0;
#X connect 41 35 23 0;
#X connect 41 36 21 0;
#X connect 41 37 8 0;
#X connect 41 38 7 0;
#X connect 41 39 42 0;
#X connect 42 0 0 0;
#X connect 43 0 78 0;
#X connect 44 0 43 1;
#X connect 45 0 69 0;
#X connect 46 0 45 1;
#X connect 47 0 70 0;
#X connect 48 0 47 1;
#X connect 49 0 71 0;
#X connect 50 0 49 1;
#X connect 51 0 72 0;
#X connect 52 0 51 1;
#X connect 53 0 73 0;
#X connect 54 0 53 1;
#X connect 55 0 0 0;
#X connect 56 0 0 0;
#X connect 57 0 0 0;
#X connect 58 0 0 0;
#X connect 59 0 0 0;
#X connect 60 0 0 0;
#X connect 61 0 0 0;
#X connect 62 0 0 0;
#X connect 63 0 0 0;
#X connect 64 0 0 0;
#X connect 65 0 0 0;
#X connect 66 0 0 0;
#X connect 67 0 0 0;
#X connect 68 0 0 0;
#X connect 69 0 0 0;
#X connect 70 0 0 0;
#X connect 71 0 0 0;
#X connect 72 0 0 0;
#X connect 73 0 0 0;
#X connect 74 0 0 0;
#X connect 75 0 0 0;
#X connect 76 0 0 0;
#X connect 77 0 0 0;
#X connect 78 0 0 0;
#X connect 80 0 86 0;
#X connect 81 0 88 0;
#X connect 82 0 123 0;
#X connect 83 0 91 0;
#X connect 84 0 124 0;
#X connect 85 0 80 1;
#X connect 86 0 0 0;
#X connect 87 0 81 1;
#X connect 88 0 0 0;
#X connect 89 0 82 1;
#X connect 90 0 83 1;
#X connect 91 0 0 0;
#X connect 92 0 84 1;
#X connect 93 0 97 0;
#X connect 94 0 99 0;
#X connect 95 0 101 0;
#X connect 96 0 93 1;
#X connect 97 0 0 0;
#X connect 98 0 94 1;
#X connect 99 0 0 0;
#X connect 100 0 95 1;
#X connect 101 0 0 0;
#X connect 102 0 106 0;
#X connect 103 0 108 0;
#X connect 104 0 110 0;
#X connect 105 0 102 1;
#X connect 106 0 0 0;
#X connect 107 0 103 1;
#X connect 108 0 0 0;
#X connect 109 0 104 1;
#X connect 110 0 0 0;
#X connect 111 0 116 0;
#X connect 112 0 118 0;
#X connect 113 0 120 0;
#X connect 114 0 122 0;
#X connect 115 0 111 1;
#X connect 116 0 0 0;
#X connect 117 0 112 1;
#X connect 118 0 0 0;
#X connect 119 0 113 1;
#X connect 120 0 0 0;
#X connect 121 0 114 1;
#X connect 122 0 0 0;
#X connect 123 0 0 0;
#X connect 124 0 0 0;
#X connect 125 0 0 0;
#X restore 191 31 pd presets;
#X obj 403 212 s gainIn;
#X obj 598 253 s gainOut;
#X obj 403 24 r gainInl;
#X obj 597 24 r gainOutl;
#X obj 221 323 r sTl;
#X obj 299 323 r sCl;
#X obj 376 323 r sPl;
#X obj 453 323 r sAMl;
#X obj 546 324 r sDl;
#X obj 484 68 r mutel;
#X obj 746 353 s presetName;
#X obj 746 249 r presetNamel;
#X msg 746 271 set symbol \$1;
#X obj 746 215 bng 30 250 50 0 empty empty Save_Preset -10 -10 0 10
-262144 -1 -1;
#X obj 623 323 r sVl;
#X obj 664 323 r sV;
#X obj 664 398 s sV;
#X obj 68 343 r tempol;
#X obj 746 389 bng 30 250 50 0 empty empty Load_Preset -10 -10 0 10
-262144 -1 -1;
#X obj 746 422 s presetl;
#X msg 746 292 symbol /home/vito/Documents/pd-patches/fx_rig/presets/fulltest2.fxp
, f 26;
#X connect 0 0 25 0;
#X connect 1 0 46 0;
#X connect 2 0 24 1;
#X connect 2 0 48 0;
#X connect 2 1 24 0;
#X connect 2 1 27 0;
#X connect 3 0 4 1;
#X connect 3 0 5 0;
#X connect 4 0 26 0;
#X connect 5 0 78 0;
#X connect 7 0 8 0;
#X connect 7 0 9 1;
#X connect 7 0 23 1;
#X connect 8 0 79 0;
#X connect 9 0 6 0;
#X connect 9 0 6 1;
#X connect 9 0 49 0;
#X connect 10 0 15 0;
#X connect 11 0 16 0;
#X connect 11 0 20 0;
#X connect 11 1 16 0;
#X connect 11 1 20 0;
#X connect 13 0 4 0;
#X connect 14 0 9 0;
#X connect 16 0 12 0;
#X connect 17 0 18 0;
#X connect 18 0 16 1;
#X connect 19 0 20 1;
#X connect 20 0 64 0;
#X connect 22 0 23 0;
#X connect 24 0 47 0;
#X connect 25 0 1 0;
#X connect 26 0 63 0;
#X connect 26 1 21 0;
#X connect 29 0 72 0;
#X connect 30 0 73 0;
#X connect 31 0 74 0;
#X connect 32 0 75 0;
#X connect 33 0 76 0;
#X connect 34 0 94 0;
#X connect 41 0 66 0;
#X connect 42 0 67 0;
#X connect 43 0 68 0;
#X connect 44 0 70 0;
#X connect 45 0 69 0;
#X connect 50 0 51 0;
#X connect 51 0 52 0;
#X connect 52 0 28 0;
#X connect 54 0 53 0;
#X connect 57 0 58 0;
#X connect 60 0 59 0;
#X connect 61 0 60 0;
#X connect 62 0 61 0;
#X connect 65 0 9 0;
#X connect 66 0 29 0;
#X connect 67 0 30 0;
#X connect 68 0 31 0;
#X connect 69 0 32 0;
#X connect 70 0 33 0;
#X connect 71 0 34 0;
#X connect 80 0 3 0;
#X connect 81 0 7 0;
#X connect 82 0 29 0;
#X connect 83 0 30 0;
#X connect 84 0 31 0;
#X connect 85 0 32 0;
#X connect 86 0 33 0;
#X connect 87 0 10 0;
#X connect 89 0 90 0;
#X connect 90 0 98 0;
#X connect 91 0 98 0;
#X connect 92 0 34 0;
#X connect 93 0 71 0;
#X connect 95 0 60 0;
#X connect 96 0 97 0;
#X connect 98 0 88 0;
