#N canvas -33 132 926 425 10;
#X obj 87 7 notein;
#X floatatom 87 48 5 0 0 0 Plugin_num - -, f 5;
#X obj 87 92 ctlin;
#X obj 403 57 vsl 15 128 0 1.25 0 0 empty empty Input_Fader 0 -9 0
10 -262144 -1 -1 9460 1;
#X obj 367 195 *~;
#X msg 478 38 1;
#X obj 478 10 loadbang;
#X floatatom 403 194 5 0 0 0 - - -, f 5;
#X obj 635 232 dac~;
#X obj 593 57 vsl 15 128 0 1.25 0 0 empty empty Output_Fader 0 -9 0
10 -262144 -1 -1 7760 1;
#X msg 547 38 1;
#X obj 547 10 loadbang;
#X floatatom 593 197 5 0 0 0 - - -, f 5;
#X obj 645 196 *~;
#X obj 483 103 tgl 50 0 empty empty FX_Mute 10 -10 0 10 -262144 -1
-1 0 1;
#X obj 226 68 adc~;
#X obj 197 197 s~ toFX;
#X obj 337 170 r~ toFX;
#X obj 645 149 r~ toOut;
#X obj 483 158 s mute;
#X obj 197 169 *~;
#X obj 215 121 r mute;
#X obj 215 143 == 0;
#X obj 294 121 r mute;
#X obj 276 167 *~;
#X obj 426 252 s~ toOutR;
#X obj 681 170 r~ toOutR;
#X obj 682 196 *~;
#X obj 34 182 pack f f;
#X obj 87 28 - 48;
#N canvas 87 244 1198 487 plugin 0;
#X obj 17 10 inlet~;
#X obj 91 337 == 0;
#X obj 21 362 *~;
#X obj 73 362 *~;
#X obj 22 386 s~ in1;
#X obj 22 337 r~ out0;
#X obj 207 337 == 0;
#X obj 137 362 *~;
#X obj 189 362 *~;
#X obj 138 337 r~ out1;
#X obj 138 386 s~ in2;
#X obj 76 157 plugin~ AmpVTS;
#X obj 258 159 plugin~ ChorusI;
#X obj 436 159 plugin~ PhaserII;
#X obj 787 224 plugin~ delay_5s;
#X obj 1011 291 outlet~;
#N canvas 129 83 955 491 controlTone 0;
#X obj 442 10 inlet;
#X obj 449 364 outlet;
#X obj 442 36 unpack f f;
#X obj 404 154 tgl 15 0 empty empty empty 17 7 0 10 -262144 -1 -1 1
1;
#X obj 422 154 tgl 15 0 empty empty empty 17 7 0 10 -262144 -1 -1 0
1;
#X obj 441 154 tgl 15 0 empty empty empty 17 7 0 10 -262144 -1 -1 0
1;
#X obj 460 154 tgl 15 0 empty empty empty 17 7 0 10 -262144 -1 -1 0
1;
#X floatatom 436 108 5 0 0 0 - - -, f 5;
#X obj 404 59 t f b;
#X obj 75 265 / 63.5;
#X msg 75 306 control #1 \$1;
#X text 72 196 overdrive;
#X obj 75 240 spigot;
#X obj 182 240 spigot;
#X msg 182 306 control #2 \$1;
#X obj 182 265 / 127;
#X text 188 194 gain;
#X text 287 194 bright;
#X text 397 194 power;
#X text 483 195 tonestack;
#X text 609 195 bass;
#X text 721 195 mid;
#X text 816 193 treble;
#X obj 289 241 spigot;
#X obj 289 266 / 127;
#X msg 289 307 control #3 \$1;
#X obj 395 241 spigot;
#X obj 395 266 / 127;
#X msg 395 307 control #4 \$1;
#X obj 501 241 spigot;
#X msg 501 307 control #5 \$1;
#X obj 608 241 spigot;
#X obj 608 266 / 127;
#X msg 608 307 control #6 \$1;
#X obj 501 266 / 15.875;
#X obj 714 241 spigot;
#X msg 714 307 control #7 \$1;
#X obj 820 241 spigot;
#X msg 820 307 control #8 \$1;
#X obj 404 129 select 0 1 2 3 4 5 6 7;
#X obj 479 154 tgl 15 0 empty empty empty 17 7 0 10 -262144 -1 -1 0
1;
#X obj 498 154 tgl 15 0 empty empty empty 17 7 0 10 -262144 -1 -1 0
1;
#X obj 517 154 tgl 15 0 empty empty empty 17 7 0 10 -262144 -1 -1 0
1;
#X obj 536 154 tgl 15 0 empty empty empty 17 7 0 10 -262144 -1 -1 0
1;
#X floatatom 92 287 5 0 0 0 - - -, f 5;
#X floatatom 189 287 5 0 0 0 - - -, f 5;
#X floatatom 297 288 5 0 0 0 - - -, f 5;
#X floatatom 403 288 5 0 0 0 - - -, f 5;
#X floatatom 616 288 5 0 0 0 - - -, f 5;
#X floatatom 509 288 5 0 0 0 - - -, f 5;
#X msg 449 86 set \$1;
#X obj 509 57 s valT;
#X obj 75 215 r valT;
#X obj 182 215 r valT;
#X obj 289 216 r valT;
#X obj 395 216 r valT;
#X obj 501 216 r valT;
#X obj 608 216 r valT;
#X obj 714 216 r valT;
#X obj 820 216 r valT;
#X floatatom 733 289 5 0 0 0 - - -, f 5;
#X floatatom 848 288 5 0 0 0 - - -, f 5;
#X obj 820 266 / 127;
#X obj 714 266 / 127;
#X obj 341 59 loadbang;
#X obj 35 358 hsl 128 15 0 127 0 0 empty empty empty -2 -8 0 10 -262144
-1 -1 0 1;
#X obj 356 417 hsl 128 15 0 127 0 0 empty empty empty -2 -8 0 10 -262144
-1 -1 0 1;
#X obj 462 437 hsl 128 15 0 127 0 0 empty empty empty -2 -8 0 10 -262144
-1 -1 0 1;
#X obj 137 378 hsl 128 15 0 127 0 0 empty empty empty -2 -8 0 10 -262144
-1 -1 0 1;
#X obj 569 419 hsl 128 15 0 127 0 0 empty empty empty -2 -8 0 10 -262144
-1 -1 0 1;
#X obj 781 379 hsl 128 15 0 127 0 0 empty empty empty -2 -8 0 10 -262144
-1 -1 0 1;
#X obj 672 401 hsl 128 15 0 127 0 0 empty empty empty -2 -8 0 10 -262144
-1 -1 0 1;
#X obj 246 398 hsl 128 15 0 127 0 0 empty empty empty -2 -8 0 10 -262144
-1 -1 0 1;
#X obj 32 265 s TOv;
#X obj 138 265 s TGa;
#X obj 243 266 s TBr;
#X obj 352 266 s TPo;
#X obj 458 266 s TTo;
#X obj 566 267 s TBa;
#X obj 669 266 s TMi;
#X obj 775 267 s TTr;
#X obj 25 240 r TOvl;
#X msg 25 335 set \$1;
#X obj 134 240 r TGal;
#X msg 134 338 set \$1;
#X obj 240 241 r TBrl;
#X msg 240 360 set \$1;
#X obj 344 242 r TPol;
#X msg 344 373 set \$1;
#X obj 447 243 r TTol;
#X msg 447 394 set \$1;
#X obj 558 241 r TBal;
#X msg 558 394 set \$1;
#X obj 664 242 r TMil;
#X msg 664 379 set \$1;
#X obj 769 241 r TTrl;
#X msg 770 359 set \$1;
#X connect 0 0 2 0;
#X connect 2 0 8 0;
#X connect 2 1 51 0;
#X connect 3 0 12 1;
#X connect 4 0 13 1;
#X connect 5 0 23 1;
#X connect 6 0 26 1;
#X connect 7 0 39 0;
#X connect 8 0 50 0;
#X connect 8 0 39 0;
#X connect 8 1 7 0;
#X connect 9 0 10 0;
#X connect 9 0 44 0;
#X connect 10 0 1 0;
#X connect 12 0 9 0;
#X connect 12 0 73 0;
#X connect 13 0 15 0;
#X connect 13 0 74 0;
#X connect 14 0 1 0;
#X connect 15 0 14 0;
#X connect 15 0 45 0;
#X connect 23 0 24 0;
#X connect 23 0 75 0;
#X connect 24 0 25 0;
#X connect 24 0 46 0;
#X connect 25 0 1 0;
#X connect 26 0 27 0;
#X connect 26 0 76 0;
#X connect 27 0 28 0;
#X connect 27 0 47 0;
#X connect 28 0 1 0;
#X connect 29 0 34 0;
#X connect 29 0 77 0;
#X connect 30 0 1 0;
#X connect 31 0 32 0;
#X connect 31 0 78 0;
#X connect 32 0 33 0;
#X connect 32 0 48 0;
#X connect 33 0 1 0;
#X connect 34 0 30 0;
#X connect 34 0 49 0;
#X connect 35 0 63 0;
#X connect 35 0 79 0;
#X connect 36 0 1 0;
#X connect 37 0 62 0;
#X connect 37 0 80 0;
#X connect 38 0 1 0;
#X connect 39 0 3 0;
#X connect 39 1 4 0;
#X connect 39 2 5 0;
#X connect 39 3 6 0;
#X connect 39 4 40 0;
#X connect 39 5 41 0;
#X connect 39 6 42 0;
#X connect 39 7 43 0;
#X connect 40 0 29 1;
#X connect 41 0 31 1;
#X connect 42 0 35 1;
#X connect 43 0 37 1;
#X connect 50 0 7 0;
#X connect 52 0 12 0;
#X connect 53 0 13 0;
#X connect 54 0 23 0;
#X connect 55 0 26 0;
#X connect 56 0 29 0;
#X connect 57 0 31 0;
#X connect 58 0 35 0;
#X connect 59 0 37 0;
#X connect 62 0 38 0;
#X connect 62 0 61 0;
#X connect 63 0 36 0;
#X connect 63 0 60 0;
#X connect 64 0 3 0;
#X connect 65 0 9 0;
#X connect 65 0 73 0;
#X connect 66 0 27 0;
#X connect 66 0 76 0;
#X connect 67 0 34 0;
#X connect 67 0 77 0;
#X connect 68 0 15 0;
#X connect 68 0 74 0;
#X connect 69 0 32 0;
#X connect 69 0 78 0;
#X connect 70 0 62 0;
#X connect 70 0 80 0;
#X connect 71 0 63 0;
#X connect 71 0 79 0;
#X connect 72 0 24 0;
#X connect 72 0 75 0;
#X connect 81 0 9 0;
#X connect 81 0 82 0;
#X connect 82 0 65 0;
#X connect 83 0 15 0;
#X connect 83 0 84 0;
#X connect 84 0 68 0;
#X connect 85 0 24 0;
#X connect 85 0 86 0;
#X connect 86 0 72 0;
#X connect 87 0 27 0;
#X connect 87 0 88 0;
#X connect 88 0 66 0;
#X connect 89 0 34 0;
#X connect 89 0 90 0;
#X connect 90 0 67 0;
#X connect 91 0 32 0;
#X connect 91 0 92 0;
#X connect 92 0 69 0;
#X connect 93 0 63 0;
#X connect 93 0 94 0;
#X connect 94 0 71 0;
#X connect 95 0 62 0;
#X connect 95 0 96 0;
#X connect 96 0 70 0;
#X restore 58 134 pd controlTone;
#X obj 97 87 == 0;
#X obj 58 109 spigot;
#N canvas 98 209 894 502 controlChorus 0;
#X obj 409 20 inlet;
#X obj 416 357 outlet;
#X obj 409 46 unpack f f;
#X obj 371 164 tgl 15 0 empty empty empty 17 7 0 10 -262144 -1 -1 1
1;
#X obj 389 164 tgl 15 0 empty empty empty 17 7 0 10 -262144 -1 -1 0
1;
#X obj 408 164 tgl 15 0 empty empty empty 17 7 0 10 -262144 -1 -1 0
1;
#X obj 427 164 tgl 15 0 empty empty empty 17 7 0 10 -262144 -1 -1 0
1;
#X floatatom 403 118 5 0 0 0 - - -, f 5;
#X msg 416 96 set \$1;
#X obj 371 69 t f b;
#X obj 85 252 spigot;
#X obj 192 239 spigot;
#X obj 535 252 spigot;
#X msg 535 321 control #5 \$1;
#X obj 642 252 spigot;
#X obj 642 277 / 127;
#X msg 642 321 control #6 \$1;
#X obj 446 164 tgl 15 0 empty empty empty 17 7 0 10 -262144 -1 -1 0
1;
#X obj 465 164 tgl 15 0 empty empty empty 17 7 0 10 -262144 -1 -1 0
1;
#X obj 371 139 select 0 1 2 3 4 5;
#X text 188 195 t (ms);
#X text 86 208 blend;
#X text 517 206 fdfwd;
#X text 643 206 fdbk;
#X msg 85 321 control #4 \$1;
#X msg 192 321 control #1 \$1;
#X msg 299 322 control #2 \$1;
#X msg 405 322 control #3 \$1;
#X obj 85 277 / 127;
#X obj 192 281 + 2.5;
#X obj 299 239 spigot;
#X text 295 195 width (ms);
#X obj 404 238 spigot;
#X obj 404 260 / 45.5197;
#X obj 404 280 + 0.01;
#X text 400 194 rate (Hz);
#X obj 299 261 / 13.3684;
#X obj 192 261 / 3.3867;
#X obj 299 281 + 0.5;
#X obj 535 277 / 127;
#X floatatom 95 299 5 0 0 0 - - -, f 5;
#X floatatom 202 303 5 0 0 0 - - -, f 5;
#X floatatom 309 303 5 0 0 0 - - -, f 5;
#X floatatom 414 302 5 0 0 0 - - -, f 5;
#X floatatom 545 299 5 0 0 0 - - -, f 5;
#X floatatom 652 299 5 0 0 0 - - -, f 5;
#X obj 476 67 s valC;
#X obj 85 227 r valC;
#X obj 192 216 r valC;
#X obj 299 216 r valC;
#X obj 404 215 r valC;
#X obj 535 227 r valC;
#X obj 642 227 r valC;
#X obj 308 69 loadbang;
#X obj 46 364 hsl 128 15 0 127 0 0 empty empty empty -2 -8 0 10 -262144
-1 -1 0 1;
#X obj 142 405 hsl 128 15 0 127 0 0 empty empty empty -2 -8 0 10 -262144
-1 -1 0 1;
#X obj 292 441 hsl 128 15 0 127 0 0 empty empty empty -2 -8 0 10 -262144
-1 -1 0 1;
#X obj 412 408 hsl 128 15 0 127 0 0 empty empty empty -2 -8 0 10 -262144
-1 -1 0 1;
#X obj 524 384 hsl 128 15 0 127 0 0 empty empty empty -2 -8 0 10 -262144
-1 -1 0 1;
#X obj 650 360 hsl 128 15 0 127 0 0 empty empty empty -2 -8 0 10 -262144
-1 -1 0 1;
#X connect 0 0 2 0;
#X connect 2 0 9 0;
#X connect 2 1 46 0;
#X connect 3 0 10 1;
#X connect 4 0 11 1;
#X connect 5 0 30 1;
#X connect 6 0 32 1;
#X connect 7 0 19 0;
#X connect 8 0 7 0;
#X connect 9 0 8 0;
#X connect 9 0 19 0;
#X connect 9 1 7 0;
#X connect 10 0 28 0;
#X connect 11 0 37 0;
#X connect 12 0 39 0;
#X connect 13 0 1 0;
#X connect 14 0 15 0;
#X connect 15 0 16 0;
#X connect 15 0 45 0;
#X connect 16 0 1 0;
#X connect 17 0 12 1;
#X connect 18 0 14 1;
#X connect 19 0 3 0;
#X connect 19 1 4 0;
#X connect 19 2 5 0;
#X connect 19 3 6 0;
#X connect 19 4 17 0;
#X connect 19 5 18 0;
#X connect 24 0 1 0;
#X connect 25 0 1 0;
#X connect 26 0 1 0;
#X connect 27 0 1 0;
#X connect 28 0 24 0;
#X connect 28 0 40 0;
#X connect 29 0 25 0;
#X connect 29 0 41 0;
#X connect 30 0 36 0;
#X connect 32 0 33 0;
#X connect 33 0 34 0;
#X connect 34 0 27 0;
#X connect 34 0 43 0;
#X connect 36 0 38 0;
#X connect 37 0 29 0;
#X connect 38 0 26 0;
#X connect 38 0 42 0;
#X connect 39 0 13 0;
#X connect 39 0 44 0;
#X connect 47 0 10 0;
#X connect 48 0 11 0;
#X connect 49 0 30 0;
#X connect 50 0 32 0;
#X connect 51 0 12 0;
#X connect 52 0 14 0;
#X connect 53 0 3 0;
#X connect 54 0 28 0;
#X connect 55 0 37 0;
#X connect 56 0 36 0;
#X connect 57 0 33 0;
#X connect 58 0 39 0;
#X connect 59 0 15 0;
#X restore 240 136 pd controlChorus;
#N canvas 155 142 647 464 controlPhaser 0;
#X obj 286 16 inlet;
#X obj 295 340 outlet;
#X obj 286 42 unpack f f;
#X obj 248 160 tgl 15 0 empty empty empty 17 7 0 10 -262144 -1 -1 1
1;
#X obj 266 160 tgl 15 0 empty empty empty 17 7 0 10 -262144 -1 -1 0
1;
#X obj 285 160 tgl 15 0 empty empty empty 17 7 0 10 -262144 -1 -1 0
1;
#X obj 304 160 tgl 15 0 empty empty empty 17 7 0 10 -262144 -1 -1 0
1;
#X floatatom 280 114 5 0 0 0 - - -, f 5;
#X msg 293 92 set \$1;
#X obj 248 65 t f b;
#X obj 33 238 spigot;
#X obj 140 238 spigot;
#X obj 140 263 / 127;
#X obj 247 239 spigot;
#X obj 247 264 / 127;
#X obj 353 239 spigot;
#X obj 353 264 / 127;
#X msg 353 308 control #4 \$1;
#X obj 459 239 spigot;
#X msg 459 308 control #5 \$1;
#X obj 323 160 tgl 15 0 empty empty empty 17 7 0 10 -262144 -1 -1 0
1;
#X obj 248 135 select 0 1 2 3 4;
#X text 30 194 depth;
#X obj 33 263 / 127;
#X msg 33 307 control #3 \$1;
#X msg 140 307 control #1 \$1;
#X msg 247 308 control #2 \$1;
#X text 146 192 rate;
#X text 255 193 lfo;
#X text 349 193 spread;
#X text 444 197 resonance;
#X obj 459 264 / 127;
#X floatatom 43 285 5 0 0 0 - - -, f 5;
#X floatatom 150 285 5 0 0 0 - - -, f 5;
#X floatatom 257 286 5 0 0 0 - - -, f 5;
#X floatatom 363 286 5 0 0 0 - - -, f 5;
#X floatatom 469 286 5 0 0 0 - - -, f 5;
#X obj 353 63 s valP;
#X obj 33 213 r valP;
#X obj 140 213 r valP;
#X obj 247 214 r valP;
#X obj 353 214 r valP;
#X obj 459 214 r valP;
#X obj 182 65 loadbang;
#X obj 35 405 hsl 128 15 0 127 0 0 empty empty empty -2 -8 0 10 -262144
-1 -1 0 1;
#X obj 126 375 hsl 128 15 0 127 0 0 empty empty empty -2 -8 0 10 -262144
-1 -1 0 1;
#X obj 473 410 hsl 128 15 0 127 0 0 empty empty empty -2 -8 0 10 -262144
-1 -1 0 1;
#X obj 298 415 hsl 128 15 0 127 0 0 empty empty empty -2 -8 0 10 -262144
-1 -1 0 1;
#X obj 361 373 hsl 128 15 0 127 0 0 empty empty empty -2 -8 0 10 -262144
-1 -1 0 1;
#X connect 0 0 2 0;
#X connect 2 0 9 0;
#X connect 2 1 37 0;
#X connect 3 0 10 1;
#X connect 4 0 11 1;
#X connect 5 0 13 1;
#X connect 6 0 15 1;
#X connect 7 0 21 0;
#X connect 8 0 7 0;
#X connect 9 0 8 0;
#X connect 9 0 21 0;
#X connect 9 1 7 0;
#X connect 10 0 23 0;
#X connect 11 0 12 0;
#X connect 12 0 25 0;
#X connect 12 0 33 0;
#X connect 13 0 14 0;
#X connect 14 0 26 0;
#X connect 14 0 34 0;
#X connect 15 0 16 0;
#X connect 16 0 17 0;
#X connect 16 0 35 0;
#X connect 17 0 1 0;
#X connect 18 0 31 0;
#X connect 19 0 1 0;
#X connect 20 0 18 1;
#X connect 21 0 3 0;
#X connect 21 1 4 0;
#X connect 21 2 5 0;
#X connect 21 3 6 0;
#X connect 21 4 20 0;
#X connect 23 0 24 0;
#X connect 23 0 32 0;
#X connect 24 0 1 0;
#X connect 25 0 1 0;
#X connect 26 0 1 0;
#X connect 31 0 19 0;
#X connect 31 0 36 0;
#X connect 38 0 10 0;
#X connect 39 0 11 0;
#X connect 40 0 13 0;
#X connect 41 0 15 0;
#X connect 42 0 18 0;
#X connect 43 0 3 0;
#X connect 44 0 23 0;
#X connect 45 0 12 0;
#X connect 46 0 31 0;
#X connect 47 0 14 0;
#X connect 48 0 16 0;
#X restore 424 134 pd controlPhaser;
#N canvas 262 159 970 498 controlDelay 0;
#X obj 416 33 inlet;
#X obj 399 341 outlet;
#X obj 416 59 unpack f f;
#X obj 378 176 tgl 15 0 empty empty empty 17 7 0 10 -262144 -1 -1 1
1;
#X obj 405 175 tgl 15 0 empty empty empty 17 7 0 10 -262144 -1 -1 0
1;
#X floatatom 410 131 5 0 0 0 - - -, f 5;
#X msg 423 109 set \$1;
#X obj 378 82 t f b;
#X obj 339 240 spigot;
#X obj 446 240 spigot;
#X text 336 196 mix;
#X text 452 194 delay;
#X obj 339 265 / 127;
#X obj 446 265 / 25.4;
#X obj 483 80 s valD;
#X obj 339 215 r valD;
#X obj 446 215 r valD;
#X floatatom 349 287 5 0 0 0 - - -, f 5;
#X floatatom 456 287 5 0 0 0 - - -, f 5;
#X obj 308 82 loadbang;
#X obj 378 152 select 0 1 2;
#X obj 432 175 tgl 15 0 empty empty empty 17 7 0 10 -262144 -1 -1 0
1;
#X obj 564 245 spigot;
#X obj 564 220 r valD;
#X floatatom 574 292 5 0 0 0 - - -, f 5;
#X text 570 199 fb;
#X obj 564 270 / 127;
#X obj 574 312 s fbAmt;
#X msg 339 309 control #2 \$1;
#X msg 446 309 control #1 \$1;
#X obj 357 348 vsl 15 128 0 127 0 0 empty empty empty 0 -9 0 10 -262144
-1 -1 0 1;
#X obj 468 355 vsl 15 128 0 127 0 0 empty empty empty 0 -9 0 10 -262144
-1 -1 0 1;
#X obj 582 350 vsl 15 128 0 127 0 0 empty empty empty 0 -9 0 10 -262144
-1 -1 0 1;
#X connect 0 0 2 0;
#X connect 2 0 7 0;
#X connect 2 1 14 0;
#X connect 3 0 8 1;
#X connect 4 0 9 1;
#X connect 5 0 20 0;
#X connect 6 0 5 0;
#X connect 7 0 6 0;
#X connect 7 0 20 0;
#X connect 7 1 5 0;
#X connect 8 0 12 0;
#X connect 9 0 13 0;
#X connect 12 0 28 0;
#X connect 12 0 17 0;
#X connect 13 0 29 0;
#X connect 13 0 18 0;
#X connect 15 0 8 0;
#X connect 16 0 9 0;
#X connect 19 0 3 0;
#X connect 20 0 3 0;
#X connect 20 1 4 0;
#X connect 20 2 21 0;
#X connect 21 0 22 1;
#X connect 22 0 26 0;
#X connect 23 0 22 0;
#X connect 24 0 27 0;
#X connect 26 0 24 0;
#X connect 28 0 1 0;
#X connect 29 0 1 0;
#X connect 30 0 12 0;
#X connect 31 0 13 0;
#X connect 32 0 26 0;
#X restore 787 135 pd controlDelay;
#N canvas 312 215 937 501 controlVerb 0;
#X obj 409 20 inlet;
#X obj 409 46 unpack f f;
#X obj 371 164 tgl 15 0 empty empty empty 17 7 0 10 -262144 -1 -1 1
1;
#X obj 389 164 tgl 15 0 empty empty empty 17 7 0 10 -262144 -1 -1 0
1;
#X obj 408 164 tgl 15 0 empty empty empty 17 7 0 10 -262144 -1 -1 0
1;
#X obj 427 164 tgl 15 0 empty empty empty 17 7 0 10 -262144 -1 -1 0
1;
#X floatatom 403 118 5 0 0 0 - - -, f 5;
#X msg 416 96 set \$1;
#X obj 371 69 t f b;
#X obj 263 270 / 63.5;
#X obj 263 245 spigot;
#X obj 372 246 spigot;
#X obj 491 260 spigot;
#X text 260 201 blend;
#X text 374 199 bandwidth;
#X msg 372 327 control #3 \$1;
#X msg 491 325 control #4 \$1;
#X obj 615 241 spigot;
#X text 597 195 damping;
#X msg 615 327 control #4 \$1;
#X obj 415 357 outlet;
#X text 494 214 tail;
#X obj 491 285 / 127;
#X obj 372 290 + 0.005;
#X obj 615 266 / 127.064;
#X obj 615 290 + 0.0005;
#X msg 263 310 control #4 \$1;
#X obj 371 139 select 0 1 2 3;
#X obj 476 67 s valV;
#X obj 263 220 r valV;
#X obj 372 221 r valV;
#X obj 491 235 r valV;
#X obj 615 216 r valV;
#X floatatom 273 292 5 0 0 0 - - -, f 5;
#X floatatom 382 312 5 0 0 0 - - -, f 5;
#X floatatom 501 307 5 0 0 0 - - -, f 5;
#X floatatom 625 312 5 0 0 0 - - -, f 5;
#X obj 372 269 / 127.767;
#X obj 308 69 loadbang;
#X obj 181 375 hsl 128 15 0 127 0 0 empty empty empty -2 -8 0 10 -262144
-1 -1 0 1;
#X obj 353 424 hsl 128 15 0 127 0 0 empty empty empty -2 -8 0 10 -262144
-1 -1 0 1;
#X obj 504 386 hsl 128 15 0 127 0 0 empty empty empty -2 -8 0 10 -262144
-1 -1 0 1;
#X obj 621 421 hsl 128 15 0 127 0 0 empty empty empty -2 -8 0 10 -262144
-1 -1 0 1;
#X connect 0 0 1 0;
#X connect 1 0 8 0;
#X connect 1 1 28 0;
#X connect 2 0 10 1;
#X connect 3 0 11 1;
#X connect 4 0 12 1;
#X connect 5 0 17 1;
#X connect 6 0 27 0;
#X connect 7 0 6 0;
#X connect 8 0 7 0;
#X connect 8 0 27 0;
#X connect 8 1 6 0;
#X connect 9 0 26 0;
#X connect 9 0 33 0;
#X connect 10 0 9 0;
#X connect 11 0 37 0;
#X connect 12 0 22 0;
#X connect 15 0 20 0;
#X connect 16 0 20 0;
#X connect 17 0 24 0;
#X connect 19 0 20 0;
#X connect 22 0 16 0;
#X connect 22 0 35 0;
#X connect 23 0 15 0;
#X connect 23 0 34 0;
#X connect 24 0 25 0;
#X connect 25 0 19 0;
#X connect 25 0 36 0;
#X connect 26 0 20 0;
#X connect 27 0 2 0;
#X connect 27 1 3 0;
#X connect 27 2 4 0;
#X connect 27 3 5 0;
#X connect 29 0 10 0;
#X connect 30 0 11 0;
#X connect 31 0 12 0;
#X connect 32 0 17 0;
#X connect 37 0 23 0;
#X connect 38 0 2 0;
#X connect 39 0 9 0;
#X connect 40 0 37 0;
#X connect 41 0 22 0;
#X connect 42 0 24 0;
#X restore 966 132 pd controlVerb;
#X obj 240 111 spigot;
#X obj 424 109 spigot;
#X obj 609 112 spigot;
#X obj 787 110 spigot;
#X obj 966 110 spigot;
#X obj 97 63 r pluginNum;
#X obj 648 63 r pluginNum;
#X obj 463 63 r pluginNum;
#X obj 826 63 r pluginNum;
#X obj 1005 63 r pluginNum;
#X obj 279 63 r pluginNum;
#X obj 18 63 r ctrlData;
#X obj 385 63 r ctrlData;
#X obj 200 63 r ctrlData;
#X obj 569 63 r ctrlData;
#X obj 747 63 r ctrlData;
#X obj 926 63 r ctrlData;
#X obj 966 176 plugin~ PlateX2;
#X obj 1068 291 outlet~;
#N canvas 886 165 436 470 tremolo 0;
#X obj 42 6 inlet;
#X obj 156 46 unpack f f;
#X obj 118 163 tgl 15 0 empty empty empty 17 7 0 10 -262144 -1 -1 1
1;
#X obj 151 163 tgl 15 0 empty empty empty 17 7 0 10 -262144 -1 -1 0
1;
#X floatatom 150 118 5 0 0 0 - - -, f 5;
#X msg 163 96 set \$1;
#X obj 118 69 t f b;
#X obj 79 227 spigot;
#X obj 162 228 spigot;
#X obj 118 139 select 0 1;
#X text 76 183 mix;
#X obj 79 252 / 127;
#X obj 96 342 inlet~;
#X obj 162 327 osc~;
#X obj 162 303 pow;
#X msg 162 278 2;
#X obj 162 252 t b f;
#X obj 146 375 *~;
#X obj 59 430 outlet~;
#X obj 8 692 outlet;
#X floatatom 79 286 5 0 0 0 - - -, f 5;
#X floatatom 213 327 5 0 0 0 - - -, f 5;
#X obj 223 67 s valAM;
#X obj 79 202 r valAM;
#X obj 162 205 r valAM;
#X obj 61 114 loadbang;
#X text 168 184 freq;
#X obj 194 278 / 10;
#X obj 276 286 mtof;
#X obj 276 265 r rmFreq;
#X obj 280 370 hsl 128 15 0 127 0 0 empty empty empty -2 -8 0 10 -262144
-1 -1 0 1;
#X floatatom 279 398 5 0 0 0 - - -, f 5;
#X obj 269 189 hsl 128 15 0 127 0 0 empty empty empty -2 -8 0 10 -262144
-1 -1 0 1;
#X obj 61 373 *~;
#X obj 60 402 +~;
#X obj 163 350 *~;
#X obj 31 183 vsl 15 128 0 127 0 0 empty empty empty 0 -9 0 10 -262144
-1 -1 0 1;
#X obj 61 351 -;
#X msg 61 329 1;
#X obj 61 307 t b f;
#X connect 0 0 1 0;
#X connect 1 0 6 0;
#X connect 1 1 22 0;
#X connect 2 0 7 1;
#X connect 3 0 8 1;
#X connect 4 0 9 0;
#X connect 5 0 4 0;
#X connect 6 0 5 0;
#X connect 6 0 9 0;
#X connect 6 1 4 0;
#X connect 7 0 11 0;
#X connect 8 0 16 0;
#X connect 9 0 2 0;
#X connect 9 1 3 0;
#X connect 11 0 20 0;
#X connect 12 0 17 0;
#X connect 12 0 33 0;
#X connect 13 0 35 0;
#X connect 14 0 13 0;
#X connect 14 0 21 0;
#X connect 15 0 14 0;
#X connect 16 0 15 0;
#X connect 16 1 27 0;
#X connect 17 0 34 1;
#X connect 20 0 35 1;
#X connect 20 0 39 0;
#X connect 23 0 7 0;
#X connect 24 0 8 0;
#X connect 25 0 2 0;
#X connect 25 0 39 0;
#X connect 27 0 14 1;
#X connect 28 0 13 0;
#X connect 29 0 28 0;
#X connect 30 0 28 0;
#X connect 30 0 31 0;
#X connect 32 0 16 0;
#X connect 33 0 34 0;
#X connect 34 0 18 0;
#X connect 35 0 17 1;
#X connect 36 0 11 0;
#X connect 37 0 33 1;
#X connect 38 0 37 0;
#X connect 39 0 38 0;
#X connect 39 1 37 1;
#X restore 609 163 pd tremolo;
#X obj 279 87 == 2;
#X obj 463 85 == 4;
#X obj 648 86 == 5;
#X obj 826 86 == 7;
#X obj 1005 86 == 9;
#X obj 91 311 tgl 15 0 empty empty empty 17 7 0 10 -262144 -1 -1 0
1;
#X obj 207 311 tgl 15 0 empty empty empty 17 7 0 10 -262144 -1 -1 0
1;
#X obj 324 311 tgl 15 0 empty empty empty 17 7 0 10 -262144 -1 -1 0
1;
#X obj 444 311 tgl 15 0 empty empty empty 17 7 0 10 -262144 -1 -1 0
1;
#X obj 564 311 tgl 15 0 empty empty empty 17 7 0 10 -262144 -1 -1 0
1;
#X obj 684 311 tgl 15 0 empty empty empty 17 7 0 10 -262144 -1 -1 0
1;
#X obj 875 178 r fbAmt;
#X obj 857 200 *~;
#X text 78 269 C tone;
#X text 188 269 D chorus;
#X text 309 269 E phase;
#X text 427 269 F tremolo;
#X text 553 269 G delay;
#X text 673 269 A reverb;
#X obj 91 291 r sT;
#X obj 207 291 r sC;
#X obj 324 291 r sP;
#X obj 564 291 r sD;
#X obj 444 291 r sAM;
#X obj 684 291 r rV;
#X obj 112 109 tgl 20 0 empty empty empty 17 7 0 10 -262144 -258113
-1 0 1;
#X obj 296 111 tgl 20 0 empty empty empty 17 7 0 10 -262144 -258113
-1 0 1;
#X obj 485 110 tgl 20 0 empty empty empty 17 7 0 10 -262144 -258113
-1 0 1;
#X obj 673 109 tgl 20 0 empty empty empty 17 7 0 10 -262144 -258113
-1 0 1;
#X obj 842 111 tgl 20 0 empty empty empty 17 7 0 10 -262144 -258113
-1 0 1;
#X obj 1038 109 tgl 20 0 empty empty empty 17 7 0 10 -262144 -258113
-1 0 1;
#X obj 170 134 r~ in1;
#X obj 171 180 s~ out1;
#X obj 361 136 r~ in2;
#X obj 360 182 s~ out2;
#X obj 545 182 s~ out3;
#X obj 677 138 r~ in4;
#X obj 675 186 s~ out4;
#X obj 895 201 r~ in5;
#X obj 939 246 s~ out5;
#X obj 896 246 s~ fb;
#X obj 856 158 r~ fb;
#X obj 324 337 == 0;
#X obj 254 362 *~;
#X obj 306 362 *~;
#X obj 255 337 r~ out2;
#X obj 255 386 s~ in3;
#X obj 444 337 == 0;
#X obj 374 362 *~;
#X obj 426 362 *~;
#X obj 564 337 == 0;
#X obj 494 362 *~;
#X obj 546 362 *~;
#X obj 684 337 == 0;
#X obj 614 362 *~;
#X obj 666 362 *~;
#X obj 545 135 r~ in3;
#X obj 1016 153 r~ in6;
#X obj 375 337 r~ out3;
#X obj 495 337 r~ out4;
#X obj 615 337 r~ out5;
#X obj 375 386 s~ in4;
#X obj 495 386 s~ in5;
#X obj 615 386 s~ in6;
#X obj 18 34 s~ out0;
#X obj 1011 269 r~ out6;
#X obj 1018 201 s~ out6;
#X obj 72 385 s~ out1b;
#X obj 188 385 s~ out2b;
#X obj 305 385 s~ out3b;
#X obj 426 385 s~ out4b;
#X obj 545 385 s~ out5b;
#X obj 665 385 s~ out6b;
#X obj 138 315 r~ out1b;
#X obj 255 315 r~ out2b;
#X obj 375 314 r~ out3b;
#X obj 495 315 r~ out4b;
#X obj 615 315 r~ out5b;
#X obj 1011 240 r~ out6b;
#X connect 0 0 107 0;
#X connect 1 0 3 1;
#X connect 2 0 4 0;
#X connect 3 0 110 0;
#X connect 5 0 2 0;
#X connect 5 0 3 0;
#X connect 6 0 8 1;
#X connect 7 0 10 0;
#X connect 8 0 111 0;
#X connect 9 0 7 0;
#X connect 9 0 8 0;
#X connect 11 1 75 0;
#X connect 12 1 77 0;
#X connect 13 1 78 0;
#X connect 14 1 83 0;
#X connect 14 1 82 0;
#X connect 16 0 11 0;
#X connect 17 0 18 1;
#X connect 17 0 68 0;
#X connect 18 0 16 0;
#X connect 19 0 12 0;
#X connect 20 0 13 0;
#X connect 21 0 14 0;
#X connect 22 0 40 0;
#X connect 23 0 19 0;
#X connect 24 0 20 0;
#X connect 25 0 42 0;
#X connect 26 0 21 0;
#X connect 27 0 22 0;
#X connect 28 0 17 0;
#X connect 29 0 45 0;
#X connect 30 0 44 0;
#X connect 31 0 46 0;
#X connect 32 0 47 0;
#X connect 33 0 43 0;
#X connect 34 0 18 0;
#X connect 35 0 24 0;
#X connect 36 0 23 0;
#X connect 37 0 25 0;
#X connect 38 0 26 0;
#X connect 39 0 27 0;
#X connect 40 1 109 0;
#X connect 40 2 41 0;
#X connect 42 1 80 0;
#X connect 43 0 23 1;
#X connect 43 0 69 0;
#X connect 44 0 24 1;
#X connect 44 0 70 0;
#X connect 45 0 25 1;
#X connect 45 0 71 0;
#X connect 46 0 26 1;
#X connect 46 0 72 0;
#X connect 47 0 27 1;
#X connect 47 0 73 0;
#X connect 48 0 1 0;
#X connect 48 0 2 1;
#X connect 49 0 6 0;
#X connect 49 0 7 1;
#X connect 50 0 85 0;
#X connect 50 0 86 1;
#X connect 51 0 90 0;
#X connect 51 0 91 1;
#X connect 52 0 93 0;
#X connect 52 0 94 1;
#X connect 53 0 96 0;
#X connect 53 0 97 1;
#X connect 54 0 55 1;
#X connect 55 0 14 1;
#X connect 62 0 48 0;
#X connect 63 0 49 0;
#X connect 64 0 50 0;
#X connect 65 0 52 0;
#X connect 66 0 51 0;
#X connect 67 0 53 0;
#X connect 74 0 11 1;
#X connect 76 0 12 1;
#X connect 79 0 42 1;
#X connect 81 0 14 1;
#X connect 84 0 55 0;
#X connect 85 0 87 1;
#X connect 86 0 89 0;
#X connect 87 0 112 0;
#X connect 88 0 86 0;
#X connect 88 0 87 0;
#X connect 90 0 92 1;
#X connect 91 0 104 0;
#X connect 92 0 113 0;
#X connect 93 0 95 1;
#X connect 94 0 105 0;
#X connect 95 0 114 0;
#X connect 96 0 98 1;
#X connect 97 0 106 0;
#X connect 98 0 115 0;
#X connect 99 0 13 1;
#X connect 100 0 40 1;
#X connect 100 0 40 2;
#X connect 101 0 91 0;
#X connect 101 0 92 0;
#X connect 102 0 94 0;
#X connect 102 0 95 0;
#X connect 103 0 97 0;
#X connect 103 0 98 0;
#X connect 108 0 15 0;
#X connect 116 0 7 0;
#X connect 116 0 8 0;
#X connect 117 0 86 0;
#X connect 117 0 87 0;
#X connect 118 0 91 0;
#X connect 118 0 92 0;
#X connect 119 0 94 0;
#X connect 119 0 95 0;
#X connect 120 0 97 0;
#X connect 120 0 98 0;
#X connect 121 0 15 0;
#X restore 367 233 pd plugin;
#X obj 103 118 s ctrlNum;
#X obj 786 88 vu 25 120 empty empty -1 -8 0 10 -66577 -1 1 0;
#X obj 263 368 tgl 25 0 empty empty empty 17 7 0 10 -262144 -258113
-1 0 1;
#X obj 340 368 tgl 25 0 empty empty empty 17 7 0 10 -262144 -258113
-1 0 1;
#X obj 417 368 tgl 25 0 empty empty empty 17 7 0 10 -262144 -258113
-1 0 1;
#X obj 502 368 tgl 25 0 empty empty empty 17 7 0 10 -262144 -258113
-1 0 1;
#X obj 587 368 tgl 25 0 empty empty empty 17 7 0 10 -262144 -258113
-1 0 1;
#X obj 664 368 tgl 25 0 empty empty empty 17 7 0 10 -262144 -258113
-1 0 1;
#X text 250 301 C tone;
#X text 321 301 D chorus;
#X text 402 301 E phase;
#X text 485 301 F tremolo;
#X text 576 301 G delay;
#X text 653 301 A reverb;
#X obj 263 323 r sT;
#X obj 340 323 r sC;
#X obj 417 323 r sP;
#X obj 587 323 r sD;
#X obj 502 323 r sAM;
#X obj 664 323 r rV;
#X obj 87 66 s pluginNum;
#X obj 33 203 s ctrlData;
#X obj 87 139 s ctrlVal;
#X obj 674 232 s~ vu;
#X obj 785 21 r~ vu;
#X obj 785 41 env~;
#X obj 785 61 - 100;
#X floatatom 35 278 5 0 0 3 Current_Tempo - -, f 5;
#X obj 35 255 r tempo;
#N canvas 306 144 255 619 tapTempo 0;
#X obj 10 219 bng 40 250 50 0 empty empty empty 17 7 0 10 -262144 -258113
-1;
#X obj 10 264 t b b b;
#X obj 33 306 t;
#X obj 33 331 timer;
#X obj 112 329 + 1;
#X obj 10 8 loadbang;
#X obj 33 376 array set taps;
#X obj 80 307 t f f;
#X obj 10 400 array sum taps;
#X text 99 52 number of taps;
#X obj 70 76 s numTaps;
#X obj 10 30 t b b b b;
#X obj 30 139 array size taps;
#X obj 50 99 array define taps;
#X obj 132 119 r numTaps;
#X obj 42 160 r numTaps;
#X obj 141 329 r numTaps;
#X obj 112 353 %;
#X obj 28 440 r numTaps;
#X obj 10 462 /;
#X floatatom 10 573 5 0 0 1 TEMPO - -, f 5;
#X msg 10 527 60000;
#X obj 10 549 /;
#X obj 10 503 t b f;
#X msg 70 52 3;
#X obj 10 420 f;
#X obj 33 353 f;
#X obj 80 286 f;
#X obj 10 484 f;
#X obj 57 184 r tap;
#X obj 10 593 s tempo;
#X obj 10 118 t b b b;
#X connect 0 0 1 0;
#X connect 1 0 8 0;
#X connect 1 1 2 0;
#X connect 1 2 27 0;
#X connect 2 0 3 0;
#X connect 2 1 3 1;
#X connect 3 0 26 0;
#X connect 4 0 17 0;
#X connect 5 0 11 0;
#X connect 7 0 6 1;
#X connect 7 1 4 0;
#X connect 8 0 25 0;
#X connect 11 0 31 0;
#X connect 11 1 12 0;
#X connect 11 2 13 0;
#X connect 11 3 24 0;
#X connect 14 0 12 1;
#X connect 16 0 17 1;
#X connect 17 0 27 1;
#X connect 18 0 19 1;
#X connect 19 0 28 0;
#X connect 20 0 30 0;
#X connect 21 0 22 0;
#X connect 22 0 20 0;
#X connect 23 0 21 0;
#X connect 23 1 22 1;
#X connect 24 0 10 0;
#X connect 25 0 19 0;
#X connect 26 0 6 0;
#X connect 27 0 7 0;
#X connect 28 0 23 0;
#X connect 29 0 0 0;
#X connect 31 0 0 0;
#X connect 31 1 0 0;
#X connect 31 2 0 0;
#X restore 323 10 pd tapTempo;
#N canvas 0 81 1351 687 controlCenter 0;
#X obj 41 15 r ctrlNum;
#X text 119 14 current Ctrl;
#X floatatom 41 37 5 0 0 0 - - -, f 5;
#X obj 41 70 == 23;
#X obj 188 70 == 24;
#X obj 41 123 select 0 2 4 5 7 9;
#X msg 61 143 0;
#X msg 123 143 0;
#X msg 82 143 0;
#X msg 102 143 0;
#X msg 41 143 0;
#X msg 143 143 0;
#X obj 41 163 s sT;
#X obj 61 183 s sC;
#X obj 82 203 s sP;
#X obj 102 223 s sAM;
#X obj 123 243 s sD;
#X obj 143 264 s sV;
#X obj 188 122 select 0 2 4 5 7 9;
#X obj 188 162 s sT;
#X obj 208 182 s sC;
#X obj 229 202 s sP;
#X obj 249 222 s sAM;
#X obj 270 242 s sD;
#X obj 290 263 s sV;
#X msg 188 142 1;
#X msg 229 142 1;
#X msg 208 142 1;
#X msg 249 142 1;
#X msg 270 142 1;
#X msg 290 142 1;
#X obj 379 69 == 25;
#X obj 379 115 s tap;
#X obj 379 92 b;
#X connect 0 0 2 0;
#X connect 2 0 3 0;
#X connect 2 0 4 0;
#X connect 2 0 31 0;
#X connect 3 0 5 0;
#X connect 4 0 18 0;
#X connect 5 0 10 0;
#X connect 5 1 6 0;
#X connect 5 2 8 0;
#X connect 5 3 9 0;
#X connect 5 4 7 0;
#X connect 5 5 11 0;
#X connect 6 0 13 0;
#X connect 7 0 16 0;
#X connect 8 0 14 0;
#X connect 9 0 15 0;
#X connect 10 0 12 0;
#X connect 11 0 17 0;
#X connect 18 0 25 0;
#X connect 18 1 27 0;
#X connect 18 2 26 0;
#X connect 18 3 28 0;
#X connect 18 4 29 0;
#X connect 18 5 30 0;
#X connect 25 0 19 0;
#X connect 26 0 21 0;
#X connect 27 0 20 0;
#X connect 28 0 22 0;
#X connect 29 0 23 0;
#X connect 30 0 24 0;
#X connect 31 0 33 0;
#X connect 33 0 32 0;
#X restore 191 10 pd controlCenter;
#X obj 145 256 bng 30 250 50 0 empty empty empty 17 7 0 10 -262144
-1 -1;
#X obj 145 292 s tap;
#X obj 36 388 s tempo;
#X obj 36 367 nbx 5 14 -1e+37 1e+37 0 0 empty empty Set_Tempo 58 8
0 10 -262144 -1 -1 120 256;
#X msg 36 343 120;
#X obj 36 322 loadbang;
#X obj 366 268 s~ toOut;
#X obj 277 197 s~ toOutb;
#X obj 643 125 r~ toOutb;
#X msg 263 345 set \$1;
#X msg 340 345 set \$1;
#X msg 417 345 set \$1;
#X msg 502 345 set \$1;
#X msg 587 345 set \$1;
#X msg 664 345 set \$1;
#X obj 263 398 s sT;
#X obj 340 398 s sC;
#X obj 417 398 s sP;
#X obj 502 398 s sAM;
#X obj 587 398 s sD;
#X obj 664 398 s rV;
#N canvas 875 142 450 300 presets 1;
#X obj 14 244 textfile;
#X obj 759 380 qlist;
#X obj 14 65 r gainIn;
#X obj 139 65 r gainOut;
#X msg 14 138 add 0 gainInl \$1;
#X msg 139 138 add 0 gainOutl \$1;
#X msg 245 248 write \$1.fxp;
#X msg 14 87 set \$1;
#X floatatom 14 109 5 0 0 0 - - -, f 5;
#X msg 139 87 set \$1;
#X floatatom 139 109 5 0 0 0 - - -, f 5;
#X obj 79 22 t b b b b b b b b b b b b b b b b b;
#X obj 233 164 r presetName;
#X msg 306 209;
#X msg 233 188 set;
#X connect 2 0 7 0;
#X connect 3 0 9 0;
#X connect 4 0 0 0;
#X connect 5 0 0 0;
#X connect 6 0 0 0;
#X connect 7 0 8 0;
#X connect 8 0 4 0;
#X connect 9 0 10 0;
#X connect 10 0 5 0;
#X connect 12 0 14 0;
#X connect 13 0 6 0;
#X connect 14 0 13 0;
#X restore 191 31 pd presets;
#X obj 403 212 s gainIn;
#X obj 593 253 s gainOut;
#X obj 316 37 r gainInl;
#X obj 630 9 r gainOutl;
#X obj 221 323 r sTl;
#X obj 299 323 r sCl;
#X obj 376 323 r sPl;
#X obj 453 323 r sAMl;
#X obj 546 324 r sDl;
#X obj 623 323 r rVl;
#X obj 483 68 r mutel;
#X obj 773 310 s presetName;
#X obj 773 264 r presetNamel;
#X msg 773 287 testing;
#X connect 0 0 29 0;
#X connect 1 0 51 0;
#X connect 2 0 28 1;
#X connect 2 0 53 0;
#X connect 2 1 28 0;
#X connect 2 1 31 0;
#X connect 3 0 4 1;
#X connect 3 0 7 0;
#X connect 4 0 30 0;
#X connect 5 0 3 0;
#X connect 6 0 5 0;
#X connect 7 0 84 0;
#X connect 9 0 12 0;
#X connect 9 0 13 1;
#X connect 9 0 27 1;
#X connect 10 0 9 0;
#X connect 11 0 10 0;
#X connect 12 0 85 0;
#X connect 13 0 8 0;
#X connect 13 0 8 1;
#X connect 13 0 54 0;
#X connect 14 0 19 0;
#X connect 15 0 20 0;
#X connect 15 0 24 0;
#X connect 15 1 20 0;
#X connect 15 1 24 0;
#X connect 17 0 4 0;
#X connect 18 0 13 0;
#X connect 20 0 16 0;
#X connect 21 0 22 0;
#X connect 22 0 20 1;
#X connect 23 0 24 1;
#X connect 24 0 69 0;
#X connect 26 0 27 0;
#X connect 28 0 52 0;
#X connect 29 0 1 0;
#X connect 30 0 68 0;
#X connect 30 1 25 0;
#X connect 33 0 77 0;
#X connect 34 0 78 0;
#X connect 35 0 79 0;
#X connect 36 0 80 0;
#X connect 37 0 81 0;
#X connect 38 0 82 0;
#X connect 45 0 71 0;
#X connect 46 0 72 0;
#X connect 47 0 73 0;
#X connect 48 0 75 0;
#X connect 49 0 74 0;
#X connect 50 0 76 0;
#X connect 55 0 56 0;
#X connect 56 0 57 0;
#X connect 57 0 32 0;
#X connect 59 0 58 0;
#X connect 62 0 63 0;
#X connect 65 0 64 0;
#X connect 66 0 65 0;
#X connect 67 0 66 0;
#X connect 70 0 13 0;
#X connect 71 0 33 0;
#X connect 72 0 34 0;
#X connect 73 0 35 0;
#X connect 74 0 36 0;
#X connect 75 0 37 0;
#X connect 76 0 38 0;
#X connect 86 0 3 0;
#X connect 87 0 9 0;
#X connect 88 0 33 0;
#X connect 89 0 34 0;
#X connect 90 0 35 0;
#X connect 91 0 36 0;
#X connect 92 0 37 0;
#X connect 93 0 38 0;
#X connect 94 0 14 0;
#X connect 96 0 97 0;
#X connect 97 0 95 0;
