#N canvas 206 196 996 584 10;
#X obj 34 58 vsl 15 128 0 1.25 0 0 empty empty Input_Fader 0 -9 0 10
-261234 -1 -1 10160 1;
#X obj 5 194 *~;
#X floatatom 34 195 5 0 0 0 - - -, f 5;
#X obj 168 223 dac~;
#X obj 136 58 vsl 15 128 0 1.25 0 0 empty empty Output_Fader 0 -9 0
10 -204786 -1 -1 6773 1;
#X floatatom 136 198 5 0 0 0 - - -, f 5;
#X obj 178 197 *~;
#X obj 336 73 tgl 50 0 empty empty FX_Mute 10 -10 0 10 -86277 -258113
-1 0 1;
#X obj 336 128 s mute;
#X obj 215 197 *~;
#N canvas 1523 553 1246 436 plugin 1;
#X obj 91 337 == 0;
#X obj 21 362 *~;
#X obj 73 362 *~;
#X obj 22 386 s~ in1;
#X obj 22 337 r~ out0;
#X obj 207 337 == 0;
#X obj 137 362 *~;
#X obj 189 362 *~;
#X obj 138 337 r~ out1;
#X obj 138 386 s~ in2;
#X obj 76 157 plugin~ AmpVTS;
#X obj 258 159 plugin~ ChorusI;
#X obj 436 159 plugin~ PhaserII;
#X obj 787 251 plugin~ delay_5s;
#N canvas 0 238 1001 542 controlTone 0;
#X obj 387 8 inlet;
#X obj 394 475 outlet;
#X obj 387 34 unpack f f;
#X obj 349 152 tgl 15 0 empty empty empty 17 7 0 10 -262144 -1 -1 0
1;
#X obj 367 152 tgl 15 0 empty empty empty 17 7 0 10 -262144 -1 -1 0
1;
#X obj 386 152 tgl 15 0 empty empty empty 17 7 0 10 -262144 -1 -1 0
1;
#X obj 405 152 tgl 15 0 empty empty empty 17 7 0 10 -262144 -1 -1 0
1;
#X floatatom 381 106 5 0 0 0 - - -, f 5;
#X obj 349 57 t f b;
#X obj 20 224 spigot;
#X obj 127 224 spigot;
#X msg 127 426 control #2 \$1;
#X obj 127 385 / 127;
#X text 133 178 gain;
#X text 232 178 bright;
#X text 342 178 power;
#X text 428 179 tonestack;
#X text 554 179 bass;
#X text 666 179 mid;
#X text 761 177 treble;
#X obj 234 225 spigot;
#X obj 234 386 / 127;
#X msg 234 427 control #3 \$1;
#X obj 340 225 spigot;
#X obj 340 386 / 127;
#X msg 340 427 control #4 \$1;
#X obj 446 225 spigot;
#X msg 446 427 control #5 \$1;
#X obj 553 225 spigot;
#X obj 553 386 / 127;
#X msg 553 427 control #6 \$1;
#X obj 446 386 / 15.875;
#X obj 659 225 spigot;
#X msg 659 427 control #7 \$1;
#X obj 765 225 spigot;
#X msg 765 427 control #8 \$1;
#X obj 349 127 select 0 1 2 3 4 5 6 7;
#X obj 424 152 tgl 15 0 empty empty empty 17 7 0 10 -262144 -1 -1 0
1;
#X obj 443 152 tgl 15 0 empty empty empty 17 7 0 10 -262144 -1 -1 0
1;
#X obj 462 152 tgl 15 0 empty empty empty 17 7 0 10 -262144 -1 -1 0
1;
#X obj 481 152 tgl 15 0 empty empty empty 17 7 0 10 -262144 -1 -1 0
1;
#X floatatom 37 407 5 0 0 0 - - -, f 5;
#X floatatom 134 407 5 0 0 0 - - -, f 5;
#X floatatom 242 408 5 0 0 0 - - -, f 5;
#X floatatom 348 408 5 0 0 0 - - -, f 5;
#X floatatom 561 408 5 0 0 0 - - -, f 5;
#X floatatom 454 408 5 0 0 0 - - -, f 5;
#X msg 394 84 set \$1;
#X obj 454 55 s valT;
#X obj 20 199 r valT;
#X obj 127 199 r valT;
#X obj 234 200 r valT;
#X obj 340 200 r valT;
#X obj 446 200 r valT;
#X obj 553 200 r valT;
#X obj 659 200 r valT;
#X obj 765 200 r valT;
#X floatatom 678 409 5 0 0 0 - - -, f 5;
#X floatatom 793 408 5 0 0 0 - - -, f 5;
#X obj 765 386 / 127;
#X obj 659 386 / 127;
#X obj 286 57 loadbang;
#X obj 75 384 s TOv;
#X obj 173 386 s TGa;
#X obj 287 387 s TBr;
#X obj 387 386 s TPo;
#X obj 509 389 s TTo;
#X obj 596 389 s TBa;
#X obj 704 388 s TMi;
#X obj 810 386 s TTr;
#X obj 71 224 r TOvl;
#X obj 182 225 r TGal;
#X obj 288 226 r TBrl;
#X obj 391 224 r TPol;
#X obj 497 226 r TTol;
#X obj 605 225 r TBal;
#X obj 708 226 r TMil;
#X obj 818 227 r TTrl;
#X obj 20 249 vsl 15 128 0 127 0 0 empty empty empty 0 -9 0 10 -262144
-1 -1 6350 1;
#X obj 127 249 vsl 15 128 0 127 0 0 empty empty empty 0 -9 0 10 -262144
-1 -1 3175 1;
#X obj 234 249 vsl 15 128 0 127 0 0 empty empty empty 0 -9 0 10 -262144
-1 -1 9525 1;
#X obj 340 249 vsl 15 128 0 127 0 0 empty empty empty 0 -9 0 10 -262144
-1 -1 6350 1;
#X obj 446 249 vsl 15 128 0 127 0 0 empty empty empty 0 -9 0 10 -262144
-1 -1 1587 1;
#X obj 553 249 vsl 15 128 0 127 0 0 empty empty empty 0 -9 0 10 -262144
-1 -1 3175 1;
#X obj 659 249 vsl 15 128 0 127 0 0 empty empty empty 0 -9 0 10 -262144
-1 -1 12700 1;
#X obj 765 249 vsl 15 128 0 127 0 0 empty empty empty 0 -9 0 10 -262144
-1 -1 9525 1;
#X msg 21 426 control #10 \$1;
#X obj 20 385 / 127;
#X text 17 180 squash;
#X obj 134 464 s TGan;
#X obj 347 496 s TPon;
#X connect 0 0 2 0;
#X connect 2 0 8 0;
#X connect 2 1 48 0;
#X connect 3 0 9 1;
#X connect 4 0 10 1;
#X connect 5 0 20 1;
#X connect 6 0 23 1;
#X connect 7 0 36 0;
#X connect 8 0 47 0;
#X connect 8 0 36 0;
#X connect 8 1 7 0;
#X connect 9 0 78 0;
#X connect 10 0 79 0;
#X connect 11 0 1 0;
#X connect 12 0 11 0;
#X connect 12 0 42 0;
#X connect 20 0 80 0;
#X connect 21 0 22 0;
#X connect 21 0 43 0;
#X connect 22 0 1 0;
#X connect 23 0 81 0;
#X connect 24 0 25 0;
#X connect 24 0 44 0;
#X connect 25 0 1 0;
#X connect 26 0 82 0;
#X connect 27 0 1 0;
#X connect 28 0 83 0;
#X connect 29 0 30 0;
#X connect 29 0 45 0;
#X connect 30 0 1 0;
#X connect 31 0 27 0;
#X connect 31 0 46 0;
#X connect 32 0 84 0;
#X connect 33 0 1 0;
#X connect 34 0 85 0;
#X connect 35 0 1 0;
#X connect 36 0 3 0;
#X connect 36 1 4 0;
#X connect 36 2 5 0;
#X connect 36 3 6 0;
#X connect 36 4 37 0;
#X connect 36 5 38 0;
#X connect 36 6 39 0;
#X connect 36 7 40 0;
#X connect 37 0 26 1;
#X connect 38 0 28 1;
#X connect 39 0 32 1;
#X connect 40 0 34 1;
#X connect 42 0 89 0;
#X connect 44 0 90 0;
#X connect 47 0 7 0;
#X connect 49 0 9 0;
#X connect 50 0 10 0;
#X connect 51 0 20 0;
#X connect 52 0 23 0;
#X connect 53 0 26 0;
#X connect 54 0 28 0;
#X connect 55 0 32 0;
#X connect 56 0 34 0;
#X connect 59 0 35 0;
#X connect 59 0 58 0;
#X connect 60 0 33 0;
#X connect 60 0 57 0;
#X connect 61 0 3 0;
#X connect 70 0 78 0;
#X connect 71 0 79 0;
#X connect 72 0 80 0;
#X connect 73 0 81 0;
#X connect 74 0 82 0;
#X connect 75 0 83 0;
#X connect 76 0 84 0;
#X connect 77 0 85 0;
#X connect 78 0 62 0;
#X connect 78 0 87 0;
#X connect 79 0 12 0;
#X connect 79 0 63 0;
#X connect 80 0 21 0;
#X connect 80 0 64 0;
#X connect 81 0 24 0;
#X connect 81 0 65 0;
#X connect 82 0 31 0;
#X connect 82 0 66 0;
#X connect 83 0 29 0;
#X connect 83 0 67 0;
#X connect 84 0 60 0;
#X connect 84 0 68 0;
#X connect 85 0 59 0;
#X connect 85 0 69 0;
#X connect 86 0 1 0;
#X connect 87 0 86 0;
#X connect 87 0 41 0;
#X restore 58 134 pd controlTone;
#X obj 97 87 == 0;
#X obj 58 109 spigot;
#N canvas 677 205 686 502 controlChorus 0;
#X obj 310 5 inlet;
#X obj 316 471 outlet;
#X obj 310 31 unpack f f;
#X obj 272 149 tgl 15 0 empty empty empty 17 7 0 10 -262144 -1 -1 1
1;
#X obj 290 149 tgl 15 0 empty empty empty 17 7 0 10 -262144 -1 -1 0
1;
#X obj 309 149 tgl 15 0 empty empty empty 17 7 0 10 -262144 -1 -1 0
1;
#X obj 328 149 tgl 15 0 empty empty empty 17 7 0 10 -262144 -1 -1 0
1;
#X floatatom 304 103 5 0 0 0 - - -, f 5;
#X msg 317 81 set \$1;
#X obj 272 54 t f b;
#X obj 15 215 spigot;
#X obj 123 215 spigot;
#X obj 462 216 spigot;
#X msg 462 436 control #5 \$1;
#X obj 569 216 spigot;
#X obj 569 392 / 127;
#X msg 569 436 control #6 \$1;
#X obj 347 149 tgl 15 0 empty empty empty 17 7 0 10 -262144 -1 -1 0
1;
#X obj 366 149 tgl 15 0 empty empty empty 17 7 0 10 -262144 -1 -1 0
1;
#X obj 272 124 select 0 1 2 3 4 5;
#X text 119 171 t (ms);
#X text 16 171 blend;
#X text 463 170 fdfwd;
#X text 570 170 fdbk;
#X msg 15 436 control #4 \$1;
#X msg 123 436 control #1 \$1;
#X msg 230 436 control #2 \$1;
#X msg 336 436 control #3 \$1;
#X obj 15 392 / 127;
#X obj 123 396 + 2.5;
#X obj 230 215 spigot;
#X text 226 171 width (ms);
#X obj 335 214 spigot;
#X obj 335 374 / 45.5197;
#X obj 335 394 + 0.01;
#X text 331 170 rate (Hz);
#X obj 230 375 / 13.3684;
#X obj 123 376 / 3.3867;
#X obj 230 395 + 0.5;
#X obj 462 392 / 127;
#X floatatom 25 414 5 0 0 0 - - -, f 5;
#X floatatom 133 418 5 0 0 0 - - -, f 5;
#X floatatom 240 417 5 0 0 0 - - -, f 5;
#X floatatom 345 416 5 0 0 0 - - -, f 5;
#X floatatom 472 414 5 0 0 0 - - -, f 5;
#X floatatom 579 414 5 0 0 0 - - -, f 5;
#X obj 377 52 s valC;
#X obj 15 190 r valC;
#X obj 123 192 r valC;
#X obj 230 192 r valC;
#X obj 335 191 r valC;
#X obj 462 191 r valC;
#X obj 569 191 r valC;
#X obj 209 54 loadbang;
#X obj 58 392 s CBl;
#X obj 65 216 r CBll;
#X obj 173 215 r CTl;
#X obj 166 396 s CT;
#X obj 279 215 r CWil;
#X obj 273 395 s CWi;
#X obj 385 394 s CRa;
#X obj 385 214 r CRal;
#X obj 512 216 r CFfl;
#X obj 505 392 s CFf;
#X obj 612 392 s CFb;
#X obj 619 216 r CFbl;
#X obj 15 239 vsl 15 128 0 127 0 0 empty empty empty 0 -9 0 10 -262144
-1 -1 3175 1;
#X obj 123 239 vsl 15 128 0 127 0 0 empty empty empty 0 -9 0 10 -262144
-1 -1 3637 1;
#X obj 230 239 vsl 15 128 0 127 0 0 empty empty empty 0 -9 0 10 -262144
-1 -1 3893 1;
#X obj 335 238 vsl 15 128 0 127 0 0 empty empty empty 0 -9 0 10 -262144
-1 -1 205 1;
#X obj 569 240 vsl 15 128 0 127 0 0 empty empty empty 0 -9 0 10 -262144
-1 -1 3175 1;
#X obj 462 239 vsl 15 128 0 127 0 0 empty empty empty 0 -9 0 10 -262144
-1 -1 3175 1;
#X obj 448 53 r CRb;
#X obj 448 76 f;
#X obj 490 53 r rhythmHz;
#X obj 448 98 - 0.01;
#X obj 448 120 * 45.5197;
#X connect 0 0 2 0;
#X connect 2 0 9 0;
#X connect 2 1 46 0;
#X connect 3 0 10 1;
#X connect 4 0 11 1;
#X connect 5 0 30 1;
#X connect 6 0 32 1;
#X connect 7 0 19 0;
#X connect 8 0 7 0;
#X connect 9 0 8 0;
#X connect 9 0 19 0;
#X connect 9 1 7 0;
#X connect 10 0 66 0;
#X connect 11 0 67 0;
#X connect 12 0 71 0;
#X connect 13 0 1 0;
#X connect 14 0 70 0;
#X connect 15 0 16 0;
#X connect 15 0 45 0;
#X connect 16 0 1 0;
#X connect 17 0 12 1;
#X connect 18 0 14 1;
#X connect 19 0 3 0;
#X connect 19 1 4 0;
#X connect 19 2 5 0;
#X connect 19 3 6 0;
#X connect 19 4 17 0;
#X connect 19 5 18 0;
#X connect 24 0 1 0;
#X connect 25 0 1 0;
#X connect 26 0 1 0;
#X connect 27 0 1 0;
#X connect 28 0 24 0;
#X connect 28 0 40 0;
#X connect 29 0 25 0;
#X connect 29 0 41 0;
#X connect 30 0 68 0;
#X connect 32 0 69 0;
#X connect 33 0 34 0;
#X connect 34 0 27 0;
#X connect 34 0 43 0;
#X connect 36 0 38 0;
#X connect 37 0 29 0;
#X connect 38 0 26 0;
#X connect 38 0 42 0;
#X connect 39 0 13 0;
#X connect 39 0 44 0;
#X connect 47 0 10 0;
#X connect 48 0 11 0;
#X connect 49 0 30 0;
#X connect 50 0 32 0;
#X connect 51 0 12 0;
#X connect 52 0 14 0;
#X connect 53 0 3 0;
#X connect 55 0 66 0;
#X connect 56 0 67 0;
#X connect 58 0 68 0;
#X connect 61 0 69 0;
#X connect 62 0 71 0;
#X connect 65 0 70 0;
#X connect 66 0 28 0;
#X connect 66 0 54 0;
#X connect 67 0 37 0;
#X connect 67 0 57 0;
#X connect 68 0 36 0;
#X connect 68 0 59 0;
#X connect 69 0 33 0;
#X connect 69 0 60 0;
#X connect 70 0 15 0;
#X connect 70 0 64 0;
#X connect 71 0 39 0;
#X connect 71 0 63 0;
#X connect 72 0 73 0;
#X connect 73 0 75 0;
#X connect 74 0 73 1;
#X connect 75 0 76 0;
#X connect 76 0 69 0;
#X restore 240 136 pd controlChorus;
#N canvas 470 171 632 509 controlPhaser 0;
#X obj 274 13 inlet;
#X obj 283 474 outlet;
#X obj 274 39 unpack f f;
#X obj 236 157 tgl 15 0 empty empty empty 17 7 0 10 -262144 -1 -1 1
1;
#X obj 254 157 tgl 15 0 empty empty empty 17 7 0 10 -262144 -1 -1 0
1;
#X obj 273 157 tgl 15 0 empty empty empty 17 7 0 10 -262144 -1 -1 0
1;
#X obj 292 157 tgl 15 0 empty empty empty 17 7 0 10 -262144 -1 -1 0
1;
#X floatatom 268 111 5 0 0 0 - - -, f 5;
#X msg 281 89 set \$1;
#X obj 236 62 t f b;
#X obj 21 235 spigot;
#X obj 128 235 spigot;
#X obj 128 397 / 127;
#X obj 235 225 spigot;
#X obj 341 236 spigot;
#X obj 341 400 / 127;
#X msg 341 442 control #4 \$1;
#X obj 447 236 spigot;
#X msg 447 442 control #5 \$1;
#X obj 311 157 tgl 15 0 empty empty empty 17 7 0 10 -262144 -1 -1 0
1;
#X obj 236 132 select 0 1 2 3 4;
#X text 18 191 depth;
#X obj 21 397 / 127;
#X msg 21 441 control #3 \$1;
#X msg 128 441 control #1 \$1;
#X msg 235 441 control #2 \$1;
#X text 134 189 rate;
#X text 243 179 lfo;
#X text 337 190 spread;
#X text 432 194 resonance;
#X obj 447 398 / 127;
#X floatatom 31 419 5 0 0 0 - - -, f 5;
#X floatatom 138 419 5 0 0 0 - - -, f 5;
#X floatatom 351 420 5 0 0 0 - - -, f 5;
#X floatatom 457 420 5 0 0 0 - - -, f 5;
#X obj 341 60 s valP;
#X obj 21 210 r valP;
#X obj 128 210 r valP;
#X obj 235 200 r valP;
#X obj 341 211 r valP;
#X obj 447 211 r valP;
#X obj 170 62 loadbang;
#X obj 71 235 r PDel;
#X obj 178 235 r PRal;
#X obj 285 225 r PLfl;
#X obj 391 237 r PSpl;
#X obj 497 236 r PRel;
#X obj 65 397 s PDe;
#X obj 173 397 s PRa;
#X obj 271 383 s PLf;
#X obj 385 400 s PSp;
#X obj 491 398 s PRe;
#X obj 21 260 vsl 15 128 0 127 0 0 empty empty empty 0 -9 0 10 -262144
-1 -1 9525 1;
#X obj 128 259 vsl 15 128 0 127 0 0 empty empty empty 0 -9 0 10 -262144
-1 -1 3175 1;
#X obj 235 248 vsl 15 128 0 127 0 0 empty empty empty 0 -9 0 10 -262144
-1 -1 0 1;
#X obj 341 261 vsl 15 128 0 127 0 0 empty empty empty 0 -9 0 10 -262144
-1 -1 9525 1;
#X obj 447 261 vsl 15 128 0 127 0 0 empty empty empty 0 -9 0 10 -262144
-1 -1 3175 1;
#X floatatom 235 424 5 0 0 0 - - -, f 5;
#X obj 235 404 int;
#X obj 235 383 / 64;
#X obj 448 76 f;
#X obj 490 53 r rhythmHz;
#X obj 448 53 r PRb;
#X connect 0 0 2 0;
#X connect 2 0 9 0;
#X connect 2 1 35 0;
#X connect 3 0 10 1;
#X connect 4 0 11 1;
#X connect 5 0 13 1;
#X connect 6 0 14 1;
#X connect 7 0 20 0;
#X connect 8 0 7 0;
#X connect 9 0 8 0;
#X connect 9 0 20 0;
#X connect 9 1 7 0;
#X connect 10 0 52 0;
#X connect 11 0 53 0;
#X connect 12 0 24 0;
#X connect 12 0 32 0;
#X connect 13 0 54 0;
#X connect 14 0 55 0;
#X connect 15 0 16 0;
#X connect 15 0 33 0;
#X connect 16 0 1 0;
#X connect 17 0 56 0;
#X connect 18 0 1 0;
#X connect 19 0 17 1;
#X connect 20 0 3 0;
#X connect 20 1 4 0;
#X connect 20 2 5 0;
#X connect 20 3 6 0;
#X connect 20 4 19 0;
#X connect 22 0 23 0;
#X connect 22 0 31 0;
#X connect 23 0 1 0;
#X connect 24 0 1 0;
#X connect 25 0 1 0;
#X connect 30 0 18 0;
#X connect 30 0 34 0;
#X connect 36 0 10 0;
#X connect 37 0 11 0;
#X connect 38 0 13 0;
#X connect 39 0 14 0;
#X connect 40 0 17 0;
#X connect 41 0 3 0;
#X connect 42 0 52 0;
#X connect 43 0 53 0;
#X connect 44 0 54 0;
#X connect 45 0 55 0;
#X connect 46 0 56 0;
#X connect 52 0 22 0;
#X connect 52 0 47 0;
#X connect 53 0 12 0;
#X connect 53 0 48 0;
#X connect 54 0 49 0;
#X connect 54 0 59 0;
#X connect 55 0 15 0;
#X connect 55 0 50 0;
#X connect 56 0 30 0;
#X connect 56 0 51 0;
#X connect 57 0 25 0;
#X connect 58 0 57 0;
#X connect 59 0 58 0;
#X connect 61 0 60 1;
#X connect 62 0 60 0;
#X restore 424 134 pd controlPhaser;
#N canvas 974 177 377 498 controlDelay 0;
#X obj 115 6 inlet;
#X obj 145 441 outlet;
#X obj 115 32 unpack f f;
#X obj 77 149 tgl 15 0 empty empty empty 17 7 0 10 -262144 -1 -1 1
1;
#X obj 104 148 tgl 15 0 empty empty empty 17 7 0 10 -262144 -1 -1 0
1;
#X floatatom 109 104 5 0 0 0 - - -, f 5;
#X msg 122 82 set \$1;
#X obj 77 55 t f b;
#X obj 38 213 spigot;
#X obj 145 213 spigot;
#X text 35 169 mix;
#X text 151 167 delay;
#X obj 38 375 / 127;
#X obj 145 375 / 25.4;
#X obj 182 53 s valD;
#X obj 38 188 r valD;
#X obj 145 188 r valD;
#X floatatom 38 395 5 0 0 0 - - -, f 5;
#X floatatom 155 397 5 0 0 0 - - -, f 5;
#X obj 7 55 loadbang;
#X obj 77 125 select 0 1 2;
#X obj 131 148 tgl 15 0 empty empty empty 17 7 0 10 -262144 -1 -1 0
1;
#X obj 251 215 spigot;
#X obj 251 190 r valD;
#X floatatom 261 399 5 0 0 0 - - -, f 5;
#X text 257 169 fb;
#X obj 251 377 / 127;
#X obj 261 419 s fbAmt;
#X msg 145 419 control #1 \$1;
#X obj 38 239 vsl 15 128 0 127 0 0 empty empty empty 0 -9 0 10 -262144
-1 -1 4233 1;
#X obj 145 239 vsl 15 128 0 127 0 0 empty empty empty 0 -9 0 10 -262144
-1 -1 2540 1;
#X obj 263 244 vsl 15 128 0 127 0 0 empty empty empty 0 -9 0 10 -262144
-1 -1 6350 1;
#X obj 82 375 s DMx;
#X obj 90 213 r DMxl;
#X obj 196 374 s DDe;
#X obj 197 214 r DDel;
#X obj 304 215 r DFbl;
#X obj 294 377 s DFb;
#X obj 214 110 f;
#X obj 214 87 r DRb;
#X obj 256 86 r rhythmMS;
#X obj 214 131 * 0.0254;
#X obj 38 413 s delAmt;
#X msg 7 436 control #2 100;
#X connect 0 0 2 0;
#X connect 2 0 7 0;
#X connect 2 1 14 0;
#X connect 3 0 8 1;
#X connect 4 0 9 1;
#X connect 5 0 20 0;
#X connect 6 0 5 0;
#X connect 7 0 6 0;
#X connect 7 0 20 0;
#X connect 7 1 5 0;
#X connect 8 0 29 0;
#X connect 9 0 30 0;
#X connect 12 0 17 0;
#X connect 13 0 28 0;
#X connect 13 0 18 0;
#X connect 15 0 8 0;
#X connect 16 0 9 0;
#X connect 17 0 42 0;
#X connect 19 0 3 0;
#X connect 19 0 43 0;
#X connect 20 0 3 0;
#X connect 20 1 4 0;
#X connect 20 2 21 0;
#X connect 21 0 22 1;
#X connect 22 0 31 0;
#X connect 23 0 22 0;
#X connect 24 0 27 0;
#X connect 26 0 24 0;
#X connect 28 0 1 0;
#X connect 29 0 12 0;
#X connect 29 0 32 0;
#X connect 30 0 13 0;
#X connect 30 0 34 0;
#X connect 31 0 26 0;
#X connect 31 0 37 0;
#X connect 33 0 29 0;
#X connect 35 0 30 0;
#X connect 36 0 31 0;
#X connect 38 0 41 0;
#X connect 39 0 38 0;
#X connect 40 0 38 1;
#X connect 41 0 30 0;
#X connect 43 0 1 0;
#X restore 787 135 pd controlDelay;
#N canvas 1627 563 796 510 controlVerb 0;
#X obj 356 7 inlet;
#X obj 356 33 unpack f f;
#X obj 318 151 tgl 15 0 empty empty empty 17 7 0 10 -262144 -1 -1 0
1;
#X obj 337 151 tgl 15 0 empty empty empty 17 7 0 10 -262144 -1 -1 0
1;
#X obj 357 151 tgl 15 0 empty empty empty 17 7 0 10 -262144 -1 -1 1
1;
#X obj 376 151 tgl 15 0 empty empty empty 17 7 0 10 -262144 -1 -1 0
1;
#X floatatom 350 105 5 0 0 0 - - -, f 5;
#X msg 363 83 set \$1;
#X obj 318 56 t f b;
#X obj 11 217 spigot;
#X obj 120 218 spigot;
#X obj 228 219 spigot;
#X obj 337 216 spigot;
#X obj 394 477 outlet;
#X obj 337 380 / 127.064;
#X obj 337 404 + 0.0005;
#X obj 423 54 s valV;
#X obj 11 192 r valV;
#X obj 120 193 r valV;
#X obj 228 194 r valV;
#X obj 337 191 r valV;
#X floatatom 21 423 5 0 0 0 - - -, f 5;
#X floatatom 130 424 5 0 0 0 - - -, f 5;
#X floatatom 238 423 5 0 0 0 - - -, f 5;
#X floatatom 347 424 5 0 0 0 - - -, f 5;
#X obj 255 56 loadbang;
#X obj 11 242 vsl 15 128 0 127 0 0 empty empty empty 0 -9 0 10 -262144
-1 -1 9525 1;
#X obj 120 244 vsl 15 128 0 127 0 0 empty empty empty 0 -9 0 10 -262144
-1 -1 3175 1;
#X obj 228 244 vsl 15 128 0 127 0 0 empty empty empty 0 -9 0 10 -262144
-1 -1 3175 1;
#X obj 337 241 vsl 15 128 0 127 0 0 empty empty empty 0 -9 0 10 -262144
-1 -1 6350 1;
#X obj 387 216 r VDal;
#X obj 401 404 s VDa;
#X msg 120 441 control #1 \$1;
#X msg 228 440 control #2 \$1;
#X msg 337 441 control #3 \$1;
#X text 8 173 level;
#X text 115 172 roomsize;
#X obj 120 404 + 1;
#X obj 120 383 / 0.424749;
#X text 231 173 RT;
#X text 332 172 damping;
#X obj 62 216 r VLel;
#X obj 62 401 s VLe;
#X obj 11 401 / 127;
#X obj 447 216 spigot;
#X obj 447 380 / 127.064;
#X obj 447 404 + 0.0005;
#X obj 447 191 r valV;
#X floatatom 457 424 5 0 0 0 - - -, f 5;
#X obj 447 241 vsl 15 128 0 127 0 0 empty empty empty 0 -9 0 10 -262144
-1 -1 9525 1;
#X text 441 171 bandwidth;
#X msg 447 441 control #4 \$1;
#X obj 557 216 spigot;
#X obj 557 191 r valV;
#X floatatom 567 424 5 0 0 0 - - -, f 5;
#X obj 557 241 vsl 15 128 0 127 0 0 empty empty empty 0 -9 0 10 -262144
-1 -1 12700 1;
#X text 551 171 early;
#X obj 557 404 - 70;
#X obj 557 380 / 1.81428;
#X msg 557 441 control #6 \$1;
#X obj 667 216 spigot;
#X obj 667 191 r valV;
#X floatatom 677 424 5 0 0 0 - - -, f 5;
#X obj 667 241 vsl 15 128 0 127 0 0 empty empty empty 0 -9 0 10 -262144
-1 -1 9525 1;
#X obj 667 404 - 70;
#X obj 667 380 / 1.81428;
#X text 661 171 tail;
#X msg 667 441 control #7 \$1;
#X obj 318 126 select 0 1 2 3 4 5 6;
#X obj 396 151 tgl 15 0 empty empty empty 17 7 0 10 -262144 -1 -1 0
1;
#X obj 415 151 tgl 15 0 empty empty empty 17 7 0 10 -262144 -1 -1 0
1;
#X obj 435 151 tgl 15 0 empty empty empty 17 7 0 10 -262144 -1 -1 0
1;
#X obj 170 218 r VRol;
#X obj 177 404 s VRo;
#X obj 277 219 r VRTl;
#X obj 272 401 s VRT;
#X obj 497 216 r VBal;
#X obj 511 404 s VBa;
#X obj 593 404 s VEa;
#X obj 607 217 r VEal;
#X obj 717 216 r VTal;
#X obj 703 404 s VTa;
#X obj 11 442 s VLamt;
#X obj 228 380 / 4.24749;
#X obj 228 401 + 0.1;
#X connect 0 0 1 0;
#X connect 1 0 8 0;
#X connect 1 1 16 0;
#X connect 2 0 9 1;
#X connect 3 0 10 1;
#X connect 4 0 11 1;
#X connect 5 0 12 1;
#X connect 6 0 68 0;
#X connect 7 0 6 0;
#X connect 8 0 7 0;
#X connect 8 0 68 0;
#X connect 8 1 6 0;
#X connect 9 0 26 0;
#X connect 10 0 27 0;
#X connect 11 0 28 0;
#X connect 12 0 29 0;
#X connect 14 0 15 0;
#X connect 15 0 34 0;
#X connect 15 0 24 0;
#X connect 17 0 9 0;
#X connect 18 0 10 0;
#X connect 19 0 11 0;
#X connect 20 0 12 0;
#X connect 25 0 2 0;
#X connect 26 0 42 0;
#X connect 26 0 43 0;
#X connect 27 0 38 0;
#X connect 27 0 73 0;
#X connect 28 0 75 0;
#X connect 28 0 83 0;
#X connect 29 0 14 0;
#X connect 29 0 31 0;
#X connect 30 0 29 0;
#X connect 32 0 13 0;
#X connect 33 0 13 0;
#X connect 34 0 13 0;
#X connect 37 0 32 0;
#X connect 37 0 22 0;
#X connect 38 0 37 0;
#X connect 41 0 26 0;
#X connect 43 0 21 0;
#X connect 43 0 82 0;
#X connect 44 0 49 0;
#X connect 45 0 46 0;
#X connect 46 0 51 0;
#X connect 46 0 48 0;
#X connect 47 0 44 0;
#X connect 49 0 45 0;
#X connect 49 0 77 0;
#X connect 51 0 13 0;
#X connect 52 0 55 0;
#X connect 53 0 52 0;
#X connect 55 0 58 0;
#X connect 55 0 78 0;
#X connect 57 0 59 0;
#X connect 57 0 54 0;
#X connect 58 0 57 0;
#X connect 59 0 13 0;
#X connect 60 0 63 0;
#X connect 61 0 60 0;
#X connect 63 0 65 0;
#X connect 63 0 81 0;
#X connect 64 0 67 0;
#X connect 64 0 62 0;
#X connect 65 0 64 0;
#X connect 67 0 13 0;
#X connect 68 0 2 0;
#X connect 68 1 3 0;
#X connect 68 2 4 0;
#X connect 68 3 5 0;
#X connect 68 4 69 0;
#X connect 68 5 70 0;
#X connect 68 6 71 0;
#X connect 69 0 44 1;
#X connect 70 0 52 1;
#X connect 71 0 60 1;
#X connect 72 0 27 0;
#X connect 74 0 28 0;
#X connect 76 0 49 0;
#X connect 79 0 55 0;
#X connect 80 0 63 0;
#X connect 83 0 84 0;
#X connect 84 0 33 0;
#X connect 84 0 23 0;
#X restore 971 132 pd controlVerb;
#X obj 240 111 spigot;
#X obj 424 109 spigot;
#X obj 609 112 spigot;
#X obj 787 110 spigot;
#X obj 971 110 spigot;
#X obj 97 63 r pluginNum;
#X obj 648 63 r pluginNum;
#X obj 463 63 r pluginNum;
#X obj 826 63 r pluginNum;
#X obj 1010 63 r pluginNum;
#X obj 279 63 r pluginNum;
#X obj 18 63 r ctrlData;
#X obj 385 63 r ctrlData;
#X obj 200 63 r ctrlData;
#X obj 569 63 r ctrlData;
#X obj 747 63 r ctrlData;
#X obj 931 63 r ctrlData;
#N canvas 936 165 435 619 tremolo 0;
#X obj 53 6 inlet;
#X obj 167 46 unpack f f;
#X obj 129 163 tgl 15 0 empty empty empty 17 7 0 10 -262144 -1 -1 1
1;
#X obj 162 163 tgl 15 0 empty empty empty 17 7 0 10 -262144 -1 -1 0
1;
#X floatatom 161 118 5 0 0 0 - - -, f 5;
#X msg 174 96 set \$1;
#X obj 129 69 t f b;
#X obj 90 227 spigot;
#X obj 203 227 spigot;
#X obj 129 139 select 0 1;
#X text 102 186 mix;
#X obj 90 387 / 127;
#X obj 107 477 inlet~;
#X obj 203 475 osc~;
#X obj 203 438 pow;
#X msg 203 413 2;
#X obj 203 387 t b f;
#X obj 187 566 *~;
#X obj 70 592 outlet~;
#X obj 4 6 outlet;
#X floatatom 90 409 5 0 0 0 - - -, f 5;
#X floatatom 232 458 5 0 0 0 - - -, f 5;
#X obj 354 138 s valAM;
#X obj 90 202 r valAM;
#X obj 203 204 r valAM;
#X obj 72 114 loadbang;
#X text 211 187 freq;
#X obj 235 413 / 10;
#X obj 277 451 mtof;
#X obj 277 430 r rmFreq;
#X obj 280 474 hsl 128 15 0 127 0 0 empty empty empty -2 -8 0 10 -262144
-1 -1 0 1;
#X floatatom 277 493 5 0 0 0 - - -, f 5;
#X obj 72 508 *~;
#X obj 71 570 +~;
#X obj 204 541 *~;
#X obj 90 250 vsl 15 128 0 127 0 0 empty empty empty 0 -9 0 10 -262144
-1 -1 0 1;
#X obj 72 486 -;
#X msg 72 464 1;
#X obj 72 442 t b f;
#X obj 316 452 r AMRml;
#X obj 203 251 vsl 15 128 0 127 0 0 empty empty empty 0 -9 0 10 -262144
-1 -1 0 1;
#X obj 252 360 r AMFrl;
#X obj 132 386 s AMMx;
#X obj 139 227 r AMMxl;
#X obj 264 540 s AMFr;
#X obj 203 497 +~ 1;
#X obj 203 519 /~ 2;
#X obj 277 405 f;
#X obj 319 382 r rhythmHz;
#X obj 277 382 r TRb;
#X connect 0 0 1 0;
#X connect 1 0 6 0;
#X connect 1 1 22 0;
#X connect 2 0 7 1;
#X connect 3 0 8 1;
#X connect 4 0 9 0;
#X connect 5 0 4 0;
#X connect 6 0 5 0;
#X connect 6 0 9 0;
#X connect 6 1 4 0;
#X connect 7 0 35 0;
#X connect 8 0 40 0;
#X connect 9 0 2 0;
#X connect 9 1 3 0;
#X connect 11 0 20 0;
#X connect 12 0 17 0;
#X connect 12 0 32 0;
#X connect 13 0 45 0;
#X connect 14 0 13 0;
#X connect 14 0 21 0;
#X connect 14 0 44 0;
#X connect 15 0 14 0;
#X connect 16 0 15 0;
#X connect 16 1 27 0;
#X connect 17 0 33 1;
#X connect 20 0 34 1;
#X connect 20 0 38 0;
#X connect 23 0 7 0;
#X connect 24 0 8 0;
#X connect 25 0 2 0;
#X connect 25 0 38 0;
#X connect 27 0 14 1;
#X connect 28 0 13 0;
#X connect 28 0 21 0;
#X connect 29 0 28 0;
#X connect 30 0 28 0;
#X connect 30 0 31 0;
#X connect 32 0 33 0;
#X connect 33 0 18 0;
#X connect 34 0 17 1;
#X connect 35 0 11 0;
#X connect 35 0 42 0;
#X connect 36 0 32 1;
#X connect 37 0 36 0;
#X connect 38 0 37 0;
#X connect 38 1 36 1;
#X connect 39 0 30 0;
#X connect 40 0 16 0;
#X connect 41 0 21 0;
#X connect 41 0 13 0;
#X connect 43 0 35 0;
#X connect 45 0 46 0;
#X connect 46 0 34 0;
#X connect 47 0 13 0;
#X connect 47 0 21 0;
#X connect 48 0 47 1;
#X connect 49 0 47 0;
#X restore 609 163 pd tremolo;
#X obj 279 87 == 2;
#X obj 463 85 == 4;
#X obj 648 86 == 5;
#X obj 826 86 == 7;
#X obj 1010 86 == 9;
#X obj 91 311 tgl 15 0 empty empty empty 17 7 0 10 -262144 -1 -1 0
1;
#X obj 207 311 tgl 15 0 empty empty empty 17 7 0 10 -262144 -1 -1 0
1;
#X obj 324 311 tgl 15 0 empty empty empty 17 7 0 10 -262144 -1 -1 0
1;
#X obj 444 311 tgl 15 0 empty empty empty 17 7 0 10 -262144 -1 -1 0
1;
#X obj 564 311 tgl 15 0 empty empty empty 17 7 0 10 -262144 -1 -1 0
1;
#X obj 684 311 tgl 15 0 empty empty empty 17 7 0 10 -262144 -1 -1 0
1;
#X obj 875 196 r fbAmt;
#X obj 857 218 *~;
#X text 78 269 C tone;
#X text 188 269 D chorus;
#X text 309 269 E phase;
#X text 427 269 F tremolo;
#X text 553 269 G delay;
#X text 673 269 A reverb;
#X obj 91 291 r sT;
#X obj 207 291 r sC;
#X obj 324 291 r sP;
#X obj 564 291 r sD;
#X obj 444 291 r sAM;
#X obj 112 109 tgl 20 0 empty empty empty 17 7 0 10 -262144 -258113
-1 0 1;
#X obj 296 111 tgl 20 0 empty empty empty 17 7 0 10 -262144 -258113
-1 0 1;
#X obj 485 110 tgl 20 0 empty empty empty 17 7 0 10 -262144 -258113
-1 0 1;
#X obj 673 109 tgl 20 0 empty empty empty 17 7 0 10 -262144 -258113
-1 0 1;
#X obj 842 111 tgl 20 0 empty empty empty 17 7 0 10 -262144 -258113
-1 0 1;
#X obj 1043 109 tgl 20 0 empty empty empty 17 7 0 10 -262144 -258113
-1 1 1;
#X obj 170 134 r~ in1;
#X obj 361 136 r~ in2;
#X obj 360 182 s~ out2;
#X obj 545 182 s~ out3;
#X obj 677 138 r~ in4;
#X obj 675 186 s~ out4;
#X obj 895 219 r~ in5;
#X obj 937 353 s~ out5;
#X obj 865 361 s~ fb;
#X obj 856 176 r~ fb;
#X obj 324 337 == 0;
#X obj 254 362 *~;
#X obj 306 362 *~;
#X obj 255 337 r~ out2;
#X obj 255 386 s~ in3;
#X obj 444 337 == 0;
#X obj 374 362 *~;
#X obj 426 362 *~;
#X obj 564 337 == 0;
#X obj 494 362 *~;
#X obj 546 362 *~;
#X obj 684 337 == 0;
#X obj 614 362 *~;
#X obj 666 362 *~;
#X obj 545 135 r~ in3;
#X obj 1021 153 r~ in6;
#X obj 375 337 r~ out3;
#X obj 495 337 r~ out4;
#X obj 615 337 r~ out5;
#X obj 375 386 s~ in4;
#X obj 495 386 s~ in5;
#X obj 615 386 s~ in6;
#X obj 18 34 s~ out0;
#X obj 1021 347 r~ out6;
#X obj 1016 228 s~ out6;
#X obj 72 385 s~ out1b;
#X obj 188 385 s~ out2b;
#X obj 305 385 s~ out3b;
#X obj 426 385 s~ out4b;
#X obj 545 385 s~ out5b;
#X obj 665 385 s~ out6b;
#X obj 138 315 r~ out1b;
#X obj 255 315 r~ out2b;
#X obj 375 314 r~ out3b;
#X obj 495 315 r~ out4b;
#X obj 615 315 r~ out5b;
#X obj 1021 318 r~ out6b;
#X obj 684 291 r sV;
#X obj 788 291 plugin~ Saturate;
#N canvas 166 94 514 509 controlSaturation 0;
#X obj 166 449 outlet;
#X floatatom 69 357 5 0 0 0 - - -, f 5;
#X floatatom 282 359 5 0 0 0 - - -, f 5;
#X obj 284 308 / 127;
#X obj 59 169 vsl 15 128 0 127 0 0 empty empty empty 0 -9 0 10 -262144
-1 -1 1155 1;
#X obj 166 148 vsl 15 128 0 127 0 0 empty empty empty 0 -9 0 10 -262144
-1 -1 3175 1;
#X obj 284 174 vsl 15 128 0 127 0 0 empty empty empty 0 -9 0 10 -262144
-1 -1 0 1;
#X obj 166 284 / 1.32292;
#X obj 166 305 + -24;
#X floatatom 174 358 5 0 0 0 - - -, f 5;
#X msg 59 143 11.5455;
#X msg 166 124 31.75;
#X msg 284 148 0;
#X msg 166 378 control #2 \$1;
#X msg 59 379 control #1 \$1;
#X obj 166 56 loadbang;
#X text 76 121 mode;
#X text 169 103 gain;
#X text 282 127 bias;
#X obj 59 327 int;
#X obj 59 305 / 11.545;
#X msg 281 379 control #3 \$1;
#X connect 2 0 21 0;
#X connect 3 0 2 0;
#X connect 4 0 20 0;
#X connect 5 0 7 0;
#X connect 6 0 3 0;
#X connect 7 0 8 0;
#X connect 8 0 13 0;
#X connect 8 0 9 0;
#X connect 10 0 4 0;
#X connect 11 0 5 0;
#X connect 12 0 6 0;
#X connect 13 0 0 0;
#X connect 14 0 0 0;
#X connect 15 0 11 0;
#X connect 15 0 10 0;
#X connect 15 0 12 0;
#X connect 19 0 1 0;
#X connect 19 0 14 0;
#X connect 20 0 19 0;
#X connect 21 0 0 0;
#X restore 787 272 pd controlSaturation;
#X obj 18 13 r~ toFX;
#X obj 1020 386 s~ toGainFX;
#X obj 1079 363 s~ toGainFXR;
#N canvas 662 391 450 300 delayParallel 0;
#X obj 19 13 inlet~;
#X obj 21 232 outlet~;
#X obj 72 49 vsl 15 128 0 1 0 0 empty empty empty 0 -9 0 10 -262144
-1 -1 4233 1;
#X obj 72 15 r delAmt;
#X obj 20 207 *~;
#X floatatom 84 196 5 0 0 0 - - -, f 5;
#X connect 0 0 4 0;
#X connect 2 0 4 1;
#X connect 2 0 5 0;
#X connect 3 0 2 0;
#X connect 4 0 1 0;
#X restore 896 327 pd delayParallel;
#N canvas 666 307 450 369 toneTrim 0;
#X obj 44 26 r~ toTrim;
#X obj 44 266 *~;
#X obj 62 112 vsl 15 128 0 1 0 0 empty empty empty 0 -9 0 10 -262144
-1 -1 11007 1;
#X obj 43 288 s~ out1;
#X obj 134 117 r TGan;
#X obj 134 26 r TPon;
#X obj 134 87 t b f;
#X obj 134 198 +, f 5;
#X obj 134 220 t b f;
#X msg 134 242 1;
#X obj 134 264 -;
#X floatatom 134 286 5 0 0 0 - - -, f 5;
#X obj 134 138 * 0.2;
#X obj 246 41 * 0.57735;
#X obj 246 62 pow 2;
#X obj 134 56 * 0.333;
#X connect 0 0 1 0;
#X connect 1 0 3 0;
#X connect 2 0 1 1;
#X connect 4 0 12 0;
#X connect 5 0 13 0;
#X connect 6 0 12 0;
#X connect 6 1 7 1;
#X connect 7 0 8 0;
#X connect 8 0 9 0;
#X connect 8 1 10 1;
#X connect 9 0 10 0;
#X connect 10 0 11 0;
#X connect 11 0 2 0;
#X connect 12 0 7 0;
#X connect 13 0 14 0;
#X connect 14 0 6 0;
#X restore 98 41 pd toneTrim;
#X obj 171 180 s~ toTrim;
#X obj 971 176 plugin~ gverb;
#N canvas 1619 554 450 300 verbParallel 0;
#X obj 19 13 inlet~;
#X obj 21 232 outlet~;
#X obj 72 49 vsl 15 128 0 1 0 0 empty empty empty 0 -9 0 10 -262144
-1 -1 9525 1;
#X obj 20 207 *~;
#X floatatom 84 196 5 0 0 0 - - -, f 5;
#X obj 72 15 r VLamt;
#X connect 0 0 3 0;
#X connect 2 0 3 1;
#X connect 2 0 4 0;
#X connect 3 0 1 0;
#X connect 5 0 2 0;
#X restore 1016 202 pd verbParallel;
#X connect 0 0 2 1;
#X connect 1 0 3 0;
#X connect 2 0 104 0;
#X connect 4 0 1 0;
#X connect 4 0 2 0;
#X connect 5 0 7 1;
#X connect 6 0 9 0;
#X connect 7 0 105 0;
#X connect 8 0 6 0;
#X connect 8 0 7 0;
#X connect 10 1 124 0;
#X connect 11 1 71 0;
#X connect 12 1 72 0;
#X connect 13 1 117 1;
#X connect 14 0 10 0;
#X connect 15 0 16 1;
#X connect 15 0 63 0;
#X connect 16 0 14 0;
#X connect 17 0 11 0;
#X connect 18 0 12 0;
#X connect 19 0 13 0;
#X connect 20 0 125 0;
#X connect 21 0 17 0;
#X connect 22 0 18 0;
#X connect 23 0 38 0;
#X connect 24 0 19 0;
#X connect 25 0 20 0;
#X connect 26 0 15 0;
#X connect 27 0 41 0;
#X connect 28 0 40 0;
#X connect 29 0 42 0;
#X connect 30 0 43 0;
#X connect 31 0 39 0;
#X connect 32 0 16 0;
#X connect 33 0 22 0;
#X connect 34 0 21 0;
#X connect 35 0 23 0;
#X connect 36 0 24 0;
#X connect 37 0 25 0;
#X connect 38 1 74 0;
#X connect 39 0 21 1;
#X connect 39 0 64 0;
#X connect 40 0 22 1;
#X connect 40 0 65 0;
#X connect 41 0 23 1;
#X connect 41 0 66 0;
#X connect 42 0 24 1;
#X connect 42 0 67 0;
#X connect 43 0 25 1;
#X connect 43 0 68 0;
#X connect 44 0 0 0;
#X connect 44 0 1 1;
#X connect 45 0 5 0;
#X connect 45 0 6 1;
#X connect 46 0 79 0;
#X connect 46 0 80 1;
#X connect 47 0 84 0;
#X connect 47 0 85 1;
#X connect 48 0 87 0;
#X connect 48 0 88 1;
#X connect 49 0 90 0;
#X connect 49 0 91 1;
#X connect 50 0 51 1;
#X connect 51 0 13 1;
#X connect 58 0 44 0;
#X connect 59 0 45 0;
#X connect 60 0 46 0;
#X connect 61 0 48 0;
#X connect 62 0 47 0;
#X connect 69 0 10 1;
#X connect 70 0 11 1;
#X connect 73 0 38 1;
#X connect 75 0 13 1;
#X connect 75 0 76 0;
#X connect 78 0 51 0;
#X connect 79 0 81 1;
#X connect 80 0 83 0;
#X connect 81 0 106 0;
#X connect 82 0 80 0;
#X connect 82 0 81 0;
#X connect 84 0 86 1;
#X connect 85 0 98 0;
#X connect 86 0 107 0;
#X connect 87 0 89 1;
#X connect 88 0 99 0;
#X connect 89 0 108 0;
#X connect 90 0 92 1;
#X connect 91 0 100 0;
#X connect 92 0 109 0;
#X connect 93 0 12 1;
#X connect 94 0 125 1;
#X connect 94 0 103 0;
#X connect 95 0 85 0;
#X connect 95 0 86 0;
#X connect 96 0 88 0;
#X connect 96 0 89 0;
#X connect 97 0 91 0;
#X connect 97 0 92 0;
#X connect 102 0 120 0;
#X connect 110 0 6 0;
#X connect 110 0 7 0;
#X connect 111 0 80 0;
#X connect 111 0 81 0;
#X connect 112 0 85 0;
#X connect 112 0 86 0;
#X connect 113 0 88 0;
#X connect 113 0 89 0;
#X connect 114 0 91 0;
#X connect 114 0 92 0;
#X connect 115 0 120 0;
#X connect 116 0 49 0;
#X connect 117 1 122 0;
#X connect 117 1 77 0;
#X connect 118 0 117 0;
#X connect 119 0 101 0;
#X connect 122 0 76 0;
#X connect 125 1 126 0;
#X connect 126 0 103 0;
#X restore 237 4 pd plugin;
#X obj 493 98 tgl 25 0 empty empty empty 17 7 0 10 -228856 -258113
-1 0 1;
#X obj 570 98 tgl 25 0 empty empty empty 17 7 0 10 -228856 -258113
-1 0 1;
#X obj 647 98 tgl 25 0 empty empty empty 17 7 0 10 -228856 -258113
-1 0 1;
#X obj 732 98 tgl 25 0 empty empty empty 17 7 0 10 -228856 -258113
-1 0 1;
#X obj 817 98 tgl 25 0 empty empty empty 17 7 0 10 -228856 -258113
-1 0 1;
#X obj 894 98 tgl 25 0 empty empty empty 17 7 0 10 -228856 -258113
-1 0 1;
#X text 480 31 C tone;
#X text 551 31 D chorus;
#X text 632 31 E phase;
#X text 715 31 F tremolo;
#X text 806 31 G delay;
#X text 883 31 A reverb;
#X obj 493 53 r sT;
#X obj 570 53 r sC;
#X obj 647 53 r sP;
#X obj 817 53 r sD;
#X obj 732 53 r sAM;
#X obj 207 223 s~ vu;
#X obj 264 25 r~ vu;
#X obj 264 45 env~;
#X obj 264 65 - 100;
#X floatatom 225 275 5 0 0 3 Current_Tempo - -, f 5;
#X obj 225 252 r tempo;
#N canvas 332 169 255 599 tapTempo 0;
#X obj 10 198 bng 40 250 50 0 empty empty empty 17 7 0 10 -262144 -258113
-1;
#X obj 10 243 t b b b;
#X obj 33 285 t;
#X obj 33 310 timer;
#X obj 112 308 + 1;
#X obj 10 8 loadbang;
#X obj 33 355 array set taps;
#X obj 80 286 t f f;
#X obj 10 379 array sum taps;
#X text 99 52 number of taps;
#X obj 70 76 s numTaps;
#X obj 10 30 t b b b b;
#X obj 30 142 array size taps;
#X obj 50 99 array define taps;
#X obj 67 118 r numTaps;
#X obj 141 308 r numTaps;
#X obj 112 332 %;
#X obj 28 419 r numTaps;
#X obj 10 441 /;
#X floatatom 10 552 5 0 0 1 TEMPO - -, f 5;
#X msg 10 506 60000;
#X obj 10 528 /;
#X obj 10 482 t b f;
#X msg 70 52 3;
#X obj 10 399 f;
#X obj 33 332 f;
#X obj 80 265 f;
#X obj 10 463 f;
#X obj 57 164 r tap;
#X obj 10 572 s tempo;
#X obj 10 118 t b b b;
#X connect 0 0 1 0;
#X connect 1 0 8 0;
#X connect 1 1 2 0;
#X connect 1 2 26 0;
#X connect 2 0 3 0;
#X connect 2 1 3 1;
#X connect 3 0 25 0;
#X connect 4 0 16 0;
#X connect 5 0 11 0;
#X connect 7 0 6 1;
#X connect 7 1 4 0;
#X connect 8 0 24 0;
#X connect 11 0 30 0;
#X connect 11 1 12 0;
#X connect 11 2 13 0;
#X connect 11 3 23 0;
#X connect 14 0 12 0;
#X connect 15 0 16 1;
#X connect 16 0 26 1;
#X connect 17 0 18 1;
#X connect 18 0 27 0;
#X connect 19 0 29 0;
#X connect 20 0 21 0;
#X connect 21 0 19 0;
#X connect 22 0 20 0;
#X connect 22 1 21 1;
#X connect 23 0 10 0;
#X connect 24 0 18 0;
#X connect 25 0 6 0;
#X connect 26 0 7 0;
#X connect 27 0 22 0;
#X connect 28 0 0 0;
#X connect 30 0 0 0;
#X connect 30 1 0 0;
#X connect 30 2 0 0;
#X restore 386 4 pd tapTempo;
#N canvas 338 105 585 363 controlCenter 0;
#X obj 41 15 r ctrlNum;
#X text 119 14 current Ctrl;
#X floatatom 41 37 5 0 0 0 - - -, f 5;
#X obj 71 103 == 23;
#X obj 223 103 == 24;
#X obj 32 171 select 0 2 4 5 7 9;
#X msg 52 191 0;
#X msg 114 191 0;
#X msg 73 191 0;
#X msg 93 191 0;
#X msg 32 191 0;
#X msg 134 191 0;
#X obj 32 211 s sT;
#X obj 52 231 s sC;
#X obj 73 251 s sP;
#X obj 93 271 s sAM;
#X obj 114 291 s sD;
#X obj 134 312 s sV;
#X obj 184 173 select 0 2 4 5 7 9;
#X obj 184 213 s sT;
#X obj 204 233 s sC;
#X obj 225 253 s sP;
#X obj 245 273 s sAM;
#X obj 266 293 s sD;
#X obj 286 314 s sV;
#X msg 184 193 1;
#X msg 225 193 1;
#X msg 204 193 1;
#X msg 245 193 1;
#X msg 266 193 1;
#X msg 286 193 1;
#X obj 336 103 == 25;
#X obj 336 192 s tap;
#X obj 32 149 spigot;
#X obj 184 150 spigot;
#X obj 32 126 r pluginNum;
#X obj 184 127 r pluginNum;
#X obj 368 147 tgl 15 0 empty empty empty 17 7 0 10 -262144 -1 -1 0
1;
#X obj 336 168 spigot;
#X obj 336 125 t b f;
#X connect 0 0 2 0;
#X connect 2 0 3 0;
#X connect 2 0 4 0;
#X connect 2 0 31 0;
#X connect 3 0 33 1;
#X connect 4 0 34 1;
#X connect 5 0 10 0;
#X connect 5 1 6 0;
#X connect 5 2 8 0;
#X connect 5 3 9 0;
#X connect 5 4 7 0;
#X connect 5 5 11 0;
#X connect 6 0 13 0;
#X connect 7 0 16 0;
#X connect 8 0 14 0;
#X connect 9 0 15 0;
#X connect 10 0 12 0;
#X connect 11 0 17 0;
#X connect 18 0 25 0;
#X connect 18 1 27 0;
#X connect 18 2 26 0;
#X connect 18 3 28 0;
#X connect 18 4 29 0;
#X connect 18 5 30 0;
#X connect 25 0 19 0;
#X connect 26 0 21 0;
#X connect 27 0 20 0;
#X connect 28 0 22 0;
#X connect 29 0 23 0;
#X connect 30 0 24 0;
#X connect 31 0 39 0;
#X connect 33 0 5 0;
#X connect 34 0 18 0;
#X connect 35 0 33 0;
#X connect 36 0 34 0;
#X connect 37 0 38 1;
#X connect 38 0 32 0;
#X connect 39 0 38 0;
#X connect 39 1 37 0;
#X restore 117 4 pd controlCenter;
#X obj 321 316 bng 30 250 50 0 empty empty empty 17 7 0 10 -232576
-1 -1;
#X obj 321 352 s tap;
#X obj 321 296 s tempo;
#X obj 321 275 nbx 5 14 -1e+37 1e+37 0 0 empty empty Set_Tempo 58 8
0 10 -262144 -1 -1 120 256;
#X obj 176 126 r~ toOutb;
#X msg 493 75 set \$1;
#X msg 570 75 set \$1;
#X msg 647 75 set \$1;
#X msg 732 75 set \$1;
#X msg 817 75 set \$1;
#X msg 894 75 set \$1;
#X obj 493 128 s sT;
#X obj 570 128 s sC;
#X obj 647 128 s sP;
#X obj 732 128 s sAM;
#X obj 817 128 s sD;
#N canvas 106 125 1191 687 presets 0;
#X obj 87 560 textfile;
#X obj 215 161 r gainIn;
#X obj 341 161 r gainOut;
#X obj 80 9 r presetName;
#X obj 87 497 spigot;
#X obj 126 477 tgl 15 0 empty empty empty 17 7 0 10 -262144 -1 -1 0
1;
#X obj 80 455 t b s b;
#X obj 197 182 f;
#X obj 323 182 f;
#X obj 590 78 r sT;
#X obj 572 100 f;
#X obj 674 99 f;
#X obj 692 77 r sC;
#X obj 772 99 f;
#X obj 790 77 r sP;
#X obj 871 99 f;
#X obj 889 77 r sAM;
#X obj 981 99 f;
#X obj 999 77 r sD;
#X obj 1081 99 f;
#X obj 1099 76 r sV;
#X obj 197 245 f;
#X obj 215 224 r tempo;
#X obj 323 245 f;
#X obj 341 224 r mute;
#X obj 572 165 f;
#X obj 590 143 r TOv;
#X obj 572 230 f;
#X obj 590 208 r TGa;
#X obj 572 295 f;
#X obj 590 273 r TBr;
#X obj 572 360 f;
#X obj 590 338 r TPo;
#X obj 572 425 f;
#X obj 590 403 r TTo;
#X obj 572 490 f;
#X obj 590 468 r TBa;
#X obj 572 555 f;
#X obj 590 533 r TMi;
#X obj 572 620 f;
#X obj 590 598 r TTr;
#X msg 686 56 clear;
#X obj 678 165 f;
#X obj 696 143 r CBl;
#X obj 678 230 f;
#X obj 696 208 r CT;
#X obj 678 295 f;
#X obj 696 273 r CWi;
#X obj 678 360 f;
#X obj 696 338 r CRa;
#X obj 678 425 f;
#X obj 696 403 r CFf;
#X obj 678 490 f;
#X obj 696 468 r CFb;
#X msg 197 203 add gainInl \$1;
#X msg 197 266 add tempol \$1;
#X msg 323 203 add gainOutl \$1;
#X msg 323 266 add mutel \$1;
#X msg 572 122 add sTl \$1;
#X msg 572 187 add TOvl \$1;
#X msg 572 252 add TGal \$1;
#X msg 572 317 add TBrl \$1;
#X msg 572 382 add TPol \$1;
#X msg 572 447 add TTol \$1;
#X msg 572 512 add TBal \$1;
#X msg 572 577 add TMil \$1;
#X msg 572 642 add TTrl \$1;
#X msg 674 121 add sCl \$1;
#X msg 678 252 add CTl \$1;
#X msg 678 316 add CWil \$1;
#X msg 678 381 add CRal \$1;
#X msg 678 446 add CFfl \$1;
#X msg 678 511 add CFbl \$1;
#X msg 772 121 add sPl \$1;
#X msg 871 121 add sAMl \$1;
#X msg 981 122 add sDl \$1;
#X msg 1081 122 add sVl \$1;
#X msg 678 187 add CBll \$1;
#N canvas 1998 650 673 294 loadPreset 0;
#X obj 4 178 qlist;
#X obj 5 48 openpanel;
#X msg 50 91 set symbol \$1;
#X obj 50 133 s presetNamel;
#X obj 5 5 r presetl;
#X msg 4 154 read \$1;
#X obj 54 221 print "Preset Loaded";
#X obj 201 132 loadbang;
#X msg 50 112 symbol /home/pi/Documents/pd-patches/fx_rig/presets/default.fxp
;
#X obj 36 199 t;
#X msg 2 221 clear;
#X obj 4 69 t b b s;
#X obj 201 154 t b b b;
#X msg 5 27 symbol ~/Documents/pd-patches/fx_rig/presets/;
#X msg 247 178 symbol ~/Documents/pd-patches/fx_rig/presets/default.fxp
;
#X connect 0 1 9 0;
#X connect 1 0 11 0;
#X connect 2 0 8 0;
#X connect 4 0 13 0;
#X connect 5 0 0 0;
#X connect 7 0 12 0;
#X connect 8 0 3 0;
#X connect 8 0 5 0;
#X connect 9 0 10 0;
#X connect 9 1 6 0;
#X connect 10 0 0 0;
#X connect 11 0 0 0;
#X connect 11 1 8 0;
#X connect 11 2 2 0;
#X connect 12 0 10 0;
#X connect 12 1 0 0;
#X connect 12 2 14 0;
#X connect 13 0 1 0;
#X connect 14 0 5 0;
#X restore 173 9 pd loadPreset;
#X obj 778 165 f;
#X obj 778 230 f;
#X obj 778 295 f;
#X obj 778 360 f;
#X obj 778 425 f;
#X obj 796 143 r PDe;
#X msg 778 187 add PDel \$1;
#X obj 796 208 r PRa;
#X msg 778 252 add PRal \$1;
#X obj 796 273 r PLf;
#X obj 796 338 r PSp;
#X msg 778 381 add PSpl \$1;
#X obj 796 403 r PRe;
#X obj 876 165 f;
#X obj 876 230 f;
#X obj 876 295 f;
#X obj 894 143 r AMMx;
#X msg 876 187 add AMMxl \$1;
#X obj 894 208 r AMFr;
#X msg 876 252 add AMFrl \$1;
#X obj 894 273 r AMRm;
#X msg 876 316 add AMRml \$1;
#X obj 982 165 f;
#X obj 982 230 f;
#X obj 982 295 f;
#X obj 1000 143 r DMx;
#X msg 982 187 add DMxl \$1;
#X obj 1000 208 r DDe;
#X msg 982 252 add DDel \$1;
#X obj 1000 273 r DFb;
#X msg 982 316 add DFbl \$1;
#X obj 1081 165 f;
#X obj 1081 230 f;
#X obj 1081 295 f;
#X obj 1081 360 f;
#X msg 1081 381 add VDal \$1;
#X msg 778 316 add PLfl \$1;
#X msg 778 446 add PRel \$1;
#X obj 130 621 print "Preset Saved!";
#X msg 87 526 write \$1;
#X obj 1099 143 r VLe;
#X msg 1081 187 add VLel \$1;
#X obj 1099 208 r VRo;
#X msg 1081 252 add VRol \$1;
#X obj 1099 273 r VRT;
#X msg 1081 315 add VRTl \$1;
#X obj 1099 338 r VDa;
#X obj 1081 425 f;
#X obj 1081 490 f;
#X obj 1081 555 f;
#X obj 1099 403 r VBa;
#X msg 1081 447 add VBal \$1;
#X obj 1099 468 r VEa;
#X msg 1081 510 add VEal \$1;
#X obj 1099 533 r VTa;
#X msg 1081 576 add VTal \$1;
#X obj 80 35 t s b b b b b b b b b b b b b b b b b b b b b b b b b
b b b b b b b b b b b b b b b b b, f 87;
#X connect 0 1 117 0;
#X connect 1 0 7 1;
#X connect 2 0 8 1;
#X connect 3 0 135 0;
#X connect 4 0 118 0;
#X connect 5 0 4 1;
#X connect 6 0 5 0;
#X connect 6 1 4 0;
#X connect 6 2 5 0;
#X connect 7 0 54 0;
#X connect 8 0 56 0;
#X connect 9 0 10 1;
#X connect 10 0 58 0;
#X connect 11 0 67 0;
#X connect 12 0 11 1;
#X connect 13 0 73 0;
#X connect 14 0 13 1;
#X connect 15 0 74 0;
#X connect 16 0 15 1;
#X connect 17 0 75 0;
#X connect 18 0 17 1;
#X connect 19 0 76 0;
#X connect 20 0 19 1;
#X connect 21 0 55 0;
#X connect 22 0 21 1;
#X connect 23 0 57 0;
#X connect 24 0 23 1;
#X connect 25 0 59 0;
#X connect 26 0 25 1;
#X connect 27 0 60 0;
#X connect 28 0 27 1;
#X connect 29 0 61 0;
#X connect 30 0 29 1;
#X connect 31 0 62 0;
#X connect 32 0 31 1;
#X connect 33 0 63 0;
#X connect 34 0 33 1;
#X connect 35 0 64 0;
#X connect 36 0 35 1;
#X connect 37 0 65 0;
#X connect 38 0 37 1;
#X connect 39 0 66 0;
#X connect 40 0 39 1;
#X connect 41 0 0 0;
#X connect 42 0 77 0;
#X connect 43 0 42 1;
#X connect 44 0 68 0;
#X connect 45 0 44 1;
#X connect 46 0 69 0;
#X connect 47 0 46 1;
#X connect 48 0 70 0;
#X connect 49 0 48 1;
#X connect 50 0 71 0;
#X connect 51 0 50 1;
#X connect 52 0 72 0;
#X connect 53 0 52 1;
#X connect 54 0 0 0;
#X connect 55 0 0 0;
#X connect 56 0 0 0;
#X connect 57 0 0 0;
#X connect 58 0 0 0;
#X connect 59 0 0 0;
#X connect 60 0 0 0;
#X connect 61 0 0 0;
#X connect 62 0 0 0;
#X connect 63 0 0 0;
#X connect 64 0 0 0;
#X connect 65 0 0 0;
#X connect 66 0 0 0;
#X connect 67 0 0 0;
#X connect 68 0 0 0;
#X connect 69 0 0 0;
#X connect 70 0 0 0;
#X connect 71 0 0 0;
#X connect 72 0 0 0;
#X connect 73 0 0 0;
#X connect 74 0 0 0;
#X connect 75 0 0 0;
#X connect 76 0 0 0;
#X connect 77 0 0 0;
#X connect 79 0 85 0;
#X connect 80 0 87 0;
#X connect 81 0 115 0;
#X connect 82 0 90 0;
#X connect 83 0 116 0;
#X connect 84 0 79 1;
#X connect 85 0 0 0;
#X connect 86 0 80 1;
#X connect 87 0 0 0;
#X connect 88 0 81 1;
#X connect 89 0 82 1;
#X connect 90 0 0 0;
#X connect 91 0 83 1;
#X connect 92 0 96 0;
#X connect 93 0 98 0;
#X connect 94 0 100 0;
#X connect 95 0 92 1;
#X connect 96 0 0 0;
#X connect 97 0 93 1;
#X connect 98 0 0 0;
#X connect 99 0 94 1;
#X connect 100 0 0 0;
#X connect 101 0 105 0;
#X connect 102 0 107 0;
#X connect 103 0 109 0;
#X connect 104 0 101 1;
#X connect 105 0 0 0;
#X connect 106 0 102 1;
#X connect 107 0 0 0;
#X connect 108 0 103 1;
#X connect 109 0 0 0;
#X connect 110 0 120 0;
#X connect 111 0 122 0;
#X connect 112 0 124 0;
#X connect 113 0 114 0;
#X connect 114 0 0 0;
#X connect 115 0 0 0;
#X connect 116 0 0 0;
#X connect 118 0 0 0;
#X connect 119 0 110 1;
#X connect 120 0 0 0;
#X connect 121 0 111 1;
#X connect 122 0 0 0;
#X connect 123 0 112 1;
#X connect 124 0 0 0;
#X connect 125 0 113 1;
#X connect 126 0 130 0;
#X connect 127 0 132 0;
#X connect 128 0 134 0;
#X connect 129 0 126 1;
#X connect 130 0 0 0;
#X connect 131 0 127 1;
#X connect 132 0 0 0;
#X connect 133 0 128 1;
#X connect 134 0 0 0;
#X connect 135 0 6 0;
#X connect 135 1 113 0;
#X connect 135 2 112 0;
#X connect 135 3 111 0;
#X connect 135 4 19 0;
#X connect 135 4 110 0;
#X connect 135 5 103 0;
#X connect 135 6 102 0;
#X connect 135 7 101 0;
#X connect 135 8 17 0;
#X connect 135 9 94 0;
#X connect 135 10 93 0;
#X connect 135 11 92 0;
#X connect 135 12 15 0;
#X connect 135 13 83 0;
#X connect 135 14 82 0;
#X connect 135 15 81 0;
#X connect 135 16 80 0;
#X connect 135 17 79 0;
#X connect 135 18 13 0;
#X connect 135 19 52 0;
#X connect 135 20 50 0;
#X connect 135 21 48 0;
#X connect 135 22 46 0;
#X connect 135 23 44 0;
#X connect 135 24 42 0;
#X connect 135 25 11 0;
#X connect 135 26 39 0;
#X connect 135 27 37 0;
#X connect 135 28 35 0;
#X connect 135 29 33 0;
#X connect 135 30 31 0;
#X connect 135 31 29 0;
#X connect 135 32 27 0;
#X connect 135 33 25 0;
#X connect 135 34 10 0;
#X connect 135 35 23 0;
#X connect 135 36 21 0;
#X connect 135 37 8 0;
#X connect 135 38 7 0;
#X connect 135 39 126 0;
#X connect 135 40 127 0;
#X connect 135 41 128 0;
#X connect 135 42 41 0;
#X restore 308 4 pd presets;
#X obj 34 213 s gainIn;
#X obj 136 245 s gainOut;
#X obj 34 25 r gainInl;
#X obj 135 25 r gainOutl;
#X obj 451 53 r sTl;
#X obj 529 53 r sCl;
#X obj 606 53 r sPl;
#X obj 683 53 r sAMl;
#X obj 776 54 r sDl;
#X obj 336 38 r mutel;
#X obj 13 492 s presetName;
#X obj 13 351 r presetNamel;
#X obj 13 317 bng 30 250 50 0 empty empty Save_Preset -10 -10 0 10
-203904 -1 -1;
#X obj 853 53 r sVl;
#X obj 894 53 r sV;
#X obj 894 128 s sV;
#X obj 321 252 r tempol;
#X obj 123 317 bng 30 250 50 0 empty empty Load_Preset -10 -10 0 10
-203904 -1 -1;
#X obj 123 350 s presetl;
#N canvas 694 128 450 384 inputStreams 0;
#X obj 55 12 notein;
#X floatatom 87 133 5 0 0 0 Plugin_num - -, f 5;
#X obj 87 177 ctlin;
#X obj 226 118 adc~;
#X obj 197 219 *~;
#X obj 215 171 r mute;
#X obj 215 193 == 0;
#X obj 294 171 r mute;
#X obj 276 217 *~;
#X obj 34 267 pack f f;
#X obj 87 113 - 48;
#X obj 103 203 s ctrlNum;
#X obj 87 151 s pluginNum;
#X obj 33 288 s ctrlData;
#X obj 87 224 s ctrlVal;
#X obj 277 247 s~ toOutb;
#X obj 197 247 s~ toGain;
#X obj 48 89 spigot;
#X obj 55 35 t f f;
#X obj 156 89 == 0;
#X obj 131 110 spigot;
#X floatatom 207 92 5 0 0 0 - - -, f 5;
#X obj 131 130 s AMRml;
#X obj 87 67 < 60;
#X obj 339 74 / 2;
#X connect 0 0 18 0;
#X connect 1 0 12 0;
#X connect 2 0 9 1;
#X connect 2 0 14 0;
#X connect 2 1 9 0;
#X connect 2 1 11 0;
#X connect 3 0 4 0;
#X connect 3 0 8 0;
#X connect 3 1 4 0;
#X connect 3 1 8 0;
#X connect 4 0 16 0;
#X connect 5 0 6 0;
#X connect 6 0 4 1;
#X connect 7 0 8 1;
#X connect 8 0 15 0;
#X connect 9 0 13 0;
#X connect 10 0 1 0;
#X connect 17 0 10 0;
#X connect 18 0 17 0;
#X connect 18 0 24 0;
#X connect 18 1 23 0;
#X connect 19 0 20 1;
#X connect 20 0 21 0;
#X connect 20 0 22 0;
#X connect 23 0 17 1;
#X connect 23 0 19 0;
#X connect 24 0 20 0;
#X restore 4 4 pd inputStreams;
#X obj 56 161 r~ toGain;
#X obj 178 150 r~ toGainFX;
#X obj 203 171 r~ toGainFXR;
#X obj 265 88 vu 30 120 empty empty -1 -8 0 10 -66577 -1 1 0;
#N canvas 985 197 298 308 rhythm 0;
#X obj 22 9 r noteVal;
#X obj 150 9 r noteType;
#X obj 92 9 r tempo;
#X obj 40 128 pow;
#X msg 40 107 2;
#X obj 22 171 /;
#X msg 22 149 1;
#X obj 22 29 - 2;
#X floatatom 22 256 8 0 0 0 - - -, f 8;
#X obj 182 55 select 0 1 2;
#X msg 182 77 1;
#X obj 22 235 * 1;
#X obj 150 33 t b f;
#X obj 22 274 s rhythmMS;
#X obj 22 194 * 2000;
#X obj 92 30 t b f;
#X obj 92 52 / 60;
#X obj 92 75 / 1000;
#X obj 92 97 t b f;
#X msg 91 118 1;
#X obj 91 138 /;
#X msg 209 96 0.333333;
#X obj 236 76 1.5;
#X obj 117 274 s rhythmHz;
#X obj 117 196 *;
#X floatatom 117 256 5 0 0 0 - - -, f 5;
#X obj 182 140 s rtmMult;
#X obj 40 214 r rtmMult;
#X obj 135 215 r rtmMult;
#X obj 117 235 * 1;
#X obj 22 80 t;
#X obj 22 51 t b f;
#X connect 0 0 7 0;
#X connect 1 0 12 0;
#X connect 2 0 15 0;
#X connect 3 0 5 1;
#X connect 3 0 24 0;
#X connect 4 0 3 0;
#X connect 5 0 14 0;
#X connect 6 0 5 0;
#X connect 7 0 31 0;
#X connect 8 0 13 0;
#X connect 9 0 10 0;
#X connect 9 1 21 0;
#X connect 9 2 22 0;
#X connect 10 0 26 0;
#X connect 11 0 8 0;
#X connect 12 0 30 0;
#X connect 12 1 9 0;
#X connect 14 0 11 0;
#X connect 15 0 30 0;
#X connect 15 1 16 0;
#X connect 16 0 17 0;
#X connect 16 0 24 1;
#X connect 17 0 18 0;
#X connect 18 0 19 0;
#X connect 18 1 20 1;
#X connect 19 0 20 0;
#X connect 20 0 14 1;
#X connect 21 0 26 0;
#X connect 22 0 26 0;
#X connect 24 0 29 0;
#X connect 25 0 23 0;
#X connect 27 0 11 1;
#X connect 28 0 29 1;
#X connect 29 0 25 0;
#X connect 30 0 6 0;
#X connect 30 1 4 0;
#X connect 31 0 30 0;
#X connect 31 1 3 1;
#X restore 471 4 pd rhythm;
#N canvas 0 81 450 300 display 0;
#X obj 6 5 r pluginNum;
#X obj 6 27 select 0 2 4 5 7 9;
#X obj 6 172 s currentPlugin;
#X msg 6 48 symbol Tone;
#X msg 26 68 symbol Chorus;
#X msg 47 89 symbol Phaser;
#X msg 68 109 symbol Tremolo;
#X msg 88 129 symbol Delay;
#X msg 108 149 symbol Reverb;
#X connect 0 0 1 0;
#X connect 1 0 3 0;
#X connect 1 1 4 0;
#X connect 1 2 5 0;
#X connect 1 3 6 0;
#X connect 1 4 7 0;
#X connect 1 5 8 0;
#X connect 3 0 2 0;
#X connect 4 0 2 0;
#X connect 5 0 2 0;
#X connect 6 0 2 0;
#X connect 7 0 2 0;
#X connect 8 0 2 0;
#X restore 543 4 pd display;
#X obj 493 158 r currentPlugin;
#X msg 493 203 Reverb;
#X msg 493 180 set \$1;
#X obj 494 288 vradio 15 1 0 7 empty empty empty 0 -8 0 10 -262144
-1 -1 1;
#X text 513 287 1/1;
#X text 513 302 1/2;
#X text 513 317 1/4;
#X text 513 332 1/8;
#X text 513 347 1/16;
#X text 513 362 1/32;
#X text 513 376 1/64;
#X obj 561 288 vradio 15 1 0 3 empty empty empty 0 -8 0 10 -262144
-1 -1 1;
#X text 580 287 straight;
#X text 580 302 triplet;
#X text 580 317 dotted;
#X obj 494 398 s noteVal;
#X obj 561 338 s noteType;
#X obj 494 244 r noteVall;
#X obj 561 264 r noteTypel;
#X obj 691 307 bng 20 250 50 0 empty empty empty 17 7 0 10 -191407
-1 -1;
#X obj 734 306 bng 20 250 50 0 empty empty empty 17 7 0 10 -191407
-1 -1;
#X obj 777 306 bng 20 250 50 0 empty empty empty 17 7 0 10 -191407
-1 -1;
#X obj 820 306 bng 20 250 50 0 empty empty empty 17 7 0 10 -191407
-1 -1;
#X text 705 271 Send rhythm to...;
#X obj 691 329 s CRb;
#X obj 734 329 s PRb;
#X obj 777 329 s TRb;
#X obj 820 329 s DRb;
#X text 689 290 ch;
#X text 732 289 ph;
#X text 775 290 tr;
#X text 818 289 dl;
#X obj 4 234 s~ toFX;
#X obj 50 331 loadbang;
#X msg 13 452 symbol /home/pi/Documents/pd-patches/fx_rig/presets/default.fxp
;
#X obj 13 413 t b s;
#X msg 13 372 symbol /home/pi/Documents/pd-patches/fx_rig/presets/
;
#X obj 13 392 savepanel;
#X msg 13 432 set symbol \$1;
#X connect 0 0 1 1;
#X connect 0 0 2 0;
#X connect 1 0 111 0;
#X connect 2 0 53 0;
#X connect 4 0 5 0;
#X connect 4 0 6 1;
#X connect 4 0 9 1;
#X connect 5 0 54 0;
#X connect 6 0 3 0;
#X connect 6 0 3 1;
#X connect 6 0 28 0;
#X connect 7 0 8 0;
#X connect 11 0 47 0;
#X connect 12 0 48 0;
#X connect 13 0 49 0;
#X connect 14 0 50 0;
#X connect 15 0 51 0;
#X connect 16 0 68 0;
#X connect 23 0 41 0;
#X connect 24 0 42 0;
#X connect 25 0 43 0;
#X connect 26 0 45 0;
#X connect 27 0 44 0;
#X connect 29 0 30 0;
#X connect 30 0 31 0;
#X connect 31 0 76 0;
#X connect 33 0 32 0;
#X connect 36 0 37 0;
#X connect 39 0 38 0;
#X connect 40 0 6 0;
#X connect 41 0 11 0;
#X connect 42 0 12 0;
#X connect 43 0 13 0;
#X connect 44 0 14 0;
#X connect 45 0 15 0;
#X connect 46 0 16 0;
#X connect 55 0 0 0;
#X connect 56 0 4 0;
#X connect 57 0 11 0;
#X connect 58 0 12 0;
#X connect 59 0 13 0;
#X connect 60 0 14 0;
#X connect 61 0 15 0;
#X connect 62 0 7 0;
#X connect 64 0 117 0;
#X connect 65 0 115 0;
#X connect 66 0 16 0;
#X connect 67 0 46 0;
#X connect 69 0 39 0;
#X connect 70 0 71 0;
#X connect 73 0 1 0;
#X connect 74 0 6 0;
#X connect 75 0 9 0;
#X connect 79 0 81 0;
#X connect 81 0 80 0;
#X connect 82 0 94 0;
#X connect 90 0 95 0;
#X connect 96 0 82 0;
#X connect 97 0 90 0;
#X connect 98 0 103 0;
#X connect 99 0 104 0;
#X connect 100 0 105 0;
#X connect 101 0 106 0;
#X connect 112 0 117 0;
#X connect 113 0 63 0;
#X connect 114 0 113 0;
#X connect 114 1 117 0;
#X connect 115 0 116 0;
#X connect 116 0 114 0;
#X connect 117 0 113 0;
