#N canvas 217 81 1147 648 10;
#X obj 485 196 plugin~ AmpVTS;
#X obj 479 248 plugin~ ChorusI;
#X obj 473 311 plugin~ PhaserII;
#X obj 435 460 plugin~ delay_5s;
#X obj 545 506 send~ fb;
#X obj 504 394 receive~ fb;
#X obj 576 120 inlet~;
#X obj 696 630 outlet~;
#N canvas 337 305 926 412 controlTone 1;
#X obj 409 20 inlet;
#X obj 416 374 outlet;
#X obj 409 46 unpack f f;
#X obj 371 164 tgl 15 0 empty empty empty 17 7 0 10 -262144 -1 -1 0
1;
#X obj 389 164 tgl 15 0 empty empty empty 17 7 0 10 -262144 -1 -1 0
1;
#X obj 408 164 tgl 15 0 empty empty empty 17 7 0 10 -262144 -1 -1 0
1;
#X obj 427 164 tgl 15 0 empty empty empty 17 7 0 10 -262144 -1 -1 1
1;
#X floatatom 403 118 5 0 0 0 - - -, f 5;
#X obj 371 69 t f b;
#X obj 42 275 / 63.5;
#X msg 42 316 control #1 \$1;
#X text 39 206 overdrive;
#X obj 42 250 spigot;
#X obj 149 250 spigot;
#X msg 149 316 control #2 \$1;
#X obj 149 275 / 127;
#X text 155 204 gain;
#X text 254 204 bright;
#X text 364 204 power;
#X text 450 205 tonestack;
#X text 576 205 bass;
#X text 688 205 mid;
#X text 783 203 treble;
#X obj 256 251 spigot;
#X obj 256 276 / 127;
#X msg 256 317 control #3 \$1;
#X obj 362 251 spigot;
#X obj 362 276 / 127;
#X msg 362 317 control #4 \$1;
#X obj 468 251 spigot;
#X msg 468 317 control #5 \$1;
#X obj 575 251 spigot;
#X obj 575 276 / 127;
#X msg 575 317 control #6 \$1;
#X obj 468 276 / 15.875;
#X obj 681 251 spigot;
#X msg 681 317 control #7 \$1;
#X obj 787 251 spigot;
#X msg 787 317 control #8 \$1;
#X obj 371 139 select 0 1 2 3 4 5 6 7;
#X obj 446 164 tgl 15 0 empty empty empty 17 7 0 10 -262144 -1 -1 0
1;
#X obj 465 164 tgl 15 0 empty empty empty 17 7 0 10 -262144 -1 -1 0
1;
#X obj 484 164 tgl 15 0 empty empty empty 17 7 0 10 -262144 -1 -1 0
1;
#X obj 503 164 tgl 15 0 empty empty empty 17 7 0 10 -262144 -1 -1 0
1;
#X floatatom 59 297 5 0 0 0 - - -, f 5;
#X floatatom 156 297 5 0 0 0 - - -, f 5;
#X floatatom 264 298 5 0 0 0 - - -, f 5;
#X floatatom 370 298 5 0 0 0 - - -, f 5;
#X floatatom 583 298 5 0 0 0 - - -, f 5;
#X floatatom 476 298 5 0 0 0 - - -, f 5;
#X msg 416 96 set \$1;
#X obj 476 67 s valT;
#X obj 42 225 r valT;
#X obj 149 225 r valT;
#X obj 256 226 r valT;
#X obj 362 226 r valT;
#X obj 468 226 r valT;
#X obj 575 226 r valT;
#X obj 681 226 r valT;
#X obj 787 226 r valT;
#X floatatom 700 299 5 0 0 0 - - -, f 5;
#X floatatom 815 298 5 0 0 0 - - -, f 5;
#X obj 787 276 / 127;
#X obj 681 276 / 127;
#X obj 308 69 loadbang;
#X connect 0 0 2 0;
#X connect 2 0 8 0;
#X connect 2 1 51 0;
#X connect 3 0 12 1;
#X connect 4 0 13 1;
#X connect 5 0 23 1;
#X connect 6 0 26 1;
#X connect 7 0 39 0;
#X connect 8 0 50 0;
#X connect 8 0 39 0;
#X connect 8 1 7 0;
#X connect 9 0 10 0;
#X connect 9 0 44 0;
#X connect 10 0 1 0;
#X connect 12 0 9 0;
#X connect 13 0 15 0;
#X connect 14 0 1 0;
#X connect 15 0 14 0;
#X connect 15 0 45 0;
#X connect 23 0 24 0;
#X connect 24 0 25 0;
#X connect 24 0 46 0;
#X connect 25 0 1 0;
#X connect 26 0 27 0;
#X connect 27 0 28 0;
#X connect 27 0 47 0;
#X connect 28 0 1 0;
#X connect 29 0 34 0;
#X connect 30 0 1 0;
#X connect 31 0 32 0;
#X connect 32 0 33 0;
#X connect 32 0 48 0;
#X connect 33 0 1 0;
#X connect 34 0 30 0;
#X connect 34 0 49 0;
#X connect 35 0 63 0;
#X connect 36 0 1 0;
#X connect 37 0 62 0;
#X connect 38 0 1 0;
#X connect 39 0 3 0;
#X connect 39 1 4 0;
#X connect 39 2 5 0;
#X connect 39 3 6 0;
#X connect 39 4 40 0;
#X connect 39 5 41 0;
#X connect 39 6 42 0;
#X connect 39 7 43 0;
#X connect 40 0 29 1;
#X connect 41 0 31 1;
#X connect 42 0 35 1;
#X connect 43 0 37 1;
#X connect 50 0 7 0;
#X connect 52 0 12 0;
#X connect 53 0 13 0;
#X connect 54 0 23 0;
#X connect 55 0 26 0;
#X connect 56 0 29 0;
#X connect 57 0 31 0;
#X connect 58 0 35 0;
#X connect 59 0 37 0;
#X connect 62 0 38 0;
#X connect 62 0 61 0;
#X connect 63 0 36 0;
#X connect 63 0 60 0;
#X connect 64 0 3 0;
#X restore 376 122 pd controlTone;
#X obj 24 15 inlet;
#X obj 124 15 inlet;
#X obj 415 61 == 0;
#X obj 376 83 spigot;
#N canvas 139 262 792 459 controlChorus 1;
#X obj 409 20 inlet;
#X obj 416 357 outlet;
#X obj 409 46 unpack f f;
#X obj 371 164 tgl 15 0 empty empty empty 17 7 0 10 -262144 -1 -1 0
1;
#X obj 389 164 tgl 15 0 empty empty empty 17 7 0 10 -262144 -1 -1 0
1;
#X obj 408 164 tgl 15 0 empty empty empty 17 7 0 10 -262144 -1 -1 1
1;
#X obj 427 164 tgl 15 0 empty empty empty 17 7 0 10 -262144 -1 -1 0
1;
#X floatatom 403 118 5 0 0 0 - - -, f 5;
#X msg 416 96 set \$1;
#X obj 371 69 t f b;
#X obj 85 252 spigot;
#X obj 192 239 spigot;
#X obj 535 252 spigot;
#X msg 535 321 control #5 \$1;
#X obj 642 252 spigot;
#X obj 642 277 / 127;
#X msg 642 321 control #6 \$1;
#X obj 446 164 tgl 15 0 empty empty empty 17 7 0 10 -262144 -1 -1 0
1;
#X obj 465 164 tgl 15 0 empty empty empty 17 7 0 10 -262144 -1 -1 0
1;
#X obj 371 139 select 0 1 2 3 4 5;
#X text 188 195 t (ms);
#X text 86 208 blend;
#X text 517 206 fdfwd;
#X text 643 206 fdbk;
#X msg 85 321 control #4 \$1;
#X msg 192 321 control #1 \$1;
#X msg 299 322 control #2 \$1;
#X msg 405 322 control #3 \$1;
#X obj 85 277 / 127;
#X obj 192 281 + 2.5;
#X obj 299 239 spigot;
#X text 295 195 width (ms);
#X obj 404 238 spigot;
#X obj 404 260 / 45.5197;
#X obj 404 280 + 0.01;
#X text 400 194 rate (Hz);
#X obj 299 261 / 13.3684;
#X obj 192 261 / 3.3867;
#X obj 299 281 + 0.5;
#X obj 535 277 / 127;
#X floatatom 95 299 5 0 0 0 - - -, f 5;
#X floatatom 202 303 5 0 0 0 - - -, f 5;
#X floatatom 309 303 5 0 0 0 - - -, f 5;
#X floatatom 414 302 5 0 0 0 - - -, f 5;
#X floatatom 545 299 5 0 0 0 - - -, f 5;
#X floatatom 652 299 5 0 0 0 - - -, f 5;
#X obj 476 67 s valC;
#X obj 85 227 r valC;
#X obj 192 216 r valC;
#X obj 299 216 r valC;
#X obj 404 215 r valC;
#X obj 535 227 r valC;
#X obj 642 227 r valC;
#X obj 308 69 loadbang;
#X connect 0 0 2 0;
#X connect 2 0 9 0;
#X connect 2 1 46 0;
#X connect 3 0 10 1;
#X connect 4 0 11 1;
#X connect 5 0 30 1;
#X connect 6 0 32 1;
#X connect 7 0 19 0;
#X connect 8 0 7 0;
#X connect 9 0 8 0;
#X connect 9 0 19 0;
#X connect 9 1 7 0;
#X connect 10 0 28 0;
#X connect 11 0 37 0;
#X connect 12 0 39 0;
#X connect 13 0 1 0;
#X connect 14 0 15 0;
#X connect 15 0 16 0;
#X connect 15 0 45 0;
#X connect 16 0 1 0;
#X connect 17 0 12 1;
#X connect 18 0 14 1;
#X connect 19 0 3 0;
#X connect 19 1 4 0;
#X connect 19 2 5 0;
#X connect 19 3 6 0;
#X connect 19 4 17 0;
#X connect 19 5 18 0;
#X connect 24 0 1 0;
#X connect 25 0 1 0;
#X connect 26 0 1 0;
#X connect 27 0 1 0;
#X connect 28 0 24 0;
#X connect 28 0 40 0;
#X connect 29 0 25 0;
#X connect 29 0 41 0;
#X connect 30 0 36 0;
#X connect 32 0 33 0;
#X connect 33 0 34 0;
#X connect 34 0 27 0;
#X connect 34 0 43 0;
#X connect 36 0 38 0;
#X connect 37 0 29 0;
#X connect 38 0 26 0;
#X connect 38 0 42 0;
#X connect 39 0 13 0;
#X connect 39 0 44 0;
#X connect 47 0 10 0;
#X connect 48 0 11 0;
#X connect 49 0 30 0;
#X connect 50 0 32 0;
#X connect 51 0 12 0;
#X connect 52 0 14 0;
#X connect 53 0 3 0;
#X restore 146 181 pd controlChorus;
#N canvas 167 126 647 397 controlPhaser 1;
#X obj 286 16 inlet;
#X obj 295 340 outlet;
#X obj 286 42 unpack f f;
#X obj 248 160 tgl 15 0 empty empty empty 17 7 0 10 -262144 -1 -1 1
1;
#X obj 266 160 tgl 15 0 empty empty empty 17 7 0 10 -262144 -1 -1 0
1;
#X obj 285 160 tgl 15 0 empty empty empty 17 7 0 10 -262144 -1 -1 0
1;
#X obj 304 160 tgl 15 0 empty empty empty 17 7 0 10 -262144 -1 -1 0
1;
#X floatatom 280 114 5 0 0 0 - - -, f 5;
#X msg 293 92 set \$1;
#X obj 248 65 t f b;
#X obj 33 238 spigot;
#X obj 140 238 spigot;
#X obj 140 263 / 127;
#X obj 247 239 spigot;
#X obj 247 264 / 127;
#X obj 353 239 spigot;
#X obj 353 264 / 127;
#X msg 353 308 control #4 \$1;
#X obj 459 239 spigot;
#X msg 459 308 control #5 \$1;
#X obj 323 160 tgl 15 0 empty empty empty 17 7 0 10 -262144 -1 -1 0
1;
#X obj 248 135 select 0 1 2 3 4;
#X text 30 194 depth;
#X obj 33 263 / 127;
#X msg 33 307 control #3 \$1;
#X msg 140 307 control #1 \$1;
#X msg 247 308 control #2 \$1;
#X text 146 192 rate;
#X text 255 193 lfo;
#X text 349 193 spread;
#X text 444 197 resonance;
#X obj 459 264 / 127;
#X floatatom 43 285 5 0 0 0 - - -, f 5;
#X floatatom 150 285 5 0 0 0 - - -, f 5;
#X floatatom 257 286 5 0 0 0 - - -, f 5;
#X floatatom 363 286 5 0 0 0 - - -, f 5;
#X floatatom 469 286 5 0 0 0 - - -, f 5;
#X obj 353 63 s valP;
#X obj 33 213 r valP;
#X obj 140 213 r valP;
#X obj 247 214 r valP;
#X obj 353 214 r valP;
#X obj 459 214 r valP;
#X obj 182 65 loadbang;
#X connect 0 0 2 0;
#X connect 2 0 9 0;
#X connect 2 1 37 0;
#X connect 3 0 10 1;
#X connect 4 0 11 1;
#X connect 5 0 13 1;
#X connect 6 0 15 1;
#X connect 7 0 21 0;
#X connect 8 0 7 0;
#X connect 9 0 8 0;
#X connect 9 0 21 0;
#X connect 9 1 7 0;
#X connect 10 0 23 0;
#X connect 11 0 12 0;
#X connect 12 0 25 0;
#X connect 12 0 33 0;
#X connect 13 0 14 0;
#X connect 14 0 26 0;
#X connect 14 0 34 0;
#X connect 15 0 16 0;
#X connect 16 0 17 0;
#X connect 16 0 35 0;
#X connect 17 0 1 0;
#X connect 18 0 31 0;
#X connect 19 0 1 0;
#X connect 20 0 18 1;
#X connect 21 0 3 0;
#X connect 21 1 4 0;
#X connect 21 2 5 0;
#X connect 21 3 6 0;
#X connect 21 4 20 0;
#X connect 23 0 24 0;
#X connect 23 0 32 0;
#X connect 24 0 1 0;
#X connect 25 0 1 0;
#X connect 26 0 1 0;
#X connect 31 0 19 0;
#X connect 31 0 36 0;
#X connect 38 0 10 0;
#X connect 39 0 11 0;
#X connect 40 0 13 0;
#X connect 41 0 15 0;
#X connect 42 0 18 0;
#X connect 43 0 3 0;
#X restore 56 300 pd controlPhaser;
#N canvas 200 164 970 498 controlDelay 1;
#X obj 416 33 inlet;
#X obj 399 341 outlet;
#X obj 416 59 unpack f f;
#X obj 378 176 tgl 15 0 empty empty empty 17 7 0 10 -262144 -1 -1 0
1;
#X obj 405 175 tgl 15 0 empty empty empty 17 7 0 10 -262144 -1 -1 1
1;
#X floatatom 410 131 5 0 0 0 - - -, f 5;
#X msg 423 109 set \$1;
#X obj 378 82 t f b;
#X msg 339 309 control #1 \$1;
#X obj 339 240 spigot;
#X obj 446 240 spigot;
#X msg 446 309 control #2 \$1;
#X text 336 196 mix;
#X text 452 194 delay;
#X obj 339 265 / 127;
#X obj 446 265 / 25.4;
#X obj 483 80 s valD;
#X obj 339 215 r valD;
#X obj 446 215 r valD;
#X floatatom 349 287 5 0 0 0 - - -, f 5;
#X floatatom 456 287 5 0 0 0 - - -, f 5;
#X obj 308 82 loadbang;
#X obj 378 152 select 0 1 2;
#X obj 432 175 tgl 15 0 empty empty empty 17 7 0 10 -262144 -1 -1 0
1;
#X obj 564 245 spigot;
#X obj 564 220 r valD;
#X floatatom 574 292 5 0 0 0 - - -, f 5;
#X text 570 199 fb;
#X obj 564 270 / 127;
#X obj 574 312 s fbAmt;
#X connect 0 0 2 0;
#X connect 2 0 7 0;
#X connect 2 1 16 0;
#X connect 3 0 9 1;
#X connect 4 0 10 1;
#X connect 5 0 22 0;
#X connect 6 0 5 0;
#X connect 7 0 6 0;
#X connect 7 0 22 0;
#X connect 7 1 5 0;
#X connect 8 0 1 0;
#X connect 9 0 14 0;
#X connect 10 0 15 0;
#X connect 11 0 1 0;
#X connect 14 0 8 0;
#X connect 14 0 19 0;
#X connect 15 0 11 0;
#X connect 15 0 20 0;
#X connect 17 0 9 0;
#X connect 18 0 10 0;
#X connect 21 0 3 0;
#X connect 22 0 3 0;
#X connect 22 1 4 0;
#X connect 22 2 23 0;
#X connect 23 0 24 1;
#X connect 24 0 28 0;
#X connect 25 0 24 0;
#X connect 26 0 29 0;
#X connect 28 0 26 0;
#X restore 186 544 pd controlDelay;
#N canvas 324 199 937 501 controlVerb 0;
#X obj 409 20 inlet;
#X obj 409 46 unpack f f;
#X obj 371 164 tgl 15 0 empty empty empty 17 7 0 10 -262144 -1 -1 0
1;
#X obj 389 164 tgl 15 0 empty empty empty 17 7 0 10 -262144 -1 -1 0
1;
#X obj 408 164 tgl 15 0 empty empty empty 17 7 0 10 -262144 -1 -1 0
1;
#X obj 427 164 tgl 15 0 empty empty empty 17 7 0 10 -262144 -1 -1 0
1;
#X floatatom 403 118 5 0 0 0 - - -, f 5;
#X msg 416 96 set \$1;
#X obj 371 69 t f b;
#X obj 263 270 / 63.5;
#X obj 263 245 spigot;
#X obj 372 246 spigot;
#X obj 491 260 spigot;
#X text 260 201 blend;
#X text 374 199 bandwidth;
#X msg 372 327 control #3 \$1;
#X msg 491 325 control #4 \$1;
#X obj 615 241 spigot;
#X text 597 195 damping;
#X msg 615 327 control #4 \$1;
#X obj 415 357 outlet;
#X text 494 214 tail;
#X obj 491 285 / 127;
#X obj 372 290 + 0.005;
#X obj 615 266 / 127.064;
#X obj 615 290 + 0.0005;
#X msg 263 310 control #4 \$1;
#X obj 371 139 select 0 1 2 3;
#X obj 476 67 s valV;
#X obj 263 220 r valV;
#X obj 372 221 r valV;
#X obj 491 235 r valV;
#X obj 615 216 r valV;
#X floatatom 273 292 5 0 0 0 - - -, f 5;
#X floatatom 382 312 5 0 0 0 - - -, f 5;
#X floatatom 501 307 5 0 0 0 - - -, f 5;
#X floatatom 625 312 5 0 0 0 - - -, f 5;
#X obj 372 269 / 127.767;
#X obj 308 69 loadbang;
#X connect 0 0 1 0;
#X connect 1 0 8 0;
#X connect 1 1 28 0;
#X connect 2 0 10 1;
#X connect 3 0 11 1;
#X connect 4 0 12 1;
#X connect 5 0 17 1;
#X connect 6 0 27 0;
#X connect 7 0 6 0;
#X connect 8 0 7 0;
#X connect 8 0 27 0;
#X connect 8 1 6 0;
#X connect 9 0 26 0;
#X connect 9 0 33 0;
#X connect 10 0 9 0;
#X connect 11 0 37 0;
#X connect 12 0 22 0;
#X connect 15 0 20 0;
#X connect 16 0 20 0;
#X connect 17 0 24 0;
#X connect 19 0 20 0;
#X connect 22 0 16 0;
#X connect 22 0 35 0;
#X connect 23 0 15 0;
#X connect 23 0 34 0;
#X connect 24 0 25 0;
#X connect 25 0 19 0;
#X connect 25 0 36 0;
#X connect 26 0 20 0;
#X connect 27 0 2 0;
#X connect 27 1 3 0;
#X connect 27 2 4 0;
#X connect 27 3 5 0;
#X connect 29 0 10 0;
#X connect 30 0 11 0;
#X connect 31 0 12 0;
#X connect 32 0 17 0;
#X connect 37 0 23 0;
#X connect 38 0 2 0;
#X restore 461 646 pd controlVerb;
#X obj 146 156 spigot;
#X obj 56 275 spigot;
#X obj 74 410 spigot;
#X obj 186 519 spigot;
#X obj 461 624 spigot;
#X obj 24 41 s pluginNum;
#X obj 124 41 s ctrlData;
#X obj 415 37 r pluginNum;
#X obj 113 361 r pluginNum;
#X obj 95 229 r pluginNum;
#X obj 225 472 r pluginNum;
#X obj 500 577 r pluginNum;
#X obj 185 108 r pluginNum;
#X obj 336 37 r ctrlData;
#X obj 17 229 r ctrlData;
#X obj 106 108 r ctrlData;
#X obj 34 361 r ctrlData;
#X obj 146 472 r ctrlData;
#X obj 421 577 r ctrlData;
#X obj 646 557 plugin~ PlateX2;
#X obj 754 630 outlet~;
#N canvas 227 174 403 512 tremolo 0;
#X obj 12 6 inlet;
#X obj 126 46 unpack f f;
#X obj 88 163 tgl 15 0 empty empty empty 17 7 0 10 -262144 -1 -1 0
1;
#X obj 121 163 tgl 15 0 empty empty empty 17 7 0 10 -262144 -1 -1 1
1;
#X floatatom 120 118 5 0 0 0 - - -, f 5;
#X msg 133 96 set \$1;
#X obj 88 69 t f b;
#X obj 49 227 spigot;
#X obj 132 228 spigot;
#X obj 88 139 select 0 1;
#X text 46 183 mix;
#X text 138 184 delay;
#X obj 49 252 / 127;
#X obj 84 368 inlet~;
#X obj 164 278 / 9.7692;
#X obj 132 327 osc~;
#X obj 132 303 pow;
#X msg 132 278 2;
#X obj 132 252 t b f;
#X obj 133 362 *~;
#X obj 116 401 *~;
#X obj 115 424 outlet~;
#X obj 28 421 outlet;
#X floatatom 48 316 5 0 0 0 - - -, f 5;
#X floatatom 183 327 5 0 0 0 - - -, f 5;
#X obj 193 67 s valAM;
#X obj 49 202 r valAM;
#X obj 132 205 r valAM;
#X obj 20 139 loadbang;
#X connect 0 0 1 0;
#X connect 1 0 6 0;
#X connect 1 1 25 0;
#X connect 2 0 7 1;
#X connect 3 0 8 1;
#X connect 4 0 9 0;
#X connect 5 0 4 0;
#X connect 6 0 5 0;
#X connect 6 0 9 0;
#X connect 6 1 4 0;
#X connect 7 0 12 0;
#X connect 8 0 18 0;
#X connect 9 0 2 0;
#X connect 9 1 3 0;
#X connect 12 0 19 1;
#X connect 12 0 23 0;
#X connect 13 0 20 0;
#X connect 14 0 16 1;
#X connect 15 0 19 0;
#X connect 16 0 15 0;
#X connect 16 0 24 0;
#X connect 17 0 16 0;
#X connect 18 0 17 0;
#X connect 18 1 14 0;
#X connect 19 0 20 1;
#X connect 20 0 21 0;
#X connect 26 0 7 0;
#X connect 27 0 8 0;
#X connect 28 0 2 0;
#X restore 514 365 pd tremolo;
#X obj 185 132 == 2;
#X obj 95 251 == 4;
#X obj 113 384 == 5;
#X obj 225 495 == 7;
#X obj 500 600 == 9;
#X floatatom 123 273 5 0 0 0 - - -, f 5;
#X floatatom 146 404 5 0 0 0 - - -, f 5;
#X floatatom 265 514 5 0 0 0 - - -, f 5;
#X floatatom 520 584 5 0 0 0 - - -, f 5;
#X floatatom 200 155 5 0 0 0 - - -, f 5;
#X floatatom 434 86 5 0 0 0 - - -, f 5;
#X obj 694 92 tgl 15 0 empty empty empty 17 7 0 10 -262144 -1 -1 1
1;
#X obj 747 117 tgl 15 0 empty empty empty 17 7 0 10 -262144 -1 -1 1
1;
#X obj 792 86 tgl 15 0 empty empty empty 17 7 0 10 -262144 -1 -1 1
1;
#X obj 848 104 tgl 15 0 empty empty empty 17 7 0 10 -262144 -1 -1 1
1;
#X obj 913 75 tgl 15 0 empty empty empty 17 7 0 10 -262144 -1 -1 1
1;
#X obj 974 109 tgl 15 0 empty empty empty 17 7 0 10 -262144 -1 -1 1
1;
#X obj 669 146 == 0;
#X obj 726 362 == 0;
#X obj 717 311 == 0;
#X obj 800 414 == 0;
#X obj 676 191 == 0;
#X obj 693 243 == 0;
#X obj 651 169 *~;
#X obj 617 168 *~;
#X obj 669 217 *~;
#X obj 635 221 *~;
#X obj 693 290 *~;
#X obj 652 287 *~;
#X obj 702 339 *~;
#X obj 674 340 *~;
#X obj 730 503 *~;
#X obj 699 505 *~;
#X obj 724 408 *~;
#X obj 684 409 *~;
#X obj 523 414 r fbAmt;
#X obj 505 436 *~;
#X text 667 71 C tone;
#X text 720 93 D chorus;
#X text 782 65 E phase;
#X text 830 85 F tremolo;
#X text 902 57 G delay;
#X text 964 85 A reverb;
#X connect 0 1 65 0;
#X connect 0 1 64 0;
#X connect 1 1 67 0;
#X connect 1 1 66 0;
#X connect 2 1 69 0;
#X connect 2 1 68 0;
#X connect 3 1 4 0;
#X connect 3 1 71 0;
#X connect 3 1 70 0;
#X connect 5 0 75 0;
#X connect 6 0 63 0;
#X connect 6 0 62 0;
#X connect 8 0 0 0;
#X connect 9 0 22 0;
#X connect 10 0 23 0;
#X connect 11 0 12 1;
#X connect 11 0 49 0;
#X connect 12 0 8 0;
#X connect 13 0 1 0;
#X connect 14 0 2 0;
#X connect 15 0 3 0;
#X connect 16 0 36 0;
#X connect 17 0 13 0;
#X connect 18 0 14 0;
#X connect 19 0 38 0;
#X connect 20 0 15 0;
#X connect 21 0 16 0;
#X connect 24 0 11 0;
#X connect 25 0 41 0;
#X connect 26 0 40 0;
#X connect 27 0 42 0;
#X connect 28 0 43 0;
#X connect 29 0 39 0;
#X connect 30 0 12 0;
#X connect 31 0 18 0;
#X connect 32 0 17 0;
#X connect 33 0 19 0;
#X connect 34 0 20 0;
#X connect 35 0 21 0;
#X connect 36 1 7 0;
#X connect 36 2 37 0;
#X connect 38 1 73 0;
#X connect 38 1 72 0;
#X connect 39 0 17 1;
#X connect 39 0 48 0;
#X connect 40 0 18 1;
#X connect 40 0 44 0;
#X connect 41 0 19 1;
#X connect 41 0 45 0;
#X connect 42 0 20 1;
#X connect 42 0 46 0;
#X connect 43 0 21 1;
#X connect 43 0 47 0;
#X connect 50 0 56 0;
#X connect 50 0 63 1;
#X connect 51 0 60 0;
#X connect 51 0 65 1;
#X connect 52 0 61 0;
#X connect 52 0 67 1;
#X connect 53 0 58 0;
#X connect 53 0 69 1;
#X connect 54 0 57 0;
#X connect 54 0 73 1;
#X connect 55 0 59 0;
#X connect 55 0 71 1;
#X connect 56 0 62 1;
#X connect 57 0 72 1;
#X connect 58 0 68 1;
#X connect 59 0 70 1;
#X connect 60 0 64 1;
#X connect 61 0 66 1;
#X connect 62 0 65 0;
#X connect 62 0 64 0;
#X connect 63 0 0 1;
#X connect 64 0 67 0;
#X connect 64 0 66 0;
#X connect 65 0 1 1;
#X connect 66 0 69 0;
#X connect 66 0 68 0;
#X connect 67 0 2 1;
#X connect 68 0 73 0;
#X connect 68 0 72 0;
#X connect 69 0 38 1;
#X connect 70 0 7 0;
#X connect 71 0 36 1;
#X connect 71 0 36 2;
#X connect 72 0 71 0;
#X connect 72 0 70 0;
#X connect 73 0 3 1;
#X connect 74 0 75 1;
#X connect 75 0 3 1;
