#N canvas 30 81 1351 445 10;
#X obj 17 10 inlet~;
#X obj 91 337 == 0;
#X obj 21 362 *~;
#X obj 73 362 *~;
#X obj 22 386 s~ in1;
#X obj 72 385 s~ in2;
#X obj 18 34 s~ out0;
#X obj 22 337 r~ out0;
#X obj 207 337 == 0;
#X obj 137 362 *~;
#X obj 189 362 *~;
#X obj 138 337 r~ out1;
#X obj 138 386 s~ in2;
#X obj 188 385 s~ in3;
#X obj 76 157 plugin~ AmpVTS;
#X obj 258 159 plugin~ ChorusI;
#X obj 436 159 plugin~ PhaserII;
#X obj 787 224 plugin~ delay_5s;
#X obj 1017 201 outlet~;
#N canvas 334 309 926 412 controlTone 0;
#X obj 409 20 inlet;
#X obj 416 374 outlet;
#X obj 409 46 unpack f f;
#X obj 371 164 tgl 15 0 empty empty empty 17 7 0 10 -262144 -1 -1 1
1;
#X obj 389 164 tgl 15 0 empty empty empty 17 7 0 10 -262144 -1 -1 0
1;
#X obj 408 164 tgl 15 0 empty empty empty 17 7 0 10 -262144 -1 -1 0
1;
#X obj 427 164 tgl 15 0 empty empty empty 17 7 0 10 -262144 -1 -1 0
1;
#X floatatom 403 118 5 0 0 0 - - -, f 5;
#X obj 371 69 t f b;
#X obj 42 275 / 63.5;
#X msg 42 316 control #1 \$1;
#X text 39 206 overdrive;
#X obj 42 250 spigot;
#X obj 149 250 spigot;
#X msg 149 316 control #2 \$1;
#X obj 149 275 / 127;
#X text 155 204 gain;
#X text 254 204 bright;
#X text 364 204 power;
#X text 450 205 tonestack;
#X text 576 205 bass;
#X text 688 205 mid;
#X text 783 203 treble;
#X obj 256 251 spigot;
#X obj 256 276 / 127;
#X msg 256 317 control #3 \$1;
#X obj 362 251 spigot;
#X obj 362 276 / 127;
#X msg 362 317 control #4 \$1;
#X obj 468 251 spigot;
#X msg 468 317 control #5 \$1;
#X obj 575 251 spigot;
#X obj 575 276 / 127;
#X msg 575 317 control #6 \$1;
#X obj 468 276 / 15.875;
#X obj 681 251 spigot;
#X msg 681 317 control #7 \$1;
#X obj 787 251 spigot;
#X msg 787 317 control #8 \$1;
#X obj 371 139 select 0 1 2 3 4 5 6 7;
#X obj 446 164 tgl 15 0 empty empty empty 17 7 0 10 -262144 -1 -1 0
1;
#X obj 465 164 tgl 15 0 empty empty empty 17 7 0 10 -262144 -1 -1 0
1;
#X obj 484 164 tgl 15 0 empty empty empty 17 7 0 10 -262144 -1 -1 0
1;
#X obj 503 164 tgl 15 0 empty empty empty 17 7 0 10 -262144 -1 -1 0
1;
#X floatatom 59 297 5 0 0 0 - - -, f 5;
#X floatatom 156 297 5 0 0 0 - - -, f 5;
#X floatatom 264 298 5 0 0 0 - - -, f 5;
#X floatatom 370 298 5 0 0 0 - - -, f 5;
#X floatatom 583 298 5 0 0 0 - - -, f 5;
#X floatatom 476 298 5 0 0 0 - - -, f 5;
#X msg 416 96 set \$1;
#X obj 476 67 s valT;
#X obj 42 225 r valT;
#X obj 149 225 r valT;
#X obj 256 226 r valT;
#X obj 362 226 r valT;
#X obj 468 226 r valT;
#X obj 575 226 r valT;
#X obj 681 226 r valT;
#X obj 787 226 r valT;
#X floatatom 700 299 5 0 0 0 - - -, f 5;
#X floatatom 815 298 5 0 0 0 - - -, f 5;
#X obj 787 276 / 127;
#X obj 681 276 / 127;
#X obj 308 69 loadbang;
#X connect 0 0 2 0;
#X connect 2 0 8 0;
#X connect 2 1 51 0;
#X connect 3 0 12 1;
#X connect 4 0 13 1;
#X connect 5 0 23 1;
#X connect 6 0 26 1;
#X connect 7 0 39 0;
#X connect 8 0 50 0;
#X connect 8 0 39 0;
#X connect 8 1 7 0;
#X connect 9 0 10 0;
#X connect 9 0 44 0;
#X connect 10 0 1 0;
#X connect 12 0 9 0;
#X connect 13 0 15 0;
#X connect 14 0 1 0;
#X connect 15 0 14 0;
#X connect 15 0 45 0;
#X connect 23 0 24 0;
#X connect 24 0 25 0;
#X connect 24 0 46 0;
#X connect 25 0 1 0;
#X connect 26 0 27 0;
#X connect 27 0 28 0;
#X connect 27 0 47 0;
#X connect 28 0 1 0;
#X connect 29 0 34 0;
#X connect 30 0 1 0;
#X connect 31 0 32 0;
#X connect 32 0 33 0;
#X connect 32 0 48 0;
#X connect 33 0 1 0;
#X connect 34 0 30 0;
#X connect 34 0 49 0;
#X connect 35 0 63 0;
#X connect 36 0 1 0;
#X connect 37 0 62 0;
#X connect 38 0 1 0;
#X connect 39 0 3 0;
#X connect 39 1 4 0;
#X connect 39 2 5 0;
#X connect 39 3 6 0;
#X connect 39 4 40 0;
#X connect 39 5 41 0;
#X connect 39 6 42 0;
#X connect 39 7 43 0;
#X connect 40 0 29 1;
#X connect 41 0 31 1;
#X connect 42 0 35 1;
#X connect 43 0 37 1;
#X connect 50 0 7 0;
#X connect 52 0 12 0;
#X connect 53 0 13 0;
#X connect 54 0 23 0;
#X connect 55 0 26 0;
#X connect 56 0 29 0;
#X connect 57 0 31 0;
#X connect 58 0 35 0;
#X connect 59 0 37 0;
#X connect 62 0 38 0;
#X connect 62 0 61 0;
#X connect 63 0 36 0;
#X connect 63 0 60 0;
#X connect 64 0 3 0;
#X restore 58 134 pd controlTone;
#X obj 97 87 == 0;
#X obj 58 109 spigot;
#N canvas 139 262 792 459 controlChorus 0;
#X obj 409 20 inlet;
#X obj 416 357 outlet;
#X obj 409 46 unpack f f;
#X obj 371 164 tgl 15 0 empty empty empty 17 7 0 10 -262144 -1 -1 1
1;
#X obj 389 164 tgl 15 0 empty empty empty 17 7 0 10 -262144 -1 -1 0
1;
#X obj 408 164 tgl 15 0 empty empty empty 17 7 0 10 -262144 -1 -1 0
1;
#X obj 427 164 tgl 15 0 empty empty empty 17 7 0 10 -262144 -1 -1 0
1;
#X floatatom 403 118 5 0 0 0 - - -, f 5;
#X msg 416 96 set \$1;
#X obj 371 69 t f b;
#X obj 85 252 spigot;
#X obj 192 239 spigot;
#X obj 535 252 spigot;
#X msg 535 321 control #5 \$1;
#X obj 642 252 spigot;
#X obj 642 277 / 127;
#X msg 642 321 control #6 \$1;
#X obj 446 164 tgl 15 0 empty empty empty 17 7 0 10 -262144 -1 -1 0
1;
#X obj 465 164 tgl 15 0 empty empty empty 17 7 0 10 -262144 -1 -1 0
1;
#X obj 371 139 select 0 1 2 3 4 5;
#X text 188 195 t (ms);
#X text 86 208 blend;
#X text 517 206 fdfwd;
#X text 643 206 fdbk;
#X msg 85 321 control #4 \$1;
#X msg 192 321 control #1 \$1;
#X msg 299 322 control #2 \$1;
#X msg 405 322 control #3 \$1;
#X obj 85 277 / 127;
#X obj 192 281 + 2.5;
#X obj 299 239 spigot;
#X text 295 195 width (ms);
#X obj 404 238 spigot;
#X obj 404 260 / 45.5197;
#X obj 404 280 + 0.01;
#X text 400 194 rate (Hz);
#X obj 299 261 / 13.3684;
#X obj 192 261 / 3.3867;
#X obj 299 281 + 0.5;
#X obj 535 277 / 127;
#X floatatom 95 299 5 0 0 0 - - -, f 5;
#X floatatom 202 303 5 0 0 0 - - -, f 5;
#X floatatom 309 303 5 0 0 0 - - -, f 5;
#X floatatom 414 302 5 0 0 0 - - -, f 5;
#X floatatom 545 299 5 0 0 0 - - -, f 5;
#X floatatom 652 299 5 0 0 0 - - -, f 5;
#X obj 476 67 s valC;
#X obj 85 227 r valC;
#X obj 192 216 r valC;
#X obj 299 216 r valC;
#X obj 404 215 r valC;
#X obj 535 227 r valC;
#X obj 642 227 r valC;
#X obj 308 69 loadbang;
#X connect 0 0 2 0;
#X connect 2 0 9 0;
#X connect 2 1 46 0;
#X connect 3 0 10 1;
#X connect 4 0 11 1;
#X connect 5 0 30 1;
#X connect 6 0 32 1;
#X connect 7 0 19 0;
#X connect 8 0 7 0;
#X connect 9 0 8 0;
#X connect 9 0 19 0;
#X connect 9 1 7 0;
#X connect 10 0 28 0;
#X connect 11 0 37 0;
#X connect 12 0 39 0;
#X connect 13 0 1 0;
#X connect 14 0 15 0;
#X connect 15 0 16 0;
#X connect 15 0 45 0;
#X connect 16 0 1 0;
#X connect 17 0 12 1;
#X connect 18 0 14 1;
#X connect 19 0 3 0;
#X connect 19 1 4 0;
#X connect 19 2 5 0;
#X connect 19 3 6 0;
#X connect 19 4 17 0;
#X connect 19 5 18 0;
#X connect 24 0 1 0;
#X connect 25 0 1 0;
#X connect 26 0 1 0;
#X connect 27 0 1 0;
#X connect 28 0 24 0;
#X connect 28 0 40 0;
#X connect 29 0 25 0;
#X connect 29 0 41 0;
#X connect 30 0 36 0;
#X connect 32 0 33 0;
#X connect 33 0 34 0;
#X connect 34 0 27 0;
#X connect 34 0 43 0;
#X connect 36 0 38 0;
#X connect 37 0 29 0;
#X connect 38 0 26 0;
#X connect 38 0 42 0;
#X connect 39 0 13 0;
#X connect 39 0 44 0;
#X connect 47 0 10 0;
#X connect 48 0 11 0;
#X connect 49 0 30 0;
#X connect 50 0 32 0;
#X connect 51 0 12 0;
#X connect 52 0 14 0;
#X connect 53 0 3 0;
#X restore 240 136 pd controlChorus;
#N canvas 167 126 647 397 controlPhaser 0;
#X obj 286 16 inlet;
#X obj 295 340 outlet;
#X obj 286 42 unpack f f;
#X obj 248 160 tgl 15 0 empty empty empty 17 7 0 10 -262144 -1 -1 1
1;
#X obj 266 160 tgl 15 0 empty empty empty 17 7 0 10 -262144 -1 -1 0
1;
#X obj 285 160 tgl 15 0 empty empty empty 17 7 0 10 -262144 -1 -1 0
1;
#X obj 304 160 tgl 15 0 empty empty empty 17 7 0 10 -262144 -1 -1 0
1;
#X floatatom 280 114 5 0 0 0 - - -, f 5;
#X msg 293 92 set \$1;
#X obj 248 65 t f b;
#X obj 33 238 spigot;
#X obj 140 238 spigot;
#X obj 140 263 / 127;
#X obj 247 239 spigot;
#X obj 247 264 / 127;
#X obj 353 239 spigot;
#X obj 353 264 / 127;
#X msg 353 308 control #4 \$1;
#X obj 459 239 spigot;
#X msg 459 308 control #5 \$1;
#X obj 323 160 tgl 15 0 empty empty empty 17 7 0 10 -262144 -1 -1 0
1;
#X obj 248 135 select 0 1 2 3 4;
#X text 30 194 depth;
#X obj 33 263 / 127;
#X msg 33 307 control #3 \$1;
#X msg 140 307 control #1 \$1;
#X msg 247 308 control #2 \$1;
#X text 146 192 rate;
#X text 255 193 lfo;
#X text 349 193 spread;
#X text 444 197 resonance;
#X obj 459 264 / 127;
#X floatatom 43 285 5 0 0 0 - - -, f 5;
#X floatatom 150 285 5 0 0 0 - - -, f 5;
#X floatatom 257 286 5 0 0 0 - - -, f 5;
#X floatatom 363 286 5 0 0 0 - - -, f 5;
#X floatatom 469 286 5 0 0 0 - - -, f 5;
#X obj 353 63 s valP;
#X obj 33 213 r valP;
#X obj 140 213 r valP;
#X obj 247 214 r valP;
#X obj 353 214 r valP;
#X obj 459 214 r valP;
#X obj 182 65 loadbang;
#X connect 0 0 2 0;
#X connect 2 0 9 0;
#X connect 2 1 37 0;
#X connect 3 0 10 1;
#X connect 4 0 11 1;
#X connect 5 0 13 1;
#X connect 6 0 15 1;
#X connect 7 0 21 0;
#X connect 8 0 7 0;
#X connect 9 0 8 0;
#X connect 9 0 21 0;
#X connect 9 1 7 0;
#X connect 10 0 23 0;
#X connect 11 0 12 0;
#X connect 12 0 25 0;
#X connect 12 0 33 0;
#X connect 13 0 14 0;
#X connect 14 0 26 0;
#X connect 14 0 34 0;
#X connect 15 0 16 0;
#X connect 16 0 17 0;
#X connect 16 0 35 0;
#X connect 17 0 1 0;
#X connect 18 0 31 0;
#X connect 19 0 1 0;
#X connect 20 0 18 1;
#X connect 21 0 3 0;
#X connect 21 1 4 0;
#X connect 21 2 5 0;
#X connect 21 3 6 0;
#X connect 21 4 20 0;
#X connect 23 0 24 0;
#X connect 23 0 32 0;
#X connect 24 0 1 0;
#X connect 25 0 1 0;
#X connect 26 0 1 0;
#X connect 31 0 19 0;
#X connect 31 0 36 0;
#X connect 38 0 10 0;
#X connect 39 0 11 0;
#X connect 40 0 13 0;
#X connect 41 0 15 0;
#X connect 42 0 18 0;
#X connect 43 0 3 0;
#X restore 424 134 pd controlPhaser;
#N canvas 197 168 970 498 controlDelay 0;
#X obj 416 33 inlet;
#X obj 399 341 outlet;
#X obj 416 59 unpack f f;
#X obj 378 176 tgl 15 0 empty empty empty 17 7 0 10 -262144 -1 -1 1
1;
#X obj 405 175 tgl 15 0 empty empty empty 17 7 0 10 -262144 -1 -1 0
1;
#X floatatom 410 131 5 0 0 0 - - -, f 5;
#X msg 423 109 set \$1;
#X obj 378 82 t f b;
#X obj 339 240 spigot;
#X obj 446 240 spigot;
#X text 336 196 mix;
#X text 452 194 delay;
#X obj 339 265 / 127;
#X obj 446 265 / 25.4;
#X obj 483 80 s valD;
#X obj 339 215 r valD;
#X obj 446 215 r valD;
#X floatatom 349 287 5 0 0 0 - - -, f 5;
#X floatatom 456 287 5 0 0 0 - - -, f 5;
#X obj 308 82 loadbang;
#X obj 378 152 select 0 1 2;
#X obj 432 175 tgl 15 0 empty empty empty 17 7 0 10 -262144 -1 -1 0
1;
#X obj 564 245 spigot;
#X obj 564 220 r valD;
#X floatatom 574 292 5 0 0 0 - - -, f 5;
#X text 570 199 fb;
#X obj 564 270 / 127;
#X obj 574 312 s fbAmt;
#X msg 339 309 control #2 \$1;
#X msg 446 309 control #1 \$1;
#X connect 0 0 2 0;
#X connect 2 0 7 0;
#X connect 2 1 14 0;
#X connect 3 0 8 1;
#X connect 4 0 9 1;
#X connect 5 0 20 0;
#X connect 6 0 5 0;
#X connect 7 0 6 0;
#X connect 7 0 20 0;
#X connect 7 1 5 0;
#X connect 8 0 12 0;
#X connect 9 0 13 0;
#X connect 12 0 28 0;
#X connect 12 0 17 0;
#X connect 13 0 29 0;
#X connect 13 0 18 0;
#X connect 15 0 8 0;
#X connect 16 0 9 0;
#X connect 19 0 3 0;
#X connect 20 0 3 0;
#X connect 20 1 4 0;
#X connect 20 2 21 0;
#X connect 21 0 22 1;
#X connect 22 0 26 0;
#X connect 23 0 22 0;
#X connect 24 0 27 0;
#X connect 26 0 24 0;
#X connect 28 0 1 0;
#X connect 29 0 1 0;
#X restore 787 135 pd controlDelay;
#N canvas 324 199 937 501 controlVerb 0;
#X obj 409 20 inlet;
#X obj 409 46 unpack f f;
#X obj 371 164 tgl 15 0 empty empty empty 17 7 0 10 -262144 -1 -1 1
1;
#X obj 389 164 tgl 15 0 empty empty empty 17 7 0 10 -262144 -1 -1 0
1;
#X obj 408 164 tgl 15 0 empty empty empty 17 7 0 10 -262144 -1 -1 0
1;
#X obj 427 164 tgl 15 0 empty empty empty 17 7 0 10 -262144 -1 -1 0
1;
#X floatatom 403 118 5 0 0 0 - - -, f 5;
#X msg 416 96 set \$1;
#X obj 371 69 t f b;
#X obj 263 270 / 63.5;
#X obj 263 245 spigot;
#X obj 372 246 spigot;
#X obj 491 260 spigot;
#X text 260 201 blend;
#X text 374 199 bandwidth;
#X msg 372 327 control #3 \$1;
#X msg 491 325 control #4 \$1;
#X obj 615 241 spigot;
#X text 597 195 damping;
#X msg 615 327 control #4 \$1;
#X obj 415 357 outlet;
#X text 494 214 tail;
#X obj 491 285 / 127;
#X obj 372 290 + 0.005;
#X obj 615 266 / 127.064;
#X obj 615 290 + 0.0005;
#X msg 263 310 control #4 \$1;
#X obj 371 139 select 0 1 2 3;
#X obj 476 67 s valV;
#X obj 263 220 r valV;
#X obj 372 221 r valV;
#X obj 491 235 r valV;
#X obj 615 216 r valV;
#X floatatom 273 292 5 0 0 0 - - -, f 5;
#X floatatom 382 312 5 0 0 0 - - -, f 5;
#X floatatom 501 307 5 0 0 0 - - -, f 5;
#X floatatom 625 312 5 0 0 0 - - -, f 5;
#X obj 372 269 / 127.767;
#X obj 308 69 loadbang;
#X connect 0 0 1 0;
#X connect 1 0 8 0;
#X connect 1 1 28 0;
#X connect 2 0 10 1;
#X connect 3 0 11 1;
#X connect 4 0 12 1;
#X connect 5 0 17 1;
#X connect 6 0 27 0;
#X connect 7 0 6 0;
#X connect 8 0 7 0;
#X connect 8 0 27 0;
#X connect 8 1 6 0;
#X connect 9 0 26 0;
#X connect 9 0 33 0;
#X connect 10 0 9 0;
#X connect 11 0 37 0;
#X connect 12 0 22 0;
#X connect 15 0 20 0;
#X connect 16 0 20 0;
#X connect 17 0 24 0;
#X connect 19 0 20 0;
#X connect 22 0 16 0;
#X connect 22 0 35 0;
#X connect 23 0 15 0;
#X connect 23 0 34 0;
#X connect 24 0 25 0;
#X connect 25 0 19 0;
#X connect 25 0 36 0;
#X connect 26 0 20 0;
#X connect 27 0 2 0;
#X connect 27 1 3 0;
#X connect 27 2 4 0;
#X connect 27 3 5 0;
#X connect 29 0 10 0;
#X connect 30 0 11 0;
#X connect 31 0 12 0;
#X connect 32 0 17 0;
#X connect 37 0 23 0;
#X connect 38 0 2 0;
#X restore 966 132 pd controlVerb;
#X obj 240 111 spigot;
#X obj 424 109 spigot;
#X obj 609 112 spigot;
#X obj 787 110 spigot;
#X obj 966 110 spigot;
#X obj 97 63 r pluginNum;
#X obj 648 63 r pluginNum;
#X obj 463 63 r pluginNum;
#X obj 826 63 r pluginNum;
#X obj 1005 63 r pluginNum;
#X obj 279 63 r pluginNum;
#X obj 18 63 r ctrlData;
#X obj 385 63 r ctrlData;
#X obj 200 63 r ctrlData;
#X obj 569 63 r ctrlData;
#X obj 747 63 r ctrlData;
#X obj 926 63 r ctrlData;
#X obj 966 176 plugin~ PlateX2;
#X obj 1068 221 outlet~;
#N canvas 218 186 403 512 tremolo 0;
#X obj 12 6 inlet;
#X obj 126 46 unpack f f;
#X obj 88 163 tgl 15 0 empty empty empty 17 7 0 10 -262144 -1 -1 1
1;
#X obj 121 163 tgl 15 0 empty empty empty 17 7 0 10 -262144 -1 -1 0
1;
#X floatatom 120 118 5 0 0 0 - - -, f 5;
#X msg 133 96 set \$1;
#X obj 88 69 t f b;
#X obj 49 227 spigot;
#X obj 132 228 spigot;
#X obj 88 139 select 0 1;
#X text 46 183 mix;
#X obj 49 252 / 127;
#X obj 84 368 inlet~;
#X obj 132 327 osc~;
#X obj 132 303 pow;
#X msg 132 278 2;
#X obj 132 252 t b f;
#X obj 133 362 *~;
#X obj 116 401 *~;
#X obj 115 424 outlet~;
#X obj 28 421 outlet;
#X floatatom 48 316 5 0 0 0 - - -, f 5;
#X floatatom 183 327 5 0 0 0 - - -, f 5;
#X obj 193 67 s valAM;
#X obj 49 202 r valAM;
#X obj 132 205 r valAM;
#X obj 20 139 loadbang;
#X text 138 184 freq;
#X obj 164 278 / 10;
#X obj 246 258 inlet;
#X obj 246 286 mtof;
#X connect 0 0 1 0;
#X connect 1 0 6 0;
#X connect 1 1 23 0;
#X connect 2 0 7 1;
#X connect 3 0 8 1;
#X connect 4 0 9 0;
#X connect 5 0 4 0;
#X connect 6 0 5 0;
#X connect 6 0 9 0;
#X connect 6 1 4 0;
#X connect 7 0 11 0;
#X connect 8 0 16 0;
#X connect 9 0 2 0;
#X connect 9 1 3 0;
#X connect 11 0 17 1;
#X connect 11 0 21 0;
#X connect 12 0 18 0;
#X connect 13 0 17 0;
#X connect 14 0 13 0;
#X connect 14 0 22 0;
#X connect 15 0 14 0;
#X connect 16 0 15 0;
#X connect 16 1 28 0;
#X connect 17 0 18 1;
#X connect 18 0 19 0;
#X connect 24 0 7 0;
#X connect 25 0 8 0;
#X connect 26 0 2 0;
#X connect 28 0 14 1;
#X connect 29 0 30 0;
#X connect 30 0 13 0;
#X restore 609 163 pd tremolo;
#X obj 279 87 == 2;
#X obj 463 85 == 4;
#X obj 648 86 == 5;
#X obj 826 86 == 7;
#X obj 1005 86 == 9;
#X obj 91 311 tgl 15 0 empty empty empty 17 7 0 10 -262144 -1 -1 0
1;
#X obj 207 311 tgl 15 0 empty empty empty 17 7 0 10 -262144 -1 -1 0
1;
#X obj 324 311 tgl 15 0 empty empty empty 17 7 0 10 -262144 -1 -1 0
1;
#X obj 444 311 tgl 15 0 empty empty empty 17 7 0 10 -262144 -1 -1 0
1;
#X obj 564 311 tgl 15 0 empty empty empty 17 7 0 10 -262144 -1 -1 0
1;
#X obj 684 311 tgl 15 0 empty empty empty 17 7 0 10 -262144 -1 -1 0
1;
#X obj 875 178 r fbAmt;
#X obj 857 200 *~;
#X text 78 269 C tone;
#X text 188 269 D chorus;
#X text 309 269 E phase;
#X text 427 269 F tremolo;
#X text 553 269 G delay;
#X text 673 269 A reverb;
#X obj 637 135 r rmFreq;
#X obj 91 291 r sT;
#X obj 207 291 r sC;
#X obj 324 291 r sP;
#X obj 564 291 r sD;
#X obj 444 291 r sAM;
#X obj 684 291 r rV;
#X obj 112 109 tgl 20 0 empty empty empty 17 7 0 10 -262144 -258113
-1 0 1;
#X obj 296 111 tgl 20 0 empty empty empty 17 7 0 10 -262144 -258113
-1 0 1;
#X obj 485 110 tgl 20 0 empty empty empty 17 7 0 10 -262144 -258113
-1 0 1;
#X obj 673 109 tgl 20 0 empty empty empty 17 7 0 10 -262144 -258113
-1 0 1;
#X obj 842 111 tgl 20 0 empty empty empty 17 7 0 10 -262144 -258113
-1 0 1;
#X obj 1038 109 tgl 20 0 empty empty empty 17 7 0 10 -262144 -258113
-1 0 1;
#X obj 170 134 r~ in1;
#X obj 171 180 s~ out1;
#X obj 361 136 r~ in2;
#X obj 360 182 s~ out2;
#X obj 545 135 r in3;
#X obj 545 182 s~ out3;
#X obj 702 135 r~ in4;
#X obj 675 186 s~ out4;
#X obj 895 201 r~ in5;
#X obj 939 246 s~ out5;
#X obj 896 246 s~ fb;
#X obj 856 158 r~ fb;
#X obj 1016 153 r~ in 6;
#X obj 324 337 == 0;
#X obj 254 362 *~;
#X obj 306 362 *~;
#X obj 255 337 r~ out2;
#X obj 255 386 s~ in3;
#X obj 305 385 s~ in4;
#X obj 444 337 == 0;
#X obj 374 362 *~;
#X obj 426 362 *~;
#X obj 375 337 r~ out2;
#X obj 375 386 s~ in3;
#X obj 425 385 s~ in4;
#X obj 564 337 == 0;
#X obj 494 362 *~;
#X obj 546 362 *~;
#X obj 495 337 r~ out2;
#X obj 495 386 s~ in3;
#X obj 545 385 s~ in4;
#X obj 684 337 == 0;
#X obj 614 362 *~;
#X obj 666 362 *~;
#X obj 615 337 r~ out2;
#X obj 615 386 s~ in3;
#X obj 665 385 s~ in4;
#X connect 0 0 6 0;
#X connect 1 0 3 1;
#X connect 2 0 4 0;
#X connect 3 0 5 0;
#X connect 7 0 2 0;
#X connect 7 0 3 0;
#X connect 8 0 10 1;
#X connect 9 0 12 0;
#X connect 10 0 13 0;
#X connect 11 0 9 0;
#X connect 11 0 10 0;
#X connect 14 1 79 0;
#X connect 15 1 81 0;
#X connect 16 1 83 0;
#X connect 17 1 88 0;
#X connect 17 1 87 0;
#X connect 19 0 14 0;
#X connect 20 0 21 1;
#X connect 20 0 72 0;
#X connect 21 0 19 0;
#X connect 22 0 15 0;
#X connect 23 0 16 0;
#X connect 24 0 17 0;
#X connect 25 0 43 0;
#X connect 26 0 22 0;
#X connect 27 0 23 0;
#X connect 28 0 45 0;
#X connect 29 0 24 0;
#X connect 30 0 25 0;
#X connect 31 0 20 0;
#X connect 32 0 48 0;
#X connect 33 0 47 0;
#X connect 34 0 49 0;
#X connect 35 0 50 0;
#X connect 36 0 46 0;
#X connect 37 0 21 0;
#X connect 38 0 27 0;
#X connect 39 0 26 0;
#X connect 40 0 28 0;
#X connect 41 0 29 0;
#X connect 42 0 30 0;
#X connect 43 1 18 0;
#X connect 43 2 44 0;
#X connect 45 1 85 0;
#X connect 46 0 26 1;
#X connect 46 0 73 0;
#X connect 47 0 27 1;
#X connect 47 0 74 0;
#X connect 48 0 28 1;
#X connect 48 0 75 0;
#X connect 49 0 29 1;
#X connect 49 0 76 0;
#X connect 50 0 30 1;
#X connect 50 0 77 0;
#X connect 51 0 1 0;
#X connect 51 0 2 1;
#X connect 52 0 8 0;
#X connect 52 0 9 1;
#X connect 53 0 91 0;
#X connect 54 0 97 0;
#X connect 55 0 103 0;
#X connect 56 0 109 0;
#X connect 57 0 58 1;
#X connect 58 0 17 1;
#X connect 65 0 45 2;
#X connect 66 0 51 0;
#X connect 67 0 52 0;
#X connect 68 0 53 0;
#X connect 69 0 55 0;
#X connect 70 0 54 0;
#X connect 71 0 56 0;
#X connect 78 0 14 1;
#X connect 80 0 15 1;
#X connect 82 0 16 1;
#X connect 84 0 45 1;
#X connect 86 0 17 1;
#X connect 89 0 58 0;
#X connect 90 0 43 1;
#X connect 90 0 43 2;
#X connect 91 0 93 1;
#X connect 92 0 95 0;
#X connect 93 0 96 0;
#X connect 94 0 92 0;
#X connect 94 0 93 0;
#X connect 97 0 99 1;
#X connect 98 0 101 0;
#X connect 99 0 102 0;
#X connect 100 0 98 0;
#X connect 100 0 99 0;
#X connect 103 0 105 1;
#X connect 104 0 107 0;
#X connect 105 0 108 0;
#X connect 106 0 104 0;
#X connect 106 0 105 0;
#X connect 109 0 111 1;
#X connect 110 0 113 0;
#X connect 111 0 114 0;
#X connect 112 0 110 0;
#X connect 112 0 111 0;
