#N canvas 64 142 868 346 10;
#X obj 87 7 notein;
#X floatatom 87 48 5 0 0 0 Plugin_num - -, f 5;
#X obj 60 126 ctlin;
#X obj 403 57 vsl 15 128 0 1.25 0 0 empty empty Input_Fader 0 -9 0
10 -262144 -1 -1 10160 1;
#X obj 367 195 *~;
#X msg 478 38 1;
#X obj 478 10 loadbang;
#X floatatom 403 197 5 0 0 0 - - -, f 5;
#X obj 635 232 dac~;
#X obj 593 57 vsl 15 128 0 1.25 0 0 empty empty Output_Fader 0 -9 0
10 -262144 -1 -1 10160 1;
#X msg 547 38 1;
#X obj 547 10 loadbang;
#X floatatom 593 197 5 0 0 0 - - -, f 5;
#X obj 645 196 *~;
#X obj 482 91 tgl 50 0 empty empty FX_Mute 10 -10 0 10 -262144 -1 -1
0 1;
#X obj 226 68 adc~;
#X obj 197 197 s~ toFX;
#X obj 337 170 r~ toFX;
#X obj 277 249 s~ toOut;
#X obj 645 149 r~ toOut;
#X obj 482 148 s mute;
#X obj 197 169 *~;
#X obj 215 121 r mute;
#X obj 215 143 == 0;
#X obj 294 121 r mute;
#X obj 276 167 *~;
#X obj 335 277 s~ toOutR;
#X obj 681 170 r~ toOutR;
#X obj 682 196 *~;
#X obj 33 216 pack f f;
#X obj 87 28 - 48;
#N canvas 287 85 929 687 plugin 1;
#X obj 307 228 plugin~ AmpVTS;
#X obj 301 280 plugin~ ChorusI;
#X obj 295 343 plugin~ PhaserII;
#X obj 257 492 plugin~ delay_5s;
#X obj 367 538 send~ fb;
#X obj 326 426 receive~ fb;
#X obj 398 152 inlet~;
#X obj 518 642 outlet~;
#N canvas 334 309 926 412 controlTone 0;
#X obj 409 20 inlet;
#X obj 416 374 outlet;
#X obj 409 46 unpack f f;
#X obj 371 164 tgl 15 0 empty empty empty 17 7 0 10 -262144 -1 -1 1
1;
#X obj 389 164 tgl 15 0 empty empty empty 17 7 0 10 -262144 -1 -1 0
1;
#X obj 408 164 tgl 15 0 empty empty empty 17 7 0 10 -262144 -1 -1 0
1;
#X obj 427 164 tgl 15 0 empty empty empty 17 7 0 10 -262144 -1 -1 0
1;
#X floatatom 403 118 5 0 0 0 - - -, f 5;
#X obj 371 69 t f b;
#X obj 42 275 / 63.5;
#X msg 42 316 control #1 \$1;
#X text 39 206 overdrive;
#X obj 42 250 spigot;
#X obj 149 250 spigot;
#X msg 149 316 control #2 \$1;
#X obj 149 275 / 127;
#X text 155 204 gain;
#X text 254 204 bright;
#X text 364 204 power;
#X text 450 205 tonestack;
#X text 576 205 bass;
#X text 688 205 mid;
#X text 783 203 treble;
#X obj 256 251 spigot;
#X obj 256 276 / 127;
#X msg 256 317 control #3 \$1;
#X obj 362 251 spigot;
#X obj 362 276 / 127;
#X msg 362 317 control #4 \$1;
#X obj 468 251 spigot;
#X msg 468 317 control #5 \$1;
#X obj 575 251 spigot;
#X obj 575 276 / 127;
#X msg 575 317 control #6 \$1;
#X obj 468 276 / 15.875;
#X obj 681 251 spigot;
#X msg 681 317 control #7 \$1;
#X obj 787 251 spigot;
#X msg 787 317 control #8 \$1;
#X obj 371 139 select 0 1 2 3 4 5 6 7;
#X obj 446 164 tgl 15 0 empty empty empty 17 7 0 10 -262144 -1 -1 0
1;
#X obj 465 164 tgl 15 0 empty empty empty 17 7 0 10 -262144 -1 -1 0
1;
#X obj 484 164 tgl 15 0 empty empty empty 17 7 0 10 -262144 -1 -1 0
1;
#X obj 503 164 tgl 15 0 empty empty empty 17 7 0 10 -262144 -1 -1 0
1;
#X floatatom 59 297 5 0 0 0 - - -, f 5;
#X floatatom 156 297 5 0 0 0 - - -, f 5;
#X floatatom 264 298 5 0 0 0 - - -, f 5;
#X floatatom 370 298 5 0 0 0 - - -, f 5;
#X floatatom 583 298 5 0 0 0 - - -, f 5;
#X floatatom 476 298 5 0 0 0 - - -, f 5;
#X msg 416 96 set \$1;
#X obj 476 67 s valT;
#X obj 42 225 r valT;
#X obj 149 225 r valT;
#X obj 256 226 r valT;
#X obj 362 226 r valT;
#X obj 468 226 r valT;
#X obj 575 226 r valT;
#X obj 681 226 r valT;
#X obj 787 226 r valT;
#X floatatom 700 299 5 0 0 0 - - -, f 5;
#X floatatom 815 298 5 0 0 0 - - -, f 5;
#X obj 787 276 / 127;
#X obj 681 276 / 127;
#X obj 308 69 loadbang;
#X connect 0 0 2 0;
#X connect 2 0 8 0;
#X connect 2 1 51 0;
#X connect 3 0 12 1;
#X connect 4 0 13 1;
#X connect 5 0 23 1;
#X connect 6 0 26 1;
#X connect 7 0 39 0;
#X connect 8 0 50 0;
#X connect 8 0 39 0;
#X connect 8 1 7 0;
#X connect 9 0 10 0;
#X connect 9 0 44 0;
#X connect 10 0 1 0;
#X connect 12 0 9 0;
#X connect 13 0 15 0;
#X connect 14 0 1 0;
#X connect 15 0 14 0;
#X connect 15 0 45 0;
#X connect 23 0 24 0;
#X connect 24 0 25 0;
#X connect 24 0 46 0;
#X connect 25 0 1 0;
#X connect 26 0 27 0;
#X connect 27 0 28 0;
#X connect 27 0 47 0;
#X connect 28 0 1 0;
#X connect 29 0 34 0;
#X connect 30 0 1 0;
#X connect 31 0 32 0;
#X connect 32 0 33 0;
#X connect 32 0 48 0;
#X connect 33 0 1 0;
#X connect 34 0 30 0;
#X connect 34 0 49 0;
#X connect 35 0 63 0;
#X connect 36 0 1 0;
#X connect 37 0 62 0;
#X connect 38 0 1 0;
#X connect 39 0 3 0;
#X connect 39 1 4 0;
#X connect 39 2 5 0;
#X connect 39 3 6 0;
#X connect 39 4 40 0;
#X connect 39 5 41 0;
#X connect 39 6 42 0;
#X connect 39 7 43 0;
#X connect 40 0 29 1;
#X connect 41 0 31 1;
#X connect 42 0 35 1;
#X connect 43 0 37 1;
#X connect 50 0 7 0;
#X connect 52 0 12 0;
#X connect 53 0 13 0;
#X connect 54 0 23 0;
#X connect 55 0 26 0;
#X connect 56 0 29 0;
#X connect 57 0 31 0;
#X connect 58 0 35 0;
#X connect 59 0 37 0;
#X connect 62 0 38 0;
#X connect 62 0 61 0;
#X connect 63 0 36 0;
#X connect 63 0 60 0;
#X connect 64 0 3 0;
#X restore 271 197 pd controlTone;
#X obj 24 15 inlet;
#X obj 124 15 inlet;
#X obj 310 136 == 0;
#X obj 271 158 spigot;
#N canvas 139 262 792 459 controlChorus 0;
#X obj 409 20 inlet;
#X obj 416 357 outlet;
#X obj 409 46 unpack f f;
#X obj 371 164 tgl 15 0 empty empty empty 17 7 0 10 -262144 -1 -1 1
1;
#X obj 389 164 tgl 15 0 empty empty empty 17 7 0 10 -262144 -1 -1 0
1;
#X obj 408 164 tgl 15 0 empty empty empty 17 7 0 10 -262144 -1 -1 0
1;
#X obj 427 164 tgl 15 0 empty empty empty 17 7 0 10 -262144 -1 -1 0
1;
#X floatatom 403 118 5 0 0 0 - - -, f 5;
#X msg 416 96 set \$1;
#X obj 371 69 t f b;
#X obj 85 252 spigot;
#X obj 192 239 spigot;
#X obj 535 252 spigot;
#X msg 535 321 control #5 \$1;
#X obj 642 252 spigot;
#X obj 642 277 / 127;
#X msg 642 321 control #6 \$1;
#X obj 446 164 tgl 15 0 empty empty empty 17 7 0 10 -262144 -1 -1 0
1;
#X obj 465 164 tgl 15 0 empty empty empty 17 7 0 10 -262144 -1 -1 0
1;
#X obj 371 139 select 0 1 2 3 4 5;
#X text 188 195 t (ms);
#X text 86 208 blend;
#X text 517 206 fdfwd;
#X text 643 206 fdbk;
#X msg 85 321 control #4 \$1;
#X msg 192 321 control #1 \$1;
#X msg 299 322 control #2 \$1;
#X msg 405 322 control #3 \$1;
#X obj 85 277 / 127;
#X obj 192 281 + 2.5;
#X obj 299 239 spigot;
#X text 295 195 width (ms);
#X obj 404 238 spigot;
#X obj 404 260 / 45.5197;
#X obj 404 280 + 0.01;
#X text 400 194 rate (Hz);
#X obj 299 261 / 13.3684;
#X obj 192 261 / 3.3867;
#X obj 299 281 + 0.5;
#X obj 535 277 / 127;
#X floatatom 95 299 5 0 0 0 - - -, f 5;
#X floatatom 202 303 5 0 0 0 - - -, f 5;
#X floatatom 309 303 5 0 0 0 - - -, f 5;
#X floatatom 414 302 5 0 0 0 - - -, f 5;
#X floatatom 545 299 5 0 0 0 - - -, f 5;
#X floatatom 652 299 5 0 0 0 - - -, f 5;
#X obj 476 67 s valC;
#X obj 85 227 r valC;
#X obj 192 216 r valC;
#X obj 299 216 r valC;
#X obj 404 215 r valC;
#X obj 535 227 r valC;
#X obj 642 227 r valC;
#X obj 308 69 loadbang;
#X connect 0 0 2 0;
#X connect 2 0 9 0;
#X connect 2 1 46 0;
#X connect 3 0 10 1;
#X connect 4 0 11 1;
#X connect 5 0 30 1;
#X connect 6 0 32 1;
#X connect 7 0 19 0;
#X connect 8 0 7 0;
#X connect 9 0 8 0;
#X connect 9 0 19 0;
#X connect 9 1 7 0;
#X connect 10 0 28 0;
#X connect 11 0 37 0;
#X connect 12 0 39 0;
#X connect 13 0 1 0;
#X connect 14 0 15 0;
#X connect 15 0 16 0;
#X connect 15 0 45 0;
#X connect 16 0 1 0;
#X connect 17 0 12 1;
#X connect 18 0 14 1;
#X connect 19 0 3 0;
#X connect 19 1 4 0;
#X connect 19 2 5 0;
#X connect 19 3 6 0;
#X connect 19 4 17 0;
#X connect 19 5 18 0;
#X connect 24 0 1 0;
#X connect 25 0 1 0;
#X connect 26 0 1 0;
#X connect 27 0 1 0;
#X connect 28 0 24 0;
#X connect 28 0 40 0;
#X connect 29 0 25 0;
#X connect 29 0 41 0;
#X connect 30 0 36 0;
#X connect 32 0 33 0;
#X connect 33 0 34 0;
#X connect 34 0 27 0;
#X connect 34 0 43 0;
#X connect 36 0 38 0;
#X connect 37 0 29 0;
#X connect 38 0 26 0;
#X connect 38 0 42 0;
#X connect 39 0 13 0;
#X connect 39 0 44 0;
#X connect 47 0 10 0;
#X connect 48 0 11 0;
#X connect 49 0 30 0;
#X connect 50 0 32 0;
#X connect 51 0 12 0;
#X connect 52 0 14 0;
#X connect 53 0 3 0;
#X restore 122 243 pd controlChorus;
#N canvas 167 126 647 397 controlPhaser 0;
#X obj 286 16 inlet;
#X obj 295 340 outlet;
#X obj 286 42 unpack f f;
#X obj 248 160 tgl 15 0 empty empty empty 17 7 0 10 -262144 -1 -1 1
1;
#X obj 266 160 tgl 15 0 empty empty empty 17 7 0 10 -262144 -1 -1 0
1;
#X obj 285 160 tgl 15 0 empty empty empty 17 7 0 10 -262144 -1 -1 0
1;
#X obj 304 160 tgl 15 0 empty empty empty 17 7 0 10 -262144 -1 -1 0
1;
#X floatatom 280 114 5 0 0 0 - - -, f 5;
#X msg 293 92 set \$1;
#X obj 248 65 t f b;
#X obj 33 238 spigot;
#X obj 140 238 spigot;
#X obj 140 263 / 127;
#X obj 247 239 spigot;
#X obj 247 264 / 127;
#X obj 353 239 spigot;
#X obj 353 264 / 127;
#X msg 353 308 control #4 \$1;
#X obj 459 239 spigot;
#X msg 459 308 control #5 \$1;
#X obj 323 160 tgl 15 0 empty empty empty 17 7 0 10 -262144 -1 -1 0
1;
#X obj 248 135 select 0 1 2 3 4;
#X text 30 194 depth;
#X obj 33 263 / 127;
#X msg 33 307 control #3 \$1;
#X msg 140 307 control #1 \$1;
#X msg 247 308 control #2 \$1;
#X text 146 192 rate;
#X text 255 193 lfo;
#X text 349 193 spread;
#X text 444 197 resonance;
#X obj 459 264 / 127;
#X floatatom 43 285 5 0 0 0 - - -, f 5;
#X floatatom 150 285 5 0 0 0 - - -, f 5;
#X floatatom 257 286 5 0 0 0 - - -, f 5;
#X floatatom 363 286 5 0 0 0 - - -, f 5;
#X floatatom 469 286 5 0 0 0 - - -, f 5;
#X obj 353 63 s valP;
#X obj 33 213 r valP;
#X obj 140 213 r valP;
#X obj 247 214 r valP;
#X obj 353 214 r valP;
#X obj 459 214 r valP;
#X obj 182 65 loadbang;
#X connect 0 0 2 0;
#X connect 2 0 9 0;
#X connect 2 1 37 0;
#X connect 3 0 10 1;
#X connect 4 0 11 1;
#X connect 5 0 13 1;
#X connect 6 0 15 1;
#X connect 7 0 21 0;
#X connect 8 0 7 0;
#X connect 9 0 8 0;
#X connect 9 0 21 0;
#X connect 9 1 7 0;
#X connect 10 0 23 0;
#X connect 11 0 12 0;
#X connect 12 0 25 0;
#X connect 12 0 33 0;
#X connect 13 0 14 0;
#X connect 14 0 26 0;
#X connect 14 0 34 0;
#X connect 15 0 16 0;
#X connect 16 0 17 0;
#X connect 16 0 35 0;
#X connect 17 0 1 0;
#X connect 18 0 31 0;
#X connect 19 0 1 0;
#X connect 20 0 18 1;
#X connect 21 0 3 0;
#X connect 21 1 4 0;
#X connect 21 2 5 0;
#X connect 21 3 6 0;
#X connect 21 4 20 0;
#X connect 23 0 24 0;
#X connect 23 0 32 0;
#X connect 24 0 1 0;
#X connect 25 0 1 0;
#X connect 26 0 1 0;
#X connect 31 0 19 0;
#X connect 31 0 36 0;
#X connect 38 0 10 0;
#X connect 39 0 11 0;
#X connect 40 0 13 0;
#X connect 41 0 15 0;
#X connect 42 0 18 0;
#X connect 43 0 3 0;
#X restore 57 355 pd controlPhaser;
#N canvas 197 168 970 498 controlDelay 0;
#X obj 416 33 inlet;
#X obj 399 341 outlet;
#X obj 416 59 unpack f f;
#X obj 378 176 tgl 15 0 empty empty empty 17 7 0 10 -262144 -1 -1 1
1;
#X obj 405 175 tgl 15 0 empty empty empty 17 7 0 10 -262144 -1 -1 0
1;
#X floatatom 410 131 5 0 0 0 - - -, f 5;
#X msg 423 109 set \$1;
#X obj 378 82 t f b;
#X obj 339 240 spigot;
#X obj 446 240 spigot;
#X text 336 196 mix;
#X text 452 194 delay;
#X obj 339 265 / 127;
#X obj 446 265 / 25.4;
#X obj 483 80 s valD;
#X obj 339 215 r valD;
#X obj 446 215 r valD;
#X floatatom 349 287 5 0 0 0 - - -, f 5;
#X floatatom 456 287 5 0 0 0 - - -, f 5;
#X obj 308 82 loadbang;
#X obj 378 152 select 0 1 2;
#X obj 432 175 tgl 15 0 empty empty empty 17 7 0 10 -262144 -1 -1 0
1;
#X obj 564 245 spigot;
#X obj 564 220 r valD;
#X floatatom 574 292 5 0 0 0 - - -, f 5;
#X text 570 199 fb;
#X obj 564 270 / 127;
#X obj 574 312 s fbAmt;
#X msg 339 309 control #2 \$1;
#X msg 446 309 control #1 \$1;
#X connect 0 0 2 0;
#X connect 2 0 7 0;
#X connect 2 1 14 0;
#X connect 3 0 8 1;
#X connect 4 0 9 1;
#X connect 5 0 20 0;
#X connect 6 0 5 0;
#X connect 7 0 6 0;
#X connect 7 0 20 0;
#X connect 7 1 5 0;
#X connect 8 0 12 0;
#X connect 9 0 13 0;
#X connect 12 0 28 0;
#X connect 12 0 17 0;
#X connect 13 0 29 0;
#X connect 13 0 18 0;
#X connect 15 0 8 0;
#X connect 16 0 9 0;
#X connect 19 0 3 0;
#X connect 20 0 3 0;
#X connect 20 1 4 0;
#X connect 20 2 21 0;
#X connect 21 0 22 1;
#X connect 22 0 26 0;
#X connect 23 0 22 0;
#X connect 24 0 27 0;
#X connect 26 0 24 0;
#X connect 28 0 1 0;
#X connect 29 0 1 0;
#X restore 84 545 pd controlDelay;
#N canvas 324 199 937 501 controlVerb 0;
#X obj 409 20 inlet;
#X obj 409 46 unpack f f;
#X obj 371 164 tgl 15 0 empty empty empty 17 7 0 10 -262144 -1 -1 1
1;
#X obj 389 164 tgl 15 0 empty empty empty 17 7 0 10 -262144 -1 -1 0
1;
#X obj 408 164 tgl 15 0 empty empty empty 17 7 0 10 -262144 -1 -1 0
1;
#X obj 427 164 tgl 15 0 empty empty empty 17 7 0 10 -262144 -1 -1 0
1;
#X floatatom 403 118 5 0 0 0 - - -, f 5;
#X msg 416 96 set \$1;
#X obj 371 69 t f b;
#X obj 263 270 / 63.5;
#X obj 263 245 spigot;
#X obj 372 246 spigot;
#X obj 491 260 spigot;
#X text 260 201 blend;
#X text 374 199 bandwidth;
#X msg 372 327 control #3 \$1;
#X msg 491 325 control #4 \$1;
#X obj 615 241 spigot;
#X text 597 195 damping;
#X msg 615 327 control #4 \$1;
#X obj 415 357 outlet;
#X text 494 214 tail;
#X obj 491 285 / 127;
#X obj 372 290 + 0.005;
#X obj 615 266 / 127.064;
#X obj 615 290 + 0.0005;
#X msg 263 310 control #4 \$1;
#X obj 371 139 select 0 1 2 3;
#X obj 476 67 s valV;
#X obj 263 220 r valV;
#X obj 372 221 r valV;
#X obj 491 235 r valV;
#X obj 615 216 r valV;
#X floatatom 273 292 5 0 0 0 - - -, f 5;
#X floatatom 382 312 5 0 0 0 - - -, f 5;
#X floatatom 501 307 5 0 0 0 - - -, f 5;
#X floatatom 625 312 5 0 0 0 - - -, f 5;
#X obj 372 269 / 127.767;
#X obj 308 69 loadbang;
#X connect 0 0 1 0;
#X connect 1 0 8 0;
#X connect 1 1 28 0;
#X connect 2 0 10 1;
#X connect 3 0 11 1;
#X connect 4 0 12 1;
#X connect 5 0 17 1;
#X connect 6 0 27 0;
#X connect 7 0 6 0;
#X connect 8 0 7 0;
#X connect 8 0 27 0;
#X connect 8 1 6 0;
#X connect 9 0 26 0;
#X connect 9 0 33 0;
#X connect 10 0 9 0;
#X connect 11 0 37 0;
#X connect 12 0 22 0;
#X connect 15 0 20 0;
#X connect 16 0 20 0;
#X connect 17 0 24 0;
#X connect 19 0 20 0;
#X connect 22 0 16 0;
#X connect 22 0 35 0;
#X connect 23 0 15 0;
#X connect 23 0 34 0;
#X connect 24 0 25 0;
#X connect 25 0 19 0;
#X connect 25 0 36 0;
#X connect 26 0 20 0;
#X connect 27 0 2 0;
#X connect 27 1 3 0;
#X connect 27 2 4 0;
#X connect 27 3 5 0;
#X connect 29 0 10 0;
#X connect 30 0 11 0;
#X connect 31 0 12 0;
#X connect 32 0 17 0;
#X connect 37 0 23 0;
#X connect 38 0 2 0;
#X restore 255 650 pd controlVerb;
#X obj 122 218 spigot;
#X obj 57 330 spigot;
#X obj 92 438 spigot;
#X obj 84 520 spigot;
#X obj 255 628 spigot;
#X obj 24 41 s pluginNum;
#X obj 124 41 s ctrlData;
#X obj 310 112 r pluginNum;
#X obj 131 389 r pluginNum;
#X obj 96 284 r pluginNum;
#X obj 123 473 r pluginNum;
#X obj 294 581 r pluginNum;
#X obj 161 170 r pluginNum;
#X obj 231 112 r ctrlData;
#X obj 18 284 r ctrlData;
#X obj 82 170 r ctrlData;
#X obj 52 389 r ctrlData;
#X obj 44 473 r ctrlData;
#X obj 215 581 r ctrlData;
#X obj 468 569 plugin~ PlateX2;
#X obj 576 642 outlet~;
#N canvas 221 182 403 512 tremolo 0;
#X obj 12 6 inlet;
#X obj 126 46 unpack f f;
#X obj 88 163 tgl 15 0 empty empty empty 17 7 0 10 -262144 -1 -1 1
1;
#X obj 121 163 tgl 15 0 empty empty empty 17 7 0 10 -262144 -1 -1 0
1;
#X floatatom 120 118 5 0 0 0 - - -, f 5;
#X msg 133 96 set \$1;
#X obj 88 69 t f b;
#X obj 49 227 spigot;
#X obj 132 228 spigot;
#X obj 88 139 select 0 1;
#X text 46 183 mix;
#X obj 49 252 / 127;
#X obj 84 368 inlet~;
#X obj 132 327 osc~;
#X obj 132 303 pow;
#X msg 132 278 2;
#X obj 132 252 t b f;
#X obj 133 362 *~;
#X obj 116 401 *~;
#X obj 115 424 outlet~;
#X obj 28 421 outlet;
#X floatatom 48 316 5 0 0 0 - - -, f 5;
#X floatatom 183 327 5 0 0 0 - - -, f 5;
#X obj 193 67 s valAM;
#X obj 49 202 r valAM;
#X obj 132 205 r valAM;
#X obj 20 139 loadbang;
#X text 138 184 freq;
#X obj 164 278 / 10;
#X obj 246 258 inlet;
#X obj 246 286 mtof;
#X connect 0 0 1 0;
#X connect 1 0 6 0;
#X connect 1 1 23 0;
#X connect 2 0 7 1;
#X connect 3 0 8 1;
#X connect 4 0 9 0;
#X connect 5 0 4 0;
#X connect 6 0 5 0;
#X connect 6 0 9 0;
#X connect 6 1 4 0;
#X connect 7 0 11 0;
#X connect 8 0 16 0;
#X connect 9 0 2 0;
#X connect 9 1 3 0;
#X connect 11 0 17 1;
#X connect 11 0 21 0;
#X connect 12 0 18 0;
#X connect 13 0 17 0;
#X connect 14 0 13 0;
#X connect 14 0 22 0;
#X connect 15 0 14 0;
#X connect 16 0 15 0;
#X connect 16 1 28 0;
#X connect 17 0 18 1;
#X connect 18 0 19 0;
#X connect 24 0 7 0;
#X connect 25 0 8 0;
#X connect 26 0 2 0;
#X connect 28 0 14 1;
#X connect 29 0 30 0;
#X connect 30 0 13 0;
#X restore 336 397 pd tremolo;
#X obj 161 194 == 2;
#X obj 96 306 == 4;
#X obj 131 412 == 5;
#X obj 123 496 == 7;
#X obj 294 604 == 9;
#X obj 555 143 tgl 15 0 empty empty empty 17 7 0 10 -262144 -1 -1 0
1;
#X obj 612 143 tgl 15 0 empty empty empty 17 7 0 10 -262144 -1 -1 0
1;
#X obj 669 143 tgl 15 0 empty empty empty 17 7 0 10 -262144 -1 -1 0
1;
#X obj 726 143 tgl 15 0 empty empty empty 17 7 0 10 -262144 -1 -1 0
1;
#X obj 791 143 tgl 15 0 empty empty empty 17 7 0 10 -262144 -1 -1 0
1;
#X obj 848 143 tgl 15 0 empty empty empty 17 7 0 10 -262144 -1 -1 0
1;
#X obj 491 178 == 0;
#X obj 564 416 == 0;
#X obj 542 348 == 0;
#X obj 570 491 == 0;
#X obj 509 227 == 0;
#X obj 533 299 == 0;
#X obj 473 201 *~;
#X obj 439 200 *~;
#X obj 491 249 *~;
#X obj 457 253 *~;
#X obj 515 322 *~;
#X obj 474 319 *~;
#X obj 524 371 *~;
#X obj 496 372 *~;
#X obj 552 515 *~;
#X obj 521 517 *~;
#X obj 546 440 *~;
#X obj 506 441 *~;
#X obj 345 446 r fbAmt;
#X obj 327 468 *~;
#X text 542 101 C tone;
#X text 593 101 D chorus;
#X text 654 101 E phase;
#X text 709 101 F tremolo;
#X text 780 101 G delay;
#X text 837 101 A reverb;
#X obj 213 10 r pluginNum;
#X obj 252 30 >= 12;
#X obj 213 51 spigot;
#X obj 213 75 s rmFreq;
#X obj 364 369 r rmFreq;
#N canvas 498 155 475 375 fxToggle 0;
#X obj 105 29 r ctrlNum;
#X text 183 28 current Ctrl;
#X floatatom 105 51 5 0 0 0 - - -, f 5;
#X obj 105 84 == 23;
#X obj 266 84 == 24;
#X obj 105 157 select 0 2 4 5 7 9;
#X msg 125 177 0;
#X msg 187 177 0;
#X msg 146 177 0;
#X msg 166 177 0;
#X msg 105 177 0;
#X msg 207 177 0;
#X obj 105 197 s sT;
#X obj 125 217 s sC;
#X obj 146 237 s sP;
#X obj 166 257 s sAM;
#X obj 187 277 s sD;
#X obj 207 298 s sV;
#X obj 266 157 select 0 2 4 5 7 9;
#X obj 266 197 s sT;
#X obj 286 217 s sC;
#X obj 307 237 s sP;
#X obj 327 257 s sAM;
#X obj 348 277 s sD;
#X obj 368 298 s sV;
#X msg 266 177 1;
#X msg 307 177 1;
#X msg 286 177 1;
#X msg 327 177 1;
#X msg 348 177 1;
#X msg 368 177 1;
#X obj 105 128 spigot;
#X obj 105 106 r pluginNum;
#X obj 266 129 spigot;
#X obj 266 107 r pluginNum;
#X connect 0 0 2 0;
#X connect 2 0 3 0;
#X connect 2 0 4 0;
#X connect 3 0 31 1;
#X connect 4 0 33 1;
#X connect 5 0 10 0;
#X connect 5 1 6 0;
#X connect 5 2 8 0;
#X connect 5 3 9 0;
#X connect 5 4 7 0;
#X connect 5 5 11 0;
#X connect 6 0 13 0;
#X connect 7 0 16 0;
#X connect 8 0 14 0;
#X connect 9 0 15 0;
#X connect 10 0 12 0;
#X connect 11 0 17 0;
#X connect 18 0 25 0;
#X connect 18 1 27 0;
#X connect 18 2 26 0;
#X connect 18 3 28 0;
#X connect 18 4 29 0;
#X connect 18 5 30 0;
#X connect 25 0 19 0;
#X connect 26 0 21 0;
#X connect 27 0 20 0;
#X connect 28 0 22 0;
#X connect 29 0 23 0;
#X connect 30 0 24 0;
#X connect 31 0 5 0;
#X connect 32 0 31 0;
#X connect 33 0 18 0;
#X connect 34 0 33 0;
#X restore 310 13 pd fxToggle;
#X obj 555 123 r sT;
#X obj 612 123 r sC;
#X obj 669 123 r sP;
#X obj 791 123 r sD;
#X obj 726 123 r sAM;
#N canvas 665 328 450 300 tapTempo 0;
#X obj 38 261 outlet;
#X restore 442 14 pd tapTempo;
#X obj 325 168 tgl 20 0 empty empty empty 17 7 0 10 -262144 -258113
-1 0 1;
#X obj 178 218 tgl 20 0 empty empty empty 17 7 0 10 -262144 -258113
-1 0 1;
#X obj 118 331 tgl 20 0 empty empty empty 17 7 0 10 -262144 -258113
-1 0 1;
#X obj 156 435 tgl 20 0 empty empty empty 17 7 0 10 -262144 -258113
-1 0 1;
#X obj 139 521 tgl 20 0 empty empty empty 17 7 0 10 -262144 -258113
-1 0 1;
#X obj 327 627 tgl 20 0 empty empty empty 17 7 0 10 -262144 -258113
-1 0 1;
#X obj 848 123 r sV;
#X connect 0 1 59 0;
#X connect 0 1 58 0;
#X connect 1 1 61 0;
#X connect 1 1 60 0;
#X connect 2 1 63 0;
#X connect 2 1 62 0;
#X connect 3 1 4 0;
#X connect 3 1 65 0;
#X connect 3 1 64 0;
#X connect 5 0 69 0;
#X connect 6 0 57 0;
#X connect 6 0 56 0;
#X connect 8 0 0 0;
#X connect 9 0 22 0;
#X connect 10 0 23 0;
#X connect 11 0 12 1;
#X connect 11 0 88 0;
#X connect 12 0 8 0;
#X connect 13 0 1 0;
#X connect 14 0 2 0;
#X connect 15 0 3 0;
#X connect 16 0 36 0;
#X connect 17 0 13 0;
#X connect 18 0 14 0;
#X connect 19 0 38 0;
#X connect 20 0 15 0;
#X connect 21 0 16 0;
#X connect 24 0 11 0;
#X connect 25 0 41 0;
#X connect 26 0 40 0;
#X connect 27 0 42 0;
#X connect 28 0 43 0;
#X connect 29 0 39 0;
#X connect 30 0 12 0;
#X connect 31 0 18 0;
#X connect 32 0 17 0;
#X connect 33 0 19 0;
#X connect 34 0 20 0;
#X connect 35 0 21 0;
#X connect 36 1 7 0;
#X connect 36 2 37 0;
#X connect 38 1 67 0;
#X connect 38 1 66 0;
#X connect 39 0 17 1;
#X connect 39 0 89 0;
#X connect 40 0 18 1;
#X connect 40 0 90 0;
#X connect 41 0 19 1;
#X connect 41 0 91 0;
#X connect 42 0 20 1;
#X connect 42 0 92 0;
#X connect 43 0 21 1;
#X connect 43 0 93 0;
#X connect 44 0 50 0;
#X connect 44 0 57 1;
#X connect 45 0 54 0;
#X connect 45 0 59 1;
#X connect 46 0 55 0;
#X connect 46 0 61 1;
#X connect 47 0 52 0;
#X connect 47 0 63 1;
#X connect 48 0 51 0;
#X connect 48 0 67 1;
#X connect 49 0 53 0;
#X connect 49 0 65 1;
#X connect 50 0 56 1;
#X connect 51 0 66 1;
#X connect 52 0 62 1;
#X connect 53 0 64 1;
#X connect 54 0 58 1;
#X connect 55 0 60 1;
#X connect 56 0 59 0;
#X connect 56 0 58 0;
#X connect 57 0 0 1;
#X connect 58 0 61 0;
#X connect 58 0 60 0;
#X connect 59 0 1 1;
#X connect 60 0 63 0;
#X connect 60 0 62 0;
#X connect 61 0 2 1;
#X connect 62 0 67 0;
#X connect 62 0 66 0;
#X connect 63 0 38 1;
#X connect 64 0 7 0;
#X connect 65 0 36 1;
#X connect 65 0 36 2;
#X connect 66 0 65 0;
#X connect 66 0 64 0;
#X connect 67 0 3 1;
#X connect 68 0 69 1;
#X connect 69 0 3 1;
#X connect 76 0 77 0;
#X connect 76 0 78 0;
#X connect 77 0 78 1;
#X connect 78 0 79 0;
#X connect 80 0 38 2;
#X connect 82 0 44 0;
#X connect 83 0 45 0;
#X connect 84 0 46 0;
#X connect 85 0 48 0;
#X connect 86 0 47 0;
#X connect 94 0 49 0;
#X restore 276 213 pd plugin;
#X obj 102 184 s ctrlNum;
#X obj 786 88 vu 25 120 empty empty -1 -8 0 10 -66577 -1 1 0;
#X obj 443 307 tgl 25 0 empty empty empty 17 7 0 10 -262144 -258113
-1 0 1;
#X obj 500 307 tgl 25 0 empty empty empty 17 7 0 10 -262144 -258113
-1 0 1;
#X obj 557 307 tgl 25 0 empty empty empty 17 7 0 10 -262144 -258113
-1 0 1;
#X obj 614 307 tgl 25 0 empty empty empty 17 7 0 10 -262144 -258113
-1 0 1;
#X obj 679 307 tgl 25 0 empty empty empty 17 7 0 10 -262144 -258113
-1 0 1;
#X obj 736 307 tgl 25 0 empty empty empty 17 7 0 10 -262144 -258113
-1 0 1;
#X text 430 265 C tone;
#X text 481 265 D chorus;
#X text 542 265 E phase;
#X text 597 265 F tremolo;
#X text 668 265 G delay;
#X text 725 265 A reverb;
#X obj 443 287 r sT;
#X obj 500 287 r sC;
#X obj 557 287 r sP;
#X obj 679 287 r sD;
#X obj 614 287 r sAM;
#X obj 58 84 s pluginNum;
#X obj 32 237 s ctrlData;
#X obj 100 209 s ctrlVal;
#X obj 674 232 s~ vu;
#X obj 785 21 r~ vu;
#X obj 785 41 env~;
#X obj 785 61 - 100;
#X floatatom 119 158 5 0 0 0 - - -, f 5;
#X obj 736 287 r sV;
#X connect 0 0 30 0;
#X connect 1 0 51 0;
#X connect 2 0 29 1;
#X connect 2 0 53 0;
#X connect 2 1 29 0;
#X connect 2 1 32 0;
#X connect 2 1 58 0;
#X connect 3 0 4 1;
#X connect 3 0 7 0;
#X connect 5 0 3 0;
#X connect 6 0 5 0;
#X connect 9 0 12 0;
#X connect 9 0 13 1;
#X connect 9 0 28 1;
#X connect 10 0 9 0;
#X connect 11 0 10 0;
#X connect 13 0 8 0;
#X connect 13 0 8 1;
#X connect 13 0 54 0;
#X connect 14 0 20 0;
#X connect 15 0 21 0;
#X connect 15 0 25 0;
#X connect 15 1 21 0;
#X connect 15 1 25 0;
#X connect 17 0 4 0;
#X connect 17 0 31 2;
#X connect 19 0 13 0;
#X connect 21 0 16 0;
#X connect 22 0 23 0;
#X connect 23 0 21 1;
#X connect 24 0 25 1;
#X connect 25 0 18 0;
#X connect 27 0 28 0;
#X connect 29 0 52 0;
#X connect 30 0 1 0;
#X connect 31 0 18 0;
#X connect 31 1 26 0;
#X connect 46 0 34 0;
#X connect 47 0 35 0;
#X connect 48 0 36 0;
#X connect 49 0 38 0;
#X connect 50 0 37 0;
#X connect 55 0 56 0;
#X connect 56 0 57 0;
#X connect 57 0 33 0;
#X connect 59 0 39 0;
