#N canvas 361 139 963 597 10;
#X obj 486 239 plugin~ AmpVTS;
#X obj 479 272 plugin~ ChorusI;
#X obj 473 298 plugin~ PhaserII;
#X text 503 325 tremolo;
#X obj 586 406 plugin~ PlateII;
#X obj 473 346 plugin~ delay_5s;
#X obj 580 374 send~ fb;
#X obj 638 347 receive~ fb;
#X obj 580 198 inlet~;
#X obj 636 479 outlet~;
#N canvas 81 81 925 416 controlTone 1;
#X obj 409 20 inlet;
#X obj 416 357 outlet;
#X obj 409 46 unpack f f;
#X obj 371 164 tgl 15 0 empty empty empty 17 7 0 10 -262144 -1 -1 1
1;
#X obj 389 164 tgl 15 0 empty empty empty 17 7 0 10 -262144 -1 -1 0
1;
#X obj 408 164 tgl 15 0 empty empty empty 17 7 0 10 -262144 -1 -1 0
1;
#X obj 427 164 tgl 15 0 empty empty empty 17 7 0 10 -262144 -1 -1 0
1;
#X floatatom 403 118 5 0 0 0 - - -, f 5;
#X msg 416 96 set \$1;
#X obj 371 69 t f b;
#X obj 42 275 / 63.5;
#X msg 42 299 control #1 \$1;
#X text 39 206 overdrive;
#X obj 42 250 spigot;
#X obj 476 67 s val;
#X obj 42 225 r val;
#X obj 149 250 spigot;
#X obj 149 225 r val;
#X msg 149 299 control #2 \$1;
#X obj 149 275 / 127;
#X text 155 204 gain;
#X text 254 204 bright;
#X text 364 204 power;
#X text 450 205 tonestack;
#X text 576 205 bass;
#X text 688 205 mid;
#X text 783 203 treble;
#X obj 256 251 spigot;
#X obj 256 226 r val;
#X obj 256 276 / 127;
#X msg 256 300 control #3 \$1;
#X obj 362 251 spigot;
#X obj 362 226 r val;
#X obj 362 276 / 127;
#X msg 362 300 control #4 \$1;
#X obj 468 251 spigot;
#X obj 468 226 r val;
#X msg 468 300 control #5 \$1;
#X obj 575 251 spigot;
#X obj 575 226 r val;
#X obj 575 276 / 127;
#X msg 575 300 control #6 \$1;
#X obj 468 276 / 15.875;
#X obj 681 251 spigot;
#X obj 681 226 r val;
#X obj 681 276 / 127;
#X msg 681 300 control #7 \$1;
#X obj 787 251 spigot;
#X obj 787 226 r val;
#X obj 787 276 / 127;
#X msg 787 300 control #8 \$1;
#X obj 371 139 select 0 1 2 3 4 5 6 7;
#X obj 446 164 tgl 15 0 empty empty empty 17 7 0 10 -262144 -1 -1 0
1;
#X obj 465 164 tgl 15 0 empty empty empty 17 7 0 10 -262144 -1 -1 0
1;
#X obj 484 164 tgl 15 0 empty empty empty 17 7 0 10 -262144 -1 -1 0
1;
#X obj 503 164 tgl 15 0 empty empty empty 17 7 0 10 -262144 -1 -1 0
1;
#X connect 0 0 2 0;
#X connect 2 0 9 0;
#X connect 2 1 14 0;
#X connect 3 0 13 1;
#X connect 4 0 16 1;
#X connect 5 0 27 1;
#X connect 6 0 31 1;
#X connect 7 0 51 0;
#X connect 8 0 7 0;
#X connect 9 0 8 0;
#X connect 9 0 51 0;
#X connect 9 1 7 0;
#X connect 10 0 11 0;
#X connect 11 0 1 0;
#X connect 13 0 10 0;
#X connect 15 0 13 0;
#X connect 16 0 19 0;
#X connect 17 0 16 0;
#X connect 18 0 1 0;
#X connect 19 0 18 0;
#X connect 27 0 29 0;
#X connect 28 0 27 0;
#X connect 29 0 30 0;
#X connect 30 0 1 0;
#X connect 31 0 33 0;
#X connect 32 0 31 0;
#X connect 33 0 34 0;
#X connect 34 0 1 0;
#X connect 35 0 42 0;
#X connect 36 0 35 0;
#X connect 37 0 1 0;
#X connect 38 0 40 0;
#X connect 39 0 38 0;
#X connect 40 0 41 0;
#X connect 41 0 1 0;
#X connect 42 0 37 0;
#X connect 43 0 45 0;
#X connect 44 0 43 0;
#X connect 45 0 46 0;
#X connect 46 0 1 0;
#X connect 47 0 49 0;
#X connect 48 0 47 0;
#X connect 49 0 50 0;
#X connect 50 0 1 0;
#X connect 51 0 3 0;
#X connect 51 1 4 0;
#X connect 51 2 5 0;
#X connect 51 3 6 0;
#X connect 51 4 52 0;
#X connect 51 5 53 0;
#X connect 51 6 54 0;
#X connect 51 7 55 0;
#X connect 52 0 35 1;
#X connect 53 0 38 1;
#X connect 54 0 45 1;
#X connect 55 0 49 1;
#X restore 385 123 pd controlTone;
#X obj 24 15 inlet;
#X obj 124 15 inlet;
#X obj 424 79 == 0;
#X obj 385 101 spigot;
#N canvas 435 247 638 426 controlChorus 0;
#X obj 49 26 inlet;
#X obj 91 184 outlet;
#X restore 207 155 pd controlChorus;
#N canvas 435 247 638 426 controlPhaser 0;
#X obj 49 26 inlet;
#X obj 91 184 outlet;
#X restore 148 276 pd controlPhaser;
#N canvas 435 247 638 426 controlDelay 0;
#X obj 49 26 inlet;
#X obj 91 184 outlet;
#X restore 261 483 pd controlDelay;
#N canvas 435 247 638 426 controlVerb 0;
#X obj 49 26 inlet;
#X obj 91 184 outlet;
#X restore 444 542 pd controlVerb;
#X obj 207 130 spigot;
#X obj 246 106 == 1;
#X obj 148 251 spigot;
#X obj 187 227 == 2;
#X obj 154 374 spigot;
#X obj 193 348 == 3;
#X obj 261 458 spigot;
#X obj 300 434 == 4;
#X obj 444 520 spigot;
#X obj 483 496 == 5;
#X obj 24 41 s pluginNum;
#X obj 124 41 s ctrlData;
#X obj 424 55 r pluginNum;
#X obj 193 325 r pluginNum;
#X obj 187 205 r pluginNum;
#X obj 300 411 r pluginNum;
#X obj 483 473 r pluginNum;
#X obj 246 82 r pluginNum;
#X obj 345 55 r ctrlData;
#X obj 109 205 r ctrlData;
#X obj 167 82 r ctrlData;
#X obj 114 325 r ctrlData;
#X obj 221 411 r ctrlData;
#X obj 404 473 r ctrlData;
#X connect 0 1 1 1;
#X connect 1 1 2 1;
#X connect 2 1 5 1;
#X connect 4 1 9 0;
#X connect 5 1 6 0;
#X connect 7 0 5 1;
#X connect 7 0 4 1;
#X connect 8 0 0 1;
#X connect 10 0 0 0;
#X connect 11 0 29 0;
#X connect 12 0 30 0;
#X connect 13 0 14 1;
#X connect 14 0 10 0;
#X connect 15 0 1 0;
#X connect 16 0 2 0;
#X connect 17 0 5 0;
#X connect 18 0 4 0;
#X connect 19 0 15 0;
#X connect 20 0 19 1;
#X connect 21 0 16 0;
#X connect 22 0 21 1;
#X connect 24 0 23 1;
#X connect 25 0 17 0;
#X connect 26 0 25 1;
#X connect 27 0 18 0;
#X connect 28 0 27 1;
#X connect 31 0 13 0;
#X connect 32 0 24 0;
#X connect 33 0 22 0;
#X connect 34 0 26 0;
#X connect 35 0 28 0;
#X connect 36 0 20 0;
#X connect 37 0 14 0;
#X connect 38 0 21 0;
#X connect 39 0 19 0;
#X connect 40 0 23 0;
#X connect 41 0 25 0;
#X connect 42 0 27 0;
